{
  "title" : "",
  "description" : "",
  "author" : "",
  "targetLoudness" : -18.0,
  "shouldApplyLoudnessNormalization" : true,
  "videoFormatFrameRate" : 30,
  "audioFormatSampleRate" : 44100,
  "width" : 1920.0,
  "height" : 1080.0,
  "version" : "4.0",
  "editRate" : 30,
  "authoringClientName" :  {
    "name" : "Camtasia",
    "platform" : "Windows",
    "version" : "20.0"
  },
  "sourceBin" : [
    {
      "id" : 1,
      "src" : "C:\\Development\\Tutorials\\Youtube\\DAO for Beginners\\07 DAO CRUD Retrieve All\\Graphics\\Outro.png",
      "rect" : [0, 0, 1924, 1084],
      "lastMod" : "20220201T223117",
      "sourceTracks" : [
        {
          "range" : [0, 1],
          "type" : 1,
          "editRate" : 10000000,
          "trackRect" : [0, 0, 1924, 1084],
          "sampleRate" : 0,
          "bitDepth" : 32,
          "numChannels" : 0,
          "integratedLUFS" : 100.0,
          "peakLevel" : -1.0,
          "metaData" : ""
        }
      ],
      "metadata" : {
        "timeAdded" : "20220207T235153.479688"
      }
    },
    {
      "id" : 2,
      "src" : "C:\\Development\\Tutorials\\Youtube\\DAO for Beginners\\07 DAO CRUD Retrieve All\\Graphics\\Ribbon Logo and Name.png",
      "rect" : [0, 0, 1920, 53],
      "lastMod" : "20210606T201705",
      "sourceTracks" : [
        {
          "range" : [0, 1],
          "type" : 1,
          "editRate" : 10000000,
          "trackRect" : [0, 0, 1920, 53],
          "sampleRate" : 0,
          "bitDepth" : 32,
          "numChannels" : 0,
          "integratedLUFS" : 100.0,
          "peakLevel" : -1.0,
          "metaData" : ""
        }
      ],
      "metadata" : {
        "timeAdded" : "20220207T235153.486680"
      }
    },
    {
      "id" : 3,
      "src" : "C:\\Development\\Tutorials\\Youtube\\DAO for Beginners\\07 DAO CRUD Retrieve All\\Media\\YouTube Social Booster Outro.mp4",
      "rect" : [0, 0, 1920, 1080],
      "lastMod" : "20210618T152810",
      "sourceTracks" : [
        {
          "range" : [0, 11250],
          "type" : 0,
          "editRate" : 1000,
          "trackRect" : [0, 0, 1920, 1080],
          "sampleRate" : 24,
          "bitDepth" : 24,
          "numChannels" : 0,
          "integratedLUFS" : 100.0,
          "peakLevel" : -1.0,
          "metaData" : ""
        },
        {
          "range" : [0, 11000],
          "type" : 2,
          "editRate" : 1000,
          "trackRect" : [0, 0, 0, 0],
          "sampleRate" : 48000,
          "bitDepth" : 16,
          "numChannels" : 2,
          "integratedLUFS" : -14.4958347531933,
          "peakLevel" : 0.934511125087738,
          "metaData" : ""
        }
      ],
      "metadata" : {
        "timeAdded" : "20220207T235317.287660"
      }
    },
    {
      "id" : 4,
      "src" : "C:\\ProgramData\\TechSmith\\Camtasia Studio 20\\Library 4.0\\User Libraries\\Junkie\\DAO Intro.asset\\DAO Intro Background.png",
      "rect" : [0, 0, 1920, 1080],
      "lastMod" : "20220129T092117",
      "sourceTracks" : [
        {
          "range" : [0, 1],
          "type" : 1,
          "editRate" : 10000000,
          "trackRect" : [0, 0, 1920, 1080],
          "sampleRate" : 0,
          "bitDepth" : 32,
          "numChannels" : 0,
          "integratedLUFS" : 100.0,
          "peakLevel" : -1.0,
          "metaData" : ""
        }
      ],
      "metadata" : {
        "assetLibraryId" : "8c47b707-a498-4b28-8e7b-29553a8c3bf9",
        "timeAdded" : "20220207T235326.577236"
      }
    },
    {
      "id" : 5,
      "src" : "C:\\ProgramData\\TechSmith\\Camtasia Studio 20\\Library 4.0\\User Libraries\\Junkie\\DAO Intro.asset\\White River - Aakash Gandhi.mp3",
      "rect" : [0, 0, 0, 0],
      "lastMod" : "20210306T201301",
      "sourceTracks" : [
        {
          "range" : [0, 1700571000],
          "type" : 2,
          "editRate" : 10000000,
          "trackRect" : [0, 0, 0, 0],
          "sampleRate" : 44100,
          "bitDepth" : 0,
          "numChannels" : 2,
          "integratedLUFS" : -26.3543222831439,
          "peakLevel" : 0.263217270374298,
          "metaData" : ""
        }
      ],
      "metadata" : {
        "assetLibraryId" : "8c47b707-a498-4b28-8e7b-29553a8c3bf9",
        "timeAdded" : "20220207T235326.577236"
      }
    },
    {
      "id" : 6,
      "src" : "C:\\ProgramData\\TechSmith\\Camtasia Studio 20\\Library 4.0\\User Libraries\\Junkie\\DAO Intro.asset\\DAO Intro Card.png",
      "rect" : [0, 0, 2304, 1297],
      "lastMod" : "20220129T091651",
      "sourceTracks" : [
        {
          "range" : [0, 1],
          "type" : 1,
          "editRate" : 10000000,
          "trackRect" : [0, 0, 2304, 1297],
          "sampleRate" : 0,
          "bitDepth" : 32,
          "numChannels" : 0,
          "integratedLUFS" : 100.0,
          "peakLevel" : -1.0,
          "metaData" : ""
        }
      ],
      "metadata" : {
        "assetLibraryId" : "8c47b707-a498-4b28-8e7b-29553a8c3bf9",
        "timeAdded" : "20220207T235326.577236"
      }
    },
    {
      "id" : 7,
      "src" : "C:\\Development\\Tutorials\\Youtube\\DAO for Beginners\\07 DAO CRUD Retrieve All\\Recordings\\Rec 02-08-22.trec",
      "rect" : [0, 0, 1600, 900],
      "lastMod" : "20220208T184753",
      "sourceTracks" : [
        {
          "range" : [0, 1261],
          "type" : 0,
          "editRate" : 30,
          "trackRect" : [0, 0, 1600, 900],
          "sampleRate" : 4,
          "bitDepth" : 0,
          "numChannels" : 0,
          "integratedLUFS" : 100.0,
          "peakLevel" : -1.0,
          "metaData" : "2b7b6a00-7a1f-11e2-83d0-0017f200be7f;2b7b6aef-7a1f-11e2-83d0-0017f200be7f;2b7b6af0-7a1f-11e2-83d0-0017f200be7f;2b7b6af1-7a1f-11e2-83d0-0017f200be7f;2b7b6af2-7a1f-11e2-83d0-0017f200be7f;2b7b6af3-7a1f-11e2-83d0-0017f200be7f;2b7b6af5-7a1f-11e2-83d0-0017f200be7f;2b7b6af6-7a1f-11e2-83d0-0017f200be7f;2b7b6af7-7a1f-11e2-83d0-0017f200be7f;2b7b6af8-7a1f-11e2-83d0-0017f200be7f;2b7b6af9-7a1f-11e2-83d0-0017f200be7f;2b7b6afa-7a1f-11e2-83d0-0017f200be7f;"
        },
        {
          "range" : [0, 1878016],
          "type" : 2,
          "editRate" : 44100,
          "trackRect" : [0, 0, 0, 0],
          "sampleRate" : 44100,
          "bitDepth" : 16,
          "numChannels" : 2,
          "integratedLUFS" : -29.9582693244237,
          "peakLevel" : 0.192413330078125,
          "metaData" : ""
        }
      ],
      "metadata" : {
        "timeAdded" : "20220208T184811.063215"
      }
    },
    {
      "id" : 8,
      "src" : "C:\\Development\\Tutorials\\Youtube\\DAO for Beginners\\07 DAO CRUD Retrieve All\\Recordings\\Rec 02-08-22_001.trec",
      "rect" : [0, 0, 1600, 900],
      "lastMod" : "20220208T185505",
      "sourceTracks" : [
        {
          "range" : [0, 2661],
          "type" : 0,
          "editRate" : 30,
          "trackRect" : [0, 0, 1600, 900],
          "sampleRate" : 5,
          "bitDepth" : 0,
          "numChannels" : 0,
          "integratedLUFS" : 100.0,
          "peakLevel" : -1.0,
          "metaData" : "2b7b6a00-7a1f-11e2-83d0-0017f200be7f;2b7b6aef-7a1f-11e2-83d0-0017f200be7f;2b7b6af0-7a1f-11e2-83d0-0017f200be7f;2b7b6af1-7a1f-11e2-83d0-0017f200be7f;2b7b6af2-7a1f-11e2-83d0-0017f200be7f;2b7b6af3-7a1f-11e2-83d0-0017f200be7f;2b7b6af5-7a1f-11e2-83d0-0017f200be7f;2b7b6af6-7a1f-11e2-83d0-0017f200be7f;2b7b6af7-7a1f-11e2-83d0-0017f200be7f;2b7b6af8-7a1f-11e2-83d0-0017f200be7f;2b7b6af9-7a1f-11e2-83d0-0017f200be7f;2b7b6afa-7a1f-11e2-83d0-0017f200be7f;"
        },
        {
          "range" : [0, 3937280],
          "type" : 2,
          "editRate" : 44100,
          "trackRect" : [0, 0, 0, 0],
          "sampleRate" : 44100,
          "bitDepth" : 16,
          "numChannels" : 2,
          "integratedLUFS" : -34.1135158337786,
          "peakLevel" : 0.13983154296875,
          "metaData" : ""
        }
      ],
      "metadata" : {
        "timeAdded" : "20220208T185509.261700"
      }
    },
    {
      "id" : 9,
      "src" : "C:\\Development\\Tutorials\\Youtube\\DAO for Beginners\\07 DAO CRUD Retrieve All\\Recordings\\Rec 02-08-22_002.trec",
      "rect" : [0, 0, 1600, 900],
      "lastMod" : "20220208T190838",
      "sourceTracks" : [
        {
          "range" : [0, 14659],
          "type" : 0,
          "editRate" : 30,
          "trackRect" : [0, 0, 1600, 900],
          "sampleRate" : 7,
          "bitDepth" : 0,
          "numChannels" : 0,
          "integratedLUFS" : 100.0,
          "peakLevel" : -1.0,
          "metaData" : "2b7b6a00-7a1f-11e2-83d0-0017f200be7f;2b7b6aef-7a1f-11e2-83d0-0017f200be7f;2b7b6af0-7a1f-11e2-83d0-0017f200be7f;2b7b6af1-7a1f-11e2-83d0-0017f200be7f;2b7b6af2-7a1f-11e2-83d0-0017f200be7f;2b7b6af3-7a1f-11e2-83d0-0017f200be7f;2b7b6af5-7a1f-11e2-83d0-0017f200be7f;2b7b6af6-7a1f-11e2-83d0-0017f200be7f;2b7b6af7-7a1f-11e2-83d0-0017f200be7f;2b7b6af8-7a1f-11e2-83d0-0017f200be7f;2b7b6af9-7a1f-11e2-83d0-0017f200be7f;2b7b6afa-7a1f-11e2-83d0-0017f200be7f;"
        },
        {
          "range" : [0, 21573632],
          "type" : 2,
          "editRate" : 44100,
          "trackRect" : [0, 0, 0, 0],
          "sampleRate" : 44100,
          "bitDepth" : 16,
          "numChannels" : 2,
          "integratedLUFS" : -37.5388862768274,
          "peakLevel" : 0.169952392578125,
          "metaData" : ""
        }
      ],
      "metadata" : {
        "timeAdded" : "20220208T190842.229629"
      }
    },
    {
      "id" : 10,
      "src" : "C:\\Development\\Tutorials\\Youtube\\DAO for Beginners\\07 DAO CRUD Retrieve All\\Recordings\\Rec 02-08-22_003.trec",
      "rect" : [0, 0, 1600, 900],
      "lastMod" : "20220208T191354",
      "sourceTracks" : [
        {
          "range" : [0, 7694],
          "type" : 0,
          "editRate" : 30,
          "trackRect" : [0, 0, 1600, 900],
          "sampleRate" : 6,
          "bitDepth" : 0,
          "numChannels" : 0,
          "integratedLUFS" : 100.0,
          "peakLevel" : -1.0,
          "metaData" : "2b7b6a00-7a1f-11e2-83d0-0017f200be7f;2b7b6aef-7a1f-11e2-83d0-0017f200be7f;2b7b6af0-7a1f-11e2-83d0-0017f200be7f;2b7b6af1-7a1f-11e2-83d0-0017f200be7f;2b7b6af2-7a1f-11e2-83d0-0017f200be7f;2b7b6af3-7a1f-11e2-83d0-0017f200be7f;2b7b6af5-7a1f-11e2-83d0-0017f200be7f;2b7b6af6-7a1f-11e2-83d0-0017f200be7f;2b7b6af7-7a1f-11e2-83d0-0017f200be7f;2b7b6af8-7a1f-11e2-83d0-0017f200be7f;2b7b6af9-7a1f-11e2-83d0-0017f200be7f;2b7b6afa-7a1f-11e2-83d0-0017f200be7f;"
        },
        {
          "range" : [0, 11333632],
          "type" : 2,
          "editRate" : 44100,
          "trackRect" : [0, 0, 0, 0],
          "sampleRate" : 44100,
          "bitDepth" : 16,
          "numChannels" : 2,
          "integratedLUFS" : -35.2374833807282,
          "peakLevel" : 0.142730712890625,
          "metaData" : ""
        }
      ],
      "metadata" : {
        "timeAdded" : "20220208T191358.088437"
      }
    },
    {
      "id" : 11,
      "src" : "C:\\Development\\Tutorials\\Youtube\\DAO for Beginners\\07 DAO CRUD Retrieve All\\Audio\\Audio_Cleaned.wav",
      "rect" : [0, 0, 0, 0],
      "lastMod" : "20220208T201003",
      "sourceTracks" : [
        {
          "range" : [0, 4686000000],
          "type" : 2,
          "editRate" : 10000000,
          "trackRect" : [0, 0, 0, 0],
          "sampleRate" : 44100,
          "bitDepth" : 16,
          "numChannels" : 2,
          "integratedLUFS" : -22.9849284769672,
          "peakLevel" : 0.580169677734375,
          "metaData" : ""
        }
      ],
      "metadata" : {
        "timeAdded" : "20220208T201017.277595"
      }
    }
  ],
  "timeline" : {
    "id" : 12,
    "sceneTrack" : {
      "scenes" : [
        {
          "csml" : {
            "tracks" : [
              {
                "trackIndex" : 0,
                "medias" : [
                  {
                    "id" : 13,
                    "_type" : "StitchedMedia",
                    "minMediaStart" : 0,
                    "attributes" : {
                      "ident" : "Rec 02-08-22",
                      "gain" : 1.0,
                      "mixToMono" : false
                    },
                    "parameters" : {
                      "scale0" : 1.2,
                      "scale1" : 1.2,
                      "sourceCrop0" : 0.0,
                      "sourceCrop1" : 0.0,
                      "sourceCrop2" : 0.0,
                      "sourceCrop3" : 0.0,
                      "geometryCrop0" : 0.0,
                      "geometryCrop1" : 0.0,
                      "geometryCrop2" : 0.0,
                      "geometryCrop3" : 0.0,
                      "cursorOpacity" : 1.0,
                      "cursorScale" : 1.0
                    },
                    "medias" : [
                        {
                          "id" : 14,
                          "_type" : "ScreenVMFile",
                          "src" : 7,
                          "trackNumber" : 0,
                          "attributes" : {
                            "ident" : "Rec 02-08-22"
                          },
                          "parameters" : {
                            "sourceCrop0" : {
                              "type" : "double",
                              "defaultValue" : 0.0,
                              "interp" : "eioe"
                            },
                            "sourceCrop1" : {
                              "type" : "double",
                              "defaultValue" : 0.0,
                              "interp" : "eioe"
                            },
                            "sourceCrop2" : {
                              "type" : "double",
                              "defaultValue" : 0.0,
                              "interp" : "eioe"
                            },
                            "sourceCrop3" : {
                              "type" : "double",
                              "defaultValue" : 0.0,
                              "interp" : "eioe"
                            },
                            "geometryCrop0" : {
                              "type" : "double",
                              "defaultValue" : 0.0,
                              "interp" : "eioe"
                            },
                            "geometryCrop1" : {
                              "type" : "double",
                              "defaultValue" : 0.0,
                              "interp" : "eioe"
                            },
                            "geometryCrop2" : {
                              "type" : "double",
                              "defaultValue" : 0.0,
                              "interp" : "eioe"
                            },
                            "geometryCrop3" : {
                              "type" : "double",
                              "defaultValue" : 0.0,
                              "interp" : "eioe"
                            },
                            "cursorScale" : {
                              "type" : "double",
                              "defaultValue" : 0.0,
                              "interp" : "linr"
                            },
                            "cursorOpacity" : {
                              "type" : "double",
                              "defaultValue" : 0.0,
                              "interp" : "linr"
                            }
                          },
                          "effects" : [

                          ],
                          "start" : 0,
                          "duration" : 404,
                          "mediaStart" : 0,
                          "mediaDuration" : 404,
                          "scalar" : 1,
                          "metadata" : {
                            "AutoAppliedSmartFocus" : "False"
                          },
                          "animationTracks" : {

                          }
                        },
                        {
                          "id" : 15,
                          "_type" : "ScreenVMFile",
                          "src" : 7,
                          "trackNumber" : 0,
                          "attributes" : {
                            "ident" : "Rec 02-08-22"
                          },
                          "parameters" : {
                            "sourceCrop0" : {
                              "type" : "double",
                              "defaultValue" : 0.0,
                              "interp" : "eioe"
                            },
                            "sourceCrop1" : {
                              "type" : "double",
                              "defaultValue" : 0.0,
                              "interp" : "eioe"
                            },
                            "sourceCrop2" : {
                              "type" : "double",
                              "defaultValue" : 0.0,
                              "interp" : "eioe"
                            },
                            "sourceCrop3" : {
                              "type" : "double",
                              "defaultValue" : 0.0,
                              "interp" : "eioe"
                            },
                            "geometryCrop0" : {
                              "type" : "double",
                              "defaultValue" : 0.0,
                              "interp" : "eioe"
                            },
                            "geometryCrop1" : {
                              "type" : "double",
                              "defaultValue" : 0.0,
                              "interp" : "eioe"
                            },
                            "geometryCrop2" : {
                              "type" : "double",
                              "defaultValue" : 0.0,
                              "interp" : "eioe"
                            },
                            "geometryCrop3" : {
                              "type" : "double",
                              "defaultValue" : 0.0,
                              "interp" : "eioe"
                            },
                            "cursorScale" : {
                              "type" : "double",
                              "defaultValue" : 0.0,
                              "interp" : "linr"
                            },
                            "cursorOpacity" : {
                              "type" : "double",
                              "defaultValue" : 0.0,
                              "interp" : "linr"
                            }
                          },
                          "effects" : [

                          ],
                          "start" : 404,
                          "duration" : 1,
                          "mediaStart" : 422,
                          "mediaDuration" : 1,
                          "scalar" : 1,
                          "metadata" : {
                            "AutoAppliedSmartFocus" : "False"
                          },
                          "animationTracks" : {

                          }
                        },
                        {
                          "id" : 16,
                          "_type" : "ScreenVMFile",
                          "src" : 7,
                          "trackNumber" : 0,
                          "attributes" : {
                            "ident" : "Rec 02-08-22"
                          },
                          "parameters" : {
                            "sourceCrop0" : {
                              "type" : "double",
                              "defaultValue" : 0.0,
                              "interp" : "eioe"
                            },
                            "sourceCrop1" : {
                              "type" : "double",
                              "defaultValue" : 0.0,
                              "interp" : "eioe"
                            },
                            "sourceCrop2" : {
                              "type" : "double",
                              "defaultValue" : 0.0,
                              "interp" : "eioe"
                            },
                            "sourceCrop3" : {
                              "type" : "double",
                              "defaultValue" : 0.0,
                              "interp" : "eioe"
                            },
                            "geometryCrop0" : {
                              "type" : "double",
                              "defaultValue" : 0.0,
                              "interp" : "eioe"
                            },
                            "geometryCrop1" : {
                              "type" : "double",
                              "defaultValue" : 0.0,
                              "interp" : "eioe"
                            },
                            "geometryCrop2" : {
                              "type" : "double",
                              "defaultValue" : 0.0,
                              "interp" : "eioe"
                            },
                            "geometryCrop3" : {
                              "type" : "double",
                              "defaultValue" : 0.0,
                              "interp" : "eioe"
                            },
                            "cursorScale" : {
                              "type" : "double",
                              "defaultValue" : 0.0,
                              "interp" : "linr"
                            },
                            "cursorOpacity" : {
                              "type" : "double",
                              "defaultValue" : 0.0,
                              "interp" : "linr"
                            }
                          },
                          "effects" : [

                          ],
                          "start" : 405,
                          "duration" : 287,
                          "mediaStart" : 974,
                          "mediaDuration" : 287,
                          "scalar" : 1,
                          "metadata" : {
                            "AutoAppliedSmartFocus" : "False"
                          },
                          "animationTracks" : {

                          }
                        }
                    ],
                    "effects" : [

                    ],
                    "start" : 0,
                    "duration" : 450,
                    "mediaStart" : 183,
                    "mediaDuration" : 450,
                    "scalar" : 1,
                    "metadata" : {
                      "AutoAppliedSmartFocus" : "False",
                      "clipSpeedAttribute" : false
                    },
                    "animationTracks" : {

                    }
                  },
                  {
                    "id" : 17,
                    "_type" : "StitchedMedia",
                    "minMediaStart" : 0,
                    "attributes" : {
                      "ident" : "Rec 02-08-22_001",
                      "gain" : 1.0,
                      "mixToMono" : false
                    },
                    "parameters" : {
                      "scale0" : 1.2,
                      "scale1" : 1.2,
                      "sourceCrop0" : 0.0,
                      "sourceCrop1" : 0.0,
                      "sourceCrop2" : 0.0,
                      "sourceCrop3" : 0.0,
                      "geometryCrop0" : 0.0,
                      "geometryCrop1" : 0.0,
                      "geometryCrop2" : 0.0,
                      "geometryCrop3" : 0.0,
                      "cursorOpacity" : 1.0,
                      "cursorScale" : 1.0
                    },
                    "medias" : [
                        {
                          "id" : 18,
                          "_type" : "ScreenVMFile",
                          "src" : 8,
                          "trackNumber" : 0,
                          "attributes" : {
                            "ident" : "Rec 02-08-22_001"
                          },
                          "parameters" : {
                            "sourceCrop0" : {
                              "type" : "double",
                              "defaultValue" : 0.0,
                              "interp" : "eioe"
                            },
                            "sourceCrop1" : {
                              "type" : "double",
                              "defaultValue" : 0.0,
                              "interp" : "eioe"
                            },
                            "sourceCrop2" : {
                              "type" : "double",
                              "defaultValue" : 0.0,
                              "interp" : "eioe"
                            },
                            "sourceCrop3" : {
                              "type" : "double",
                              "defaultValue" : 0.0,
                              "interp" : "eioe"
                            },
                            "geometryCrop0" : {
                              "type" : "double",
                              "defaultValue" : 0.0,
                              "interp" : "eioe"
                            },
                            "geometryCrop1" : {
                              "type" : "double",
                              "defaultValue" : 0.0,
                              "interp" : "eioe"
                            },
                            "geometryCrop2" : {
                              "type" : "double",
                              "defaultValue" : 0.0,
                              "interp" : "eioe"
                            },
                            "geometryCrop3" : {
                              "type" : "double",
                              "defaultValue" : 0.0,
                              "interp" : "eioe"
                            },
                            "cursorScale" : {
                              "type" : "double",
                              "defaultValue" : 0.0,
                              "interp" : "linr"
                            },
                            "cursorOpacity" : {
                              "type" : "double",
                              "defaultValue" : 0.0,
                              "interp" : "linr"
                            }
                          },
                          "effects" : [

                          ],
                          "start" : 0,
                          "duration" : 724,
                          "mediaStart" : 0,
                          "mediaDuration" : 724,
                          "scalar" : 1,
                          "metadata" : {
                            "AutoAppliedSmartFocus" : "False"
                          },
                          "animationTracks" : {

                          }
                        },
                        {
                          "id" : 19,
                          "_type" : "ScreenVMFile",
                          "src" : 8,
                          "trackNumber" : 0,
                          "attributes" : {
                            "ident" : "Rec 02-08-22_001"
                          },
                          "parameters" : {
                            "sourceCrop0" : {
                              "type" : "double",
                              "defaultValue" : 0.0,
                              "interp" : "eioe"
                            },
                            "sourceCrop1" : {
                              "type" : "double",
                              "defaultValue" : 0.0,
                              "interp" : "eioe"
                            },
                            "sourceCrop2" : {
                              "type" : "double",
                              "defaultValue" : 0.0,
                              "interp" : "eioe"
                            },
                            "sourceCrop3" : {
                              "type" : "double",
                              "defaultValue" : 0.0,
                              "interp" : "eioe"
                            },
                            "geometryCrop0" : {
                              "type" : "double",
                              "defaultValue" : 0.0,
                              "interp" : "eioe"
                            },
                            "geometryCrop1" : {
                              "type" : "double",
                              "defaultValue" : 0.0,
                              "interp" : "eioe"
                            },
                            "geometryCrop2" : {
                              "type" : "double",
                              "defaultValue" : 0.0,
                              "interp" : "eioe"
                            },
                            "geometryCrop3" : {
                              "type" : "double",
                              "defaultValue" : 0.0,
                              "interp" : "eioe"
                            },
                            "cursorScale" : {
                              "type" : "double",
                              "defaultValue" : 0.0,
                              "interp" : "linr"
                            },
                            "cursorOpacity" : {
                              "type" : "double",
                              "defaultValue" : 0.0,
                              "interp" : "linr"
                            }
                          },
                          "effects" : [

                          ],
                          "start" : 724,
                          "duration" : 81,
                          "mediaStart" : 732,
                          "mediaDuration" : 81,
                          "scalar" : 1,
                          "metadata" : {
                            "AutoAppliedSmartFocus" : "False"
                          },
                          "animationTracks" : {

                          }
                        },
                        {
                          "id" : 20,
                          "_type" : "ScreenVMFile",
                          "src" : 8,
                          "trackNumber" : 0,
                          "attributes" : {
                            "ident" : "Rec 02-08-22_001"
                          },
                          "parameters" : {
                            "sourceCrop0" : {
                              "type" : "double",
                              "defaultValue" : 0.0,
                              "interp" : "eioe"
                            },
                            "sourceCrop1" : {
                              "type" : "double",
                              "defaultValue" : 0.0,
                              "interp" : "eioe"
                            },
                            "sourceCrop2" : {
                              "type" : "double",
                              "defaultValue" : 0.0,
                              "interp" : "eioe"
                            },
                            "sourceCrop3" : {
                              "type" : "double",
                              "defaultValue" : 0.0,
                              "interp" : "eioe"
                            },
                            "geometryCrop0" : {
                              "type" : "double",
                              "defaultValue" : 0.0,
                              "interp" : "eioe"
                            },
                            "geometryCrop1" : {
                              "type" : "double",
                              "defaultValue" : 0.0,
                              "interp" : "eioe"
                            },
                            "geometryCrop2" : {
                              "type" : "double",
                              "defaultValue" : 0.0,
                              "interp" : "eioe"
                            },
                            "geometryCrop3" : {
                              "type" : "double",
                              "defaultValue" : 0.0,
                              "interp" : "eioe"
                            },
                            "cursorScale" : {
                              "type" : "double",
                              "defaultValue" : 0.0,
                              "interp" : "linr"
                            },
                            "cursorOpacity" : {
                              "type" : "double",
                              "defaultValue" : 0.0,
                              "interp" : "linr"
                            }
                          },
                          "effects" : [

                          ],
                          "start" : 805,
                          "duration" : 9,
                          "mediaStart" : 830,
                          "mediaDuration" : 9,
                          "scalar" : 1,
                          "metadata" : {
                            "AutoAppliedSmartFocus" : "False"
                          },
                          "animationTracks" : {

                          }
                        },
                        {
                          "id" : 21,
                          "_type" : "ScreenVMFile",
                          "src" : 8,
                          "trackNumber" : 0,
                          "attributes" : {
                            "ident" : "Rec 02-08-22_001"
                          },
                          "parameters" : {
                            "sourceCrop0" : {
                              "type" : "double",
                              "defaultValue" : 0.0,
                              "interp" : "eioe"
                            },
                            "sourceCrop1" : {
                              "type" : "double",
                              "defaultValue" : 0.0,
                              "interp" : "eioe"
                            },
                            "sourceCrop2" : {
                              "type" : "double",
                              "defaultValue" : 0.0,
                              "interp" : "eioe"
                            },
                            "sourceCrop3" : {
                              "type" : "double",
                              "defaultValue" : 0.0,
                              "interp" : "eioe"
                            },
                            "geometryCrop0" : {
                              "type" : "double",
                              "defaultValue" : 0.0,
                              "interp" : "eioe"
                            },
                            "geometryCrop1" : {
                              "type" : "double",
                              "defaultValue" : 0.0,
                              "interp" : "eioe"
                            },
                            "geometryCrop2" : {
                              "type" : "double",
                              "defaultValue" : 0.0,
                              "interp" : "eioe"
                            },
                            "geometryCrop3" : {
                              "type" : "double",
                              "defaultValue" : 0.0,
                              "interp" : "eioe"
                            },
                            "cursorScale" : {
                              "type" : "double",
                              "defaultValue" : 0.0,
                              "interp" : "linr"
                            },
                            "cursorOpacity" : {
                              "type" : "double",
                              "defaultValue" : 0.0,
                              "interp" : "linr"
                            }
                          },
                          "effects" : [

                          ],
                          "start" : 814,
                          "duration" : 194,
                          "mediaStart" : 855,
                          "mediaDuration" : 194,
                          "scalar" : 1,
                          "metadata" : {
                            "AutoAppliedSmartFocus" : "False"
                          },
                          "animationTracks" : {

                          }
                        },
                        {
                          "id" : 22,
                          "_type" : "ScreenVMFile",
                          "src" : 8,
                          "trackNumber" : 0,
                          "attributes" : {
                            "ident" : "Rec 02-08-22_001"
                          },
                          "parameters" : {
                            "sourceCrop0" : {
                              "type" : "double",
                              "defaultValue" : 0.0,
                              "interp" : "eioe"
                            },
                            "sourceCrop1" : {
                              "type" : "double",
                              "defaultValue" : 0.0,
                              "interp" : "eioe"
                            },
                            "sourceCrop2" : {
                              "type" : "double",
                              "defaultValue" : 0.0,
                              "interp" : "eioe"
                            },
                            "sourceCrop3" : {
                              "type" : "double",
                              "defaultValue" : 0.0,
                              "interp" : "eioe"
                            },
                            "geometryCrop0" : {
                              "type" : "double",
                              "defaultValue" : 0.0,
                              "interp" : "eioe"
                            },
                            "geometryCrop1" : {
                              "type" : "double",
                              "defaultValue" : 0.0,
                              "interp" : "eioe"
                            },
                            "geometryCrop2" : {
                              "type" : "double",
                              "defaultValue" : 0.0,
                              "interp" : "eioe"
                            },
                            "geometryCrop3" : {
                              "type" : "double",
                              "defaultValue" : 0.0,
                              "interp" : "eioe"
                            },
                            "cursorScale" : {
                              "type" : "double",
                              "defaultValue" : 0.0,
                              "interp" : "linr"
                            },
                            "cursorOpacity" : {
                              "type" : "double",
                              "defaultValue" : 0.0,
                              "interp" : "linr"
                            }
                          },
                          "effects" : [

                          ],
                          "start" : 1008,
                          "duration" : 106,
                          "mediaStart" : 1084,
                          "mediaDuration" : 106,
                          "scalar" : 1,
                          "metadata" : {
                            "AutoAppliedSmartFocus" : "False"
                          },
                          "animationTracks" : {

                          }
                        },
                        {
                          "id" : 23,
                          "_type" : "ScreenVMFile",
                          "src" : 8,
                          "trackNumber" : 0,
                          "attributes" : {
                            "ident" : "Rec 02-08-22_001"
                          },
                          "parameters" : {
                            "sourceCrop0" : {
                              "type" : "double",
                              "defaultValue" : 0.0,
                              "interp" : "eioe"
                            },
                            "sourceCrop1" : {
                              "type" : "double",
                              "defaultValue" : 0.0,
                              "interp" : "eioe"
                            },
                            "sourceCrop2" : {
                              "type" : "double",
                              "defaultValue" : 0.0,
                              "interp" : "eioe"
                            },
                            "sourceCrop3" : {
                              "type" : "double",
                              "defaultValue" : 0.0,
                              "interp" : "eioe"
                            },
                            "geometryCrop0" : {
                              "type" : "double",
                              "defaultValue" : 0.0,
                              "interp" : "eioe"
                            },
                            "geometryCrop1" : {
                              "type" : "double",
                              "defaultValue" : 0.0,
                              "interp" : "eioe"
                            },
                            "geometryCrop2" : {
                              "type" : "double",
                              "defaultValue" : 0.0,
                              "interp" : "eioe"
                            },
                            "geometryCrop3" : {
                              "type" : "double",
                              "defaultValue" : 0.0,
                              "interp" : "eioe"
                            },
                            "cursorScale" : {
                              "type" : "double",
                              "defaultValue" : 0.0,
                              "interp" : "linr"
                            },
                            "cursorOpacity" : {
                              "type" : "double",
                              "defaultValue" : 0.0,
                              "interp" : "linr"
                            }
                          },
                          "effects" : [

                          ],
                          "start" : 1114,
                          "duration" : 86,
                          "mediaStart" : 1216,
                          "mediaDuration" : 86,
                          "scalar" : 1,
                          "metadata" : {
                            "AutoAppliedSmartFocus" : "False"
                          },
                          "animationTracks" : {

                          }
                        },
                        {
                          "id" : 24,
                          "_type" : "ScreenVMFile",
                          "src" : 8,
                          "trackNumber" : 0,
                          "attributes" : {
                            "ident" : "Rec 02-08-22_001"
                          },
                          "parameters" : {
                            "sourceCrop0" : {
                              "type" : "double",
                              "defaultValue" : 0.0,
                              "interp" : "eioe"
                            },
                            "sourceCrop1" : {
                              "type" : "double",
                              "defaultValue" : 0.0,
                              "interp" : "eioe"
                            },
                            "sourceCrop2" : {
                              "type" : "double",
                              "defaultValue" : 0.0,
                              "interp" : "eioe"
                            },
                            "sourceCrop3" : {
                              "type" : "double",
                              "defaultValue" : 0.0,
                              "interp" : "eioe"
                            },
                            "geometryCrop0" : {
                              "type" : "double",
                              "defaultValue" : 0.0,
                              "interp" : "eioe"
                            },
                            "geometryCrop1" : {
                              "type" : "double",
                              "defaultValue" : 0.0,
                              "interp" : "eioe"
                            },
                            "geometryCrop2" : {
                              "type" : "double",
                              "defaultValue" : 0.0,
                              "interp" : "eioe"
                            },
                            "geometryCrop3" : {
                              "type" : "double",
                              "defaultValue" : 0.0,
                              "interp" : "eioe"
                            },
                            "cursorScale" : {
                              "type" : "double",
                              "defaultValue" : 0.0,
                              "interp" : "linr"
                            },
                            "cursorOpacity" : {
                              "type" : "double",
                              "defaultValue" : 0.0,
                              "interp" : "linr"
                            }
                          },
                          "effects" : [

                          ],
                          "start" : 1200,
                          "duration" : 100,
                          "mediaStart" : 1330,
                          "mediaDuration" : 100,
                          "scalar" : 1,
                          "metadata" : {
                            "AutoAppliedSmartFocus" : "False"
                          },
                          "animationTracks" : {

                          }
                        },
                        {
                          "id" : 25,
                          "_type" : "ScreenVMFile",
                          "src" : 8,
                          "trackNumber" : 0,
                          "attributes" : {
                            "ident" : "Rec 02-08-22_001"
                          },
                          "parameters" : {
                            "sourceCrop0" : {
                              "type" : "double",
                              "defaultValue" : 0.0,
                              "interp" : "eioe"
                            },
                            "sourceCrop1" : {
                              "type" : "double",
                              "defaultValue" : 0.0,
                              "interp" : "eioe"
                            },
                            "sourceCrop2" : {
                              "type" : "double",
                              "defaultValue" : 0.0,
                              "interp" : "eioe"
                            },
                            "sourceCrop3" : {
                              "type" : "double",
                              "defaultValue" : 0.0,
                              "interp" : "eioe"
                            },
                            "geometryCrop0" : {
                              "type" : "double",
                              "defaultValue" : 0.0,
                              "interp" : "eioe"
                            },
                            "geometryCrop1" : {
                              "type" : "double",
                              "defaultValue" : 0.0,
                              "interp" : "eioe"
                            },
                            "geometryCrop2" : {
                              "type" : "double",
                              "defaultValue" : 0.0,
                              "interp" : "eioe"
                            },
                            "geometryCrop3" : {
                              "type" : "double",
                              "defaultValue" : 0.0,
                              "interp" : "eioe"
                            },
                            "cursorScale" : {
                              "type" : "double",
                              "defaultValue" : 0.0,
                              "interp" : "linr"
                            },
                            "cursorOpacity" : {
                              "type" : "double",
                              "defaultValue" : 0.0,
                              "interp" : "linr"
                            }
                          },
                          "effects" : [

                          ],
                          "start" : 1300,
                          "duration" : 94,
                          "mediaStart" : 1502,
                          "mediaDuration" : 94,
                          "scalar" : 1,
                          "metadata" : {
                            "AutoAppliedSmartFocus" : "False"
                          },
                          "animationTracks" : {

                          }
                        },
                        {
                          "id" : 26,
                          "_type" : "ScreenVMFile",
                          "src" : 8,
                          "trackNumber" : 0,
                          "attributes" : {
                            "ident" : "Rec 02-08-22_001"
                          },
                          "parameters" : {
                            "sourceCrop0" : {
                              "type" : "double",
                              "defaultValue" : 0.0,
                              "interp" : "eioe"
                            },
                            "sourceCrop1" : {
                              "type" : "double",
                              "defaultValue" : 0.0,
                              "interp" : "eioe"
                            },
                            "sourceCrop2" : {
                              "type" : "double",
                              "defaultValue" : 0.0,
                              "interp" : "eioe"
                            },
                            "sourceCrop3" : {
                              "type" : "double",
                              "defaultValue" : 0.0,
                              "interp" : "eioe"
                            },
                            "geometryCrop0" : {
                              "type" : "double",
                              "defaultValue" : 0.0,
                              "interp" : "eioe"
                            },
                            "geometryCrop1" : {
                              "type" : "double",
                              "defaultValue" : 0.0,
                              "interp" : "eioe"
                            },
                            "geometryCrop2" : {
                              "type" : "double",
                              "defaultValue" : 0.0,
                              "interp" : "eioe"
                            },
                            "geometryCrop3" : {
                              "type" : "double",
                              "defaultValue" : 0.0,
                              "interp" : "eioe"
                            },
                            "cursorScale" : {
                              "type" : "double",
                              "defaultValue" : 0.0,
                              "interp" : "linr"
                            },
                            "cursorOpacity" : {
                              "type" : "double",
                              "defaultValue" : 0.0,
                              "interp" : "linr"
                            }
                          },
                          "effects" : [

                          ],
                          "start" : 1394,
                          "duration" : 106,
                          "mediaStart" : 1838,
                          "mediaDuration" : 106,
                          "scalar" : 1,
                          "metadata" : {
                            "AutoAppliedSmartFocus" : "False"
                          },
                          "animationTracks" : {

                          }
                        },
                        {
                          "id" : 27,
                          "_type" : "ScreenVMFile",
                          "src" : 8,
                          "trackNumber" : 0,
                          "attributes" : {
                            "ident" : "Rec 02-08-22_001"
                          },
                          "parameters" : {
                            "sourceCrop0" : {
                              "type" : "double",
                              "defaultValue" : 0.0,
                              "interp" : "eioe"
                            },
                            "sourceCrop1" : {
                              "type" : "double",
                              "defaultValue" : 0.0,
                              "interp" : "eioe"
                            },
                            "sourceCrop2" : {
                              "type" : "double",
                              "defaultValue" : 0.0,
                              "interp" : "eioe"
                            },
                            "sourceCrop3" : {
                              "type" : "double",
                              "defaultValue" : 0.0,
                              "interp" : "eioe"
                            },
                            "geometryCrop0" : {
                              "type" : "double",
                              "defaultValue" : 0.0,
                              "interp" : "eioe"
                            },
                            "geometryCrop1" : {
                              "type" : "double",
                              "defaultValue" : 0.0,
                              "interp" : "eioe"
                            },
                            "geometryCrop2" : {
                              "type" : "double",
                              "defaultValue" : 0.0,
                              "interp" : "eioe"
                            },
                            "geometryCrop3" : {
                              "type" : "double",
                              "defaultValue" : 0.0,
                              "interp" : "eioe"
                            },
                            "cursorScale" : {
                              "type" : "double",
                              "defaultValue" : 0.0,
                              "interp" : "linr"
                            },
                            "cursorOpacity" : {
                              "type" : "double",
                              "defaultValue" : 0.0,
                              "interp" : "linr"
                            }
                          },
                          "effects" : [

                          ],
                          "start" : 1500,
                          "duration" : 95,
                          "mediaStart" : 2013,
                          "mediaDuration" : 95,
                          "scalar" : 1,
                          "metadata" : {
                            "AutoAppliedSmartFocus" : "False"
                          },
                          "animationTracks" : {

                          }
                        },
                        {
                          "id" : 28,
                          "_type" : "ScreenVMFile",
                          "src" : 8,
                          "trackNumber" : 0,
                          "attributes" : {
                            "ident" : "Rec 02-08-22_001"
                          },
                          "parameters" : {
                            "sourceCrop0" : {
                              "type" : "double",
                              "defaultValue" : 0.0,
                              "interp" : "eioe"
                            },
                            "sourceCrop1" : {
                              "type" : "double",
                              "defaultValue" : 0.0,
                              "interp" : "eioe"
                            },
                            "sourceCrop2" : {
                              "type" : "double",
                              "defaultValue" : 0.0,
                              "interp" : "eioe"
                            },
                            "sourceCrop3" : {
                              "type" : "double",
                              "defaultValue" : 0.0,
                              "interp" : "eioe"
                            },
                            "geometryCrop0" : {
                              "type" : "double",
                              "defaultValue" : 0.0,
                              "interp" : "eioe"
                            },
                            "geometryCrop1" : {
                              "type" : "double",
                              "defaultValue" : 0.0,
                              "interp" : "eioe"
                            },
                            "geometryCrop2" : {
                              "type" : "double",
                              "defaultValue" : 0.0,
                              "interp" : "eioe"
                            },
                            "geometryCrop3" : {
                              "type" : "double",
                              "defaultValue" : 0.0,
                              "interp" : "eioe"
                            },
                            "cursorScale" : {
                              "type" : "double",
                              "defaultValue" : 0.0,
                              "interp" : "linr"
                            },
                            "cursorOpacity" : {
                              "type" : "double",
                              "defaultValue" : 0.0,
                              "interp" : "linr"
                            }
                          },
                          "effects" : [

                          ],
                          "start" : 1595,
                          "duration" : 90,
                          "mediaStart" : 2131,
                          "mediaDuration" : 90,
                          "scalar" : 1,
                          "metadata" : {
                            "AutoAppliedSmartFocus" : "False"
                          },
                          "animationTracks" : {

                          }
                        },
                        {
                          "id" : 29,
                          "_type" : "ScreenVMFile",
                          "src" : 8,
                          "trackNumber" : 0,
                          "attributes" : {
                            "ident" : "Rec 02-08-22_001"
                          },
                          "parameters" : {
                            "sourceCrop0" : {
                              "type" : "double",
                              "defaultValue" : 0.0,
                              "interp" : "eioe"
                            },
                            "sourceCrop1" : {
                              "type" : "double",
                              "defaultValue" : 0.0,
                              "interp" : "eioe"
                            },
                            "sourceCrop2" : {
                              "type" : "double",
                              "defaultValue" : 0.0,
                              "interp" : "eioe"
                            },
                            "sourceCrop3" : {
                              "type" : "double",
                              "defaultValue" : 0.0,
                              "interp" : "eioe"
                            },
                            "geometryCrop0" : {
                              "type" : "double",
                              "defaultValue" : 0.0,
                              "interp" : "eioe"
                            },
                            "geometryCrop1" : {
                              "type" : "double",
                              "defaultValue" : 0.0,
                              "interp" : "eioe"
                            },
                            "geometryCrop2" : {
                              "type" : "double",
                              "defaultValue" : 0.0,
                              "interp" : "eioe"
                            },
                            "geometryCrop3" : {
                              "type" : "double",
                              "defaultValue" : 0.0,
                              "interp" : "eioe"
                            },
                            "cursorScale" : {
                              "type" : "double",
                              "defaultValue" : 0.0,
                              "interp" : "linr"
                            },
                            "cursorOpacity" : {
                              "type" : "double",
                              "defaultValue" : 0.0,
                              "interp" : "linr"
                            }
                          },
                          "effects" : [

                          ],
                          "start" : 1685,
                          "duration" : 76,
                          "mediaStart" : 2255,
                          "mediaDuration" : 76,
                          "scalar" : 1,
                          "metadata" : {
                            "AutoAppliedSmartFocus" : "False"
                          },
                          "animationTracks" : {

                          }
                        },
                        {
                          "id" : 30,
                          "_type" : "ScreenVMFile",
                          "src" : 8,
                          "trackNumber" : 0,
                          "attributes" : {
                            "ident" : "Rec 02-08-22_001"
                          },
                          "parameters" : {
                            "sourceCrop0" : {
                              "type" : "double",
                              "defaultValue" : 0.0,
                              "interp" : "eioe"
                            },
                            "sourceCrop1" : {
                              "type" : "double",
                              "defaultValue" : 0.0,
                              "interp" : "eioe"
                            },
                            "sourceCrop2" : {
                              "type" : "double",
                              "defaultValue" : 0.0,
                              "interp" : "eioe"
                            },
                            "sourceCrop3" : {
                              "type" : "double",
                              "defaultValue" : 0.0,
                              "interp" : "eioe"
                            },
                            "geometryCrop0" : {
                              "type" : "double",
                              "defaultValue" : 0.0,
                              "interp" : "eioe"
                            },
                            "geometryCrop1" : {
                              "type" : "double",
                              "defaultValue" : 0.0,
                              "interp" : "eioe"
                            },
                            "geometryCrop2" : {
                              "type" : "double",
                              "defaultValue" : 0.0,
                              "interp" : "eioe"
                            },
                            "geometryCrop3" : {
                              "type" : "double",
                              "defaultValue" : 0.0,
                              "interp" : "eioe"
                            },
                            "cursorScale" : {
                              "type" : "double",
                              "defaultValue" : 0.0,
                              "interp" : "linr"
                            },
                            "cursorOpacity" : {
                              "type" : "double",
                              "defaultValue" : 0.0,
                              "interp" : "linr"
                            }
                          },
                          "effects" : [

                          ],
                          "start" : 1761,
                          "duration" : 314,
                          "mediaStart" : 2347,
                          "mediaDuration" : 314,
                          "scalar" : 1,
                          "metadata" : {
                            "AutoAppliedSmartFocus" : "False"
                          },
                          "animationTracks" : {

                          }
                        }
                    ],
                    "effects" : [

                    ],
                    "start" : 780,
                    "duration" : 1241,
                    "mediaStart" : 613,
                    "mediaDuration" : 1241,
                    "scalar" : 1,
                    "metadata" : {
                      "AutoAppliedSmartFocus" : "False",
                      "clipSpeedAttribute" : false
                    },
                    "animationTracks" : {

                    }
                  },
                  {
                    "id" : 31,
                    "_type" : "StitchedMedia",
                    "minMediaStart" : 0,
                    "attributes" : {
                      "ident" : "Rec 02-08-22_002",
                      "gain" : 1.0,
                      "mixToMono" : false
                    },
                    "parameters" : {
                      "scale0" : 1.2,
                      "scale1" : 1.2,
                      "sourceCrop0" : 0.0,
                      "sourceCrop1" : 0.0,
                      "sourceCrop2" : 0.0,
                      "sourceCrop3" : 0.0,
                      "geometryCrop0" : 0.0,
                      "geometryCrop1" : 0.0,
                      "geometryCrop2" : 0.0,
                      "geometryCrop3" : 0.0,
                      "cursorOpacity" : 1.0,
                      "cursorScale" : 1.0
                    },
                    "medias" : [
                        {
                          "id" : 32,
                          "_type" : "ScreenVMFile",
                          "src" : 9,
                          "trackNumber" : 0,
                          "attributes" : {
                            "ident" : "Rec 02-08-22_002"
                          },
                          "parameters" : {
                            "sourceCrop0" : {
                              "type" : "double",
                              "defaultValue" : 0.0,
                              "interp" : "eioe"
                            },
                            "sourceCrop1" : {
                              "type" : "double",
                              "defaultValue" : 0.0,
                              "interp" : "eioe"
                            },
                            "sourceCrop2" : {
                              "type" : "double",
                              "defaultValue" : 0.0,
                              "interp" : "eioe"
                            },
                            "sourceCrop3" : {
                              "type" : "double",
                              "defaultValue" : 0.0,
                              "interp" : "eioe"
                            },
                            "geometryCrop0" : {
                              "type" : "double",
                              "defaultValue" : 0.0,
                              "interp" : "eioe"
                            },
                            "geometryCrop1" : {
                              "type" : "double",
                              "defaultValue" : 0.0,
                              "interp" : "eioe"
                            },
                            "geometryCrop2" : {
                              "type" : "double",
                              "defaultValue" : 0.0,
                              "interp" : "eioe"
                            },
                            "geometryCrop3" : {
                              "type" : "double",
                              "defaultValue" : 0.0,
                              "interp" : "eioe"
                            },
                            "cursorScale" : {
                              "type" : "double",
                              "defaultValue" : 0.0,
                              "interp" : "linr"
                            },
                            "cursorOpacity" : {
                              "type" : "double",
                              "defaultValue" : 0.0,
                              "interp" : "linr"
                            }
                          },
                          "effects" : [

                          ],
                          "start" : 0,
                          "duration" : 143,
                          "mediaStart" : 0,
                          "mediaDuration" : 143,
                          "scalar" : 1,
                          "metadata" : {
                            "AutoAppliedSmartFocus" : "False"
                          },
                          "animationTracks" : {

                          }
                        },
                        {
                          "id" : 33,
                          "_type" : "ScreenVMFile",
                          "src" : 9,
                          "trackNumber" : 0,
                          "attributes" : {
                            "ident" : "Rec 02-08-22_002"
                          },
                          "parameters" : {
                            "sourceCrop0" : {
                              "type" : "double",
                              "defaultValue" : 0.0,
                              "interp" : "eioe"
                            },
                            "sourceCrop1" : {
                              "type" : "double",
                              "defaultValue" : 0.0,
                              "interp" : "eioe"
                            },
                            "sourceCrop2" : {
                              "type" : "double",
                              "defaultValue" : 0.0,
                              "interp" : "eioe"
                            },
                            "sourceCrop3" : {
                              "type" : "double",
                              "defaultValue" : 0.0,
                              "interp" : "eioe"
                            },
                            "geometryCrop0" : {
                              "type" : "double",
                              "defaultValue" : 0.0,
                              "interp" : "eioe"
                            },
                            "geometryCrop1" : {
                              "type" : "double",
                              "defaultValue" : 0.0,
                              "interp" : "eioe"
                            },
                            "geometryCrop2" : {
                              "type" : "double",
                              "defaultValue" : 0.0,
                              "interp" : "eioe"
                            },
                            "geometryCrop3" : {
                              "type" : "double",
                              "defaultValue" : 0.0,
                              "interp" : "eioe"
                            },
                            "cursorScale" : {
                              "type" : "double",
                              "defaultValue" : 0.0,
                              "interp" : "linr"
                            },
                            "cursorOpacity" : {
                              "type" : "double",
                              "defaultValue" : 0.0,
                              "interp" : "linr"
                            }
                          },
                          "effects" : [

                          ],
                          "start" : 143,
                          "duration" : 396,
                          "mediaStart" : 211,
                          "mediaDuration" : 396,
                          "scalar" : 1,
                          "metadata" : {
                            "AutoAppliedSmartFocus" : "False"
                          },
                          "animationTracks" : {

                          }
                        },
                        {
                          "id" : 34,
                          "_type" : "ScreenVMFile",
                          "src" : 9,
                          "trackNumber" : 0,
                          "attributes" : {
                            "ident" : "Rec 02-08-22_002"
                          },
                          "parameters" : {
                            "sourceCrop0" : {
                              "type" : "double",
                              "defaultValue" : 0.0,
                              "interp" : "eioe"
                            },
                            "sourceCrop1" : {
                              "type" : "double",
                              "defaultValue" : 0.0,
                              "interp" : "eioe"
                            },
                            "sourceCrop2" : {
                              "type" : "double",
                              "defaultValue" : 0.0,
                              "interp" : "eioe"
                            },
                            "sourceCrop3" : {
                              "type" : "double",
                              "defaultValue" : 0.0,
                              "interp" : "eioe"
                            },
                            "geometryCrop0" : {
                              "type" : "double",
                              "defaultValue" : 0.0,
                              "interp" : "eioe"
                            },
                            "geometryCrop1" : {
                              "type" : "double",
                              "defaultValue" : 0.0,
                              "interp" : "eioe"
                            },
                            "geometryCrop2" : {
                              "type" : "double",
                              "defaultValue" : 0.0,
                              "interp" : "eioe"
                            },
                            "geometryCrop3" : {
                              "type" : "double",
                              "defaultValue" : 0.0,
                              "interp" : "eioe"
                            },
                            "cursorScale" : {
                              "type" : "double",
                              "defaultValue" : 0.0,
                              "interp" : "linr"
                            },
                            "cursorOpacity" : {
                              "type" : "double",
                              "defaultValue" : 0.0,
                              "interp" : "linr"
                            }
                          },
                          "effects" : [

                          ],
                          "start" : 539,
                          "duration" : 412,
                          "mediaStart" : 752,
                          "mediaDuration" : 412,
                          "scalar" : 1,
                          "metadata" : {
                            "AutoAppliedSmartFocus" : "False"
                          },
                          "animationTracks" : {

                          }
                        },
                        {
                          "id" : 35,
                          "_type" : "ScreenVMFile",
                          "src" : 9,
                          "trackNumber" : 0,
                          "attributes" : {
                            "ident" : "Rec 02-08-22_002"
                          },
                          "parameters" : {
                            "sourceCrop0" : {
                              "type" : "double",
                              "defaultValue" : 0.0,
                              "interp" : "eioe"
                            },
                            "sourceCrop1" : {
                              "type" : "double",
                              "defaultValue" : 0.0,
                              "interp" : "eioe"
                            },
                            "sourceCrop2" : {
                              "type" : "double",
                              "defaultValue" : 0.0,
                              "interp" : "eioe"
                            },
                            "sourceCrop3" : {
                              "type" : "double",
                              "defaultValue" : 0.0,
                              "interp" : "eioe"
                            },
                            "geometryCrop0" : {
                              "type" : "double",
                              "defaultValue" : 0.0,
                              "interp" : "eioe"
                            },
                            "geometryCrop1" : {
                              "type" : "double",
                              "defaultValue" : 0.0,
                              "interp" : "eioe"
                            },
                            "geometryCrop2" : {
                              "type" : "double",
                              "defaultValue" : 0.0,
                              "interp" : "eioe"
                            },
                            "geometryCrop3" : {
                              "type" : "double",
                              "defaultValue" : 0.0,
                              "interp" : "eioe"
                            },
                            "cursorScale" : {
                              "type" : "double",
                              "defaultValue" : 0.0,
                              "interp" : "linr"
                            },
                            "cursorOpacity" : {
                              "type" : "double",
                              "defaultValue" : 0.0,
                              "interp" : "linr"
                            }
                          },
                          "effects" : [

                          ],
                          "start" : 951,
                          "duration" : 136,
                          "mediaStart" : 1204,
                          "mediaDuration" : 136,
                          "scalar" : 1,
                          "metadata" : {
                            "AutoAppliedSmartFocus" : "False"
                          },
                          "animationTracks" : {

                          }
                        },
                        {
                          "id" : 36,
                          "_type" : "ScreenVMFile",
                          "src" : 9,
                          "trackNumber" : 0,
                          "attributes" : {
                            "ident" : "Rec 02-08-22_002"
                          },
                          "parameters" : {
                            "sourceCrop0" : {
                              "type" : "double",
                              "defaultValue" : 0.0,
                              "interp" : "eioe"
                            },
                            "sourceCrop1" : {
                              "type" : "double",
                              "defaultValue" : 0.0,
                              "interp" : "eioe"
                            },
                            "sourceCrop2" : {
                              "type" : "double",
                              "defaultValue" : 0.0,
                              "interp" : "eioe"
                            },
                            "sourceCrop3" : {
                              "type" : "double",
                              "defaultValue" : 0.0,
                              "interp" : "eioe"
                            },
                            "geometryCrop0" : {
                              "type" : "double",
                              "defaultValue" : 0.0,
                              "interp" : "eioe"
                            },
                            "geometryCrop1" : {
                              "type" : "double",
                              "defaultValue" : 0.0,
                              "interp" : "eioe"
                            },
                            "geometryCrop2" : {
                              "type" : "double",
                              "defaultValue" : 0.0,
                              "interp" : "eioe"
                            },
                            "geometryCrop3" : {
                              "type" : "double",
                              "defaultValue" : 0.0,
                              "interp" : "eioe"
                            },
                            "cursorScale" : {
                              "type" : "double",
                              "defaultValue" : 0.0,
                              "interp" : "linr"
                            },
                            "cursorOpacity" : {
                              "type" : "double",
                              "defaultValue" : 0.0,
                              "interp" : "linr"
                            }
                          },
                          "effects" : [

                          ],
                          "start" : 1087,
                          "duration" : 148,
                          "mediaStart" : 1419,
                          "mediaDuration" : 148,
                          "scalar" : 1,
                          "metadata" : {
                            "AutoAppliedSmartFocus" : "False"
                          },
                          "animationTracks" : {

                          }
                        },
                        {
                          "id" : 37,
                          "_type" : "ScreenVMFile",
                          "src" : 9,
                          "trackNumber" : 0,
                          "attributes" : {
                            "ident" : "Rec 02-08-22_002"
                          },
                          "parameters" : {
                            "sourceCrop0" : {
                              "type" : "double",
                              "defaultValue" : 0.0,
                              "interp" : "eioe"
                            },
                            "sourceCrop1" : {
                              "type" : "double",
                              "defaultValue" : 0.0,
                              "interp" : "eioe"
                            },
                            "sourceCrop2" : {
                              "type" : "double",
                              "defaultValue" : 0.0,
                              "interp" : "eioe"
                            },
                            "sourceCrop3" : {
                              "type" : "double",
                              "defaultValue" : 0.0,
                              "interp" : "eioe"
                            },
                            "geometryCrop0" : {
                              "type" : "double",
                              "defaultValue" : 0.0,
                              "interp" : "eioe"
                            },
                            "geometryCrop1" : {
                              "type" : "double",
                              "defaultValue" : 0.0,
                              "interp" : "eioe"
                            },
                            "geometryCrop2" : {
                              "type" : "double",
                              "defaultValue" : 0.0,
                              "interp" : "eioe"
                            },
                            "geometryCrop3" : {
                              "type" : "double",
                              "defaultValue" : 0.0,
                              "interp" : "eioe"
                            },
                            "cursorScale" : {
                              "type" : "double",
                              "defaultValue" : 0.0,
                              "interp" : "linr"
                            },
                            "cursorOpacity" : {
                              "type" : "double",
                              "defaultValue" : 0.0,
                              "interp" : "linr"
                            }
                          },
                          "effects" : [

                          ],
                          "start" : 1235,
                          "duration" : 590,
                          "mediaStart" : 1594,
                          "mediaDuration" : 590,
                          "scalar" : 1,
                          "metadata" : {
                            "AutoAppliedSmartFocus" : "False"
                          },
                          "animationTracks" : {

                          }
                        },
                        {
                          "id" : 38,
                          "_type" : "ScreenVMFile",
                          "src" : 9,
                          "trackNumber" : 0,
                          "attributes" : {
                            "ident" : "Rec 02-08-22_002"
                          },
                          "parameters" : {
                            "sourceCrop0" : {
                              "type" : "double",
                              "defaultValue" : 0.0,
                              "interp" : "eioe"
                            },
                            "sourceCrop1" : {
                              "type" : "double",
                              "defaultValue" : 0.0,
                              "interp" : "eioe"
                            },
                            "sourceCrop2" : {
                              "type" : "double",
                              "defaultValue" : 0.0,
                              "interp" : "eioe"
                            },
                            "sourceCrop3" : {
                              "type" : "double",
                              "defaultValue" : 0.0,
                              "interp" : "eioe"
                            },
                            "geometryCrop0" : {
                              "type" : "double",
                              "defaultValue" : 0.0,
                              "interp" : "eioe"
                            },
                            "geometryCrop1" : {
                              "type" : "double",
                              "defaultValue" : 0.0,
                              "interp" : "eioe"
                            },
                            "geometryCrop2" : {
                              "type" : "double",
                              "defaultValue" : 0.0,
                              "interp" : "eioe"
                            },
                            "geometryCrop3" : {
                              "type" : "double",
                              "defaultValue" : 0.0,
                              "interp" : "eioe"
                            },
                            "cursorScale" : {
                              "type" : "double",
                              "defaultValue" : 0.0,
                              "interp" : "linr"
                            },
                            "cursorOpacity" : {
                              "type" : "double",
                              "defaultValue" : 0.0,
                              "interp" : "linr"
                            }
                          },
                          "effects" : [

                          ],
                          "start" : 1825,
                          "duration" : 155,
                          "mediaStart" : 2256,
                          "mediaDuration" : 155,
                          "scalar" : 1,
                          "metadata" : {
                            "AutoAppliedSmartFocus" : "False"
                          },
                          "animationTracks" : {

                          }
                        },
                        {
                          "id" : 39,
                          "_type" : "ScreenVMFile",
                          "src" : 9,
                          "trackNumber" : 0,
                          "attributes" : {
                            "ident" : "Rec 02-08-22_002"
                          },
                          "parameters" : {
                            "sourceCrop0" : {
                              "type" : "double",
                              "defaultValue" : 0.0,
                              "interp" : "eioe"
                            },
                            "sourceCrop1" : {
                              "type" : "double",
                              "defaultValue" : 0.0,
                              "interp" : "eioe"
                            },
                            "sourceCrop2" : {
                              "type" : "double",
                              "defaultValue" : 0.0,
                              "interp" : "eioe"
                            },
                            "sourceCrop3" : {
                              "type" : "double",
                              "defaultValue" : 0.0,
                              "interp" : "eioe"
                            },
                            "geometryCrop0" : {
                              "type" : "double",
                              "defaultValue" : 0.0,
                              "interp" : "eioe"
                            },
                            "geometryCrop1" : {
                              "type" : "double",
                              "defaultValue" : 0.0,
                              "interp" : "eioe"
                            },
                            "geometryCrop2" : {
                              "type" : "double",
                              "defaultValue" : 0.0,
                              "interp" : "eioe"
                            },
                            "geometryCrop3" : {
                              "type" : "double",
                              "defaultValue" : 0.0,
                              "interp" : "eioe"
                            },
                            "cursorScale" : {
                              "type" : "double",
                              "defaultValue" : 0.0,
                              "interp" : "linr"
                            },
                            "cursorOpacity" : {
                              "type" : "double",
                              "defaultValue" : 0.0,
                              "interp" : "linr"
                            }
                          },
                          "effects" : [

                          ],
                          "start" : 1980,
                          "duration" : 410,
                          "mediaStart" : 2589,
                          "mediaDuration" : 410,
                          "scalar" : 1,
                          "metadata" : {
                            "AutoAppliedSmartFocus" : "False"
                          },
                          "animationTracks" : {

                          }
                        },
                        {
                          "id" : 40,
                          "_type" : "ScreenVMFile",
                          "src" : 9,
                          "trackNumber" : 0,
                          "attributes" : {
                            "ident" : "Rec 02-08-22_002"
                          },
                          "parameters" : {
                            "sourceCrop0" : {
                              "type" : "double",
                              "defaultValue" : 0.0,
                              "interp" : "eioe"
                            },
                            "sourceCrop1" : {
                              "type" : "double",
                              "defaultValue" : 0.0,
                              "interp" : "eioe"
                            },
                            "sourceCrop2" : {
                              "type" : "double",
                              "defaultValue" : 0.0,
                              "interp" : "eioe"
                            },
                            "sourceCrop3" : {
                              "type" : "double",
                              "defaultValue" : 0.0,
                              "interp" : "eioe"
                            },
                            "geometryCrop0" : {
                              "type" : "double",
                              "defaultValue" : 0.0,
                              "interp" : "eioe"
                            },
                            "geometryCrop1" : {
                              "type" : "double",
                              "defaultValue" : 0.0,
                              "interp" : "eioe"
                            },
                            "geometryCrop2" : {
                              "type" : "double",
                              "defaultValue" : 0.0,
                              "interp" : "eioe"
                            },
                            "geometryCrop3" : {
                              "type" : "double",
                              "defaultValue" : 0.0,
                              "interp" : "eioe"
                            },
                            "cursorScale" : {
                              "type" : "double",
                              "defaultValue" : 0.0,
                              "interp" : "linr"
                            },
                            "cursorOpacity" : {
                              "type" : "double",
                              "defaultValue" : 0.0,
                              "interp" : "linr"
                            }
                          },
                          "effects" : [

                          ],
                          "start" : 2390,
                          "duration" : 135,
                          "mediaStart" : 3175,
                          "mediaDuration" : 135,
                          "scalar" : 1,
                          "metadata" : {
                            "AutoAppliedSmartFocus" : "False"
                          },
                          "animationTracks" : {

                          }
                        },
                        {
                          "id" : 41,
                          "_type" : "ScreenVMFile",
                          "src" : 9,
                          "trackNumber" : 0,
                          "attributes" : {
                            "ident" : "Rec 02-08-22_002"
                          },
                          "parameters" : {
                            "sourceCrop0" : {
                              "type" : "double",
                              "defaultValue" : 0.0,
                              "interp" : "eioe"
                            },
                            "sourceCrop1" : {
                              "type" : "double",
                              "defaultValue" : 0.0,
                              "interp" : "eioe"
                            },
                            "sourceCrop2" : {
                              "type" : "double",
                              "defaultValue" : 0.0,
                              "interp" : "eioe"
                            },
                            "sourceCrop3" : {
                              "type" : "double",
                              "defaultValue" : 0.0,
                              "interp" : "eioe"
                            },
                            "geometryCrop0" : {
                              "type" : "double",
                              "defaultValue" : 0.0,
                              "interp" : "eioe"
                            },
                            "geometryCrop1" : {
                              "type" : "double",
                              "defaultValue" : 0.0,
                              "interp" : "eioe"
                            },
                            "geometryCrop2" : {
                              "type" : "double",
                              "defaultValue" : 0.0,
                              "interp" : "eioe"
                            },
                            "geometryCrop3" : {
                              "type" : "double",
                              "defaultValue" : 0.0,
                              "interp" : "eioe"
                            },
                            "cursorScale" : {
                              "type" : "double",
                              "defaultValue" : 0.0,
                              "interp" : "linr"
                            },
                            "cursorOpacity" : {
                              "type" : "double",
                              "defaultValue" : 0.0,
                              "interp" : "linr"
                            }
                          },
                          "effects" : [

                          ],
                          "start" : 2525,
                          "duration" : 105,
                          "mediaStart" : 3379,
                          "mediaDuration" : 105,
                          "scalar" : 1,
                          "metadata" : {
                            "AutoAppliedSmartFocus" : "False"
                          },
                          "animationTracks" : {

                          }
                        },
                        {
                          "id" : 42,
                          "_type" : "ScreenVMFile",
                          "src" : 9,
                          "trackNumber" : 0,
                          "attributes" : {
                            "ident" : "Rec 02-08-22_002"
                          },
                          "parameters" : {
                            "sourceCrop0" : {
                              "type" : "double",
                              "defaultValue" : 0.0,
                              "interp" : "eioe"
                            },
                            "sourceCrop1" : {
                              "type" : "double",
                              "defaultValue" : 0.0,
                              "interp" : "eioe"
                            },
                            "sourceCrop2" : {
                              "type" : "double",
                              "defaultValue" : 0.0,
                              "interp" : "eioe"
                            },
                            "sourceCrop3" : {
                              "type" : "double",
                              "defaultValue" : 0.0,
                              "interp" : "eioe"
                            },
                            "geometryCrop0" : {
                              "type" : "double",
                              "defaultValue" : 0.0,
                              "interp" : "eioe"
                            },
                            "geometryCrop1" : {
                              "type" : "double",
                              "defaultValue" : 0.0,
                              "interp" : "eioe"
                            },
                            "geometryCrop2" : {
                              "type" : "double",
                              "defaultValue" : 0.0,
                              "interp" : "eioe"
                            },
                            "geometryCrop3" : {
                              "type" : "double",
                              "defaultValue" : 0.0,
                              "interp" : "eioe"
                            },
                            "cursorScale" : {
                              "type" : "double",
                              "defaultValue" : 0.0,
                              "interp" : "linr"
                            },
                            "cursorOpacity" : {
                              "type" : "double",
                              "defaultValue" : 0.0,
                              "interp" : "linr"
                            }
                          },
                          "effects" : [

                          ],
                          "start" : 2630,
                          "duration" : 186,
                          "mediaStart" : 3532,
                          "mediaDuration" : 186,
                          "scalar" : 1,
                          "metadata" : {
                            "AutoAppliedSmartFocus" : "False"
                          },
                          "animationTracks" : {

                          }
                        },
                        {
                          "id" : 43,
                          "_type" : "ScreenVMFile",
                          "src" : 9,
                          "trackNumber" : 0,
                          "attributes" : {
                            "ident" : "Rec 02-08-22_002"
                          },
                          "parameters" : {
                            "sourceCrop0" : {
                              "type" : "double",
                              "defaultValue" : 0.0,
                              "interp" : "eioe"
                            },
                            "sourceCrop1" : {
                              "type" : "double",
                              "defaultValue" : 0.0,
                              "interp" : "eioe"
                            },
                            "sourceCrop2" : {
                              "type" : "double",
                              "defaultValue" : 0.0,
                              "interp" : "eioe"
                            },
                            "sourceCrop3" : {
                              "type" : "double",
                              "defaultValue" : 0.0,
                              "interp" : "eioe"
                            },
                            "geometryCrop0" : {
                              "type" : "double",
                              "defaultValue" : 0.0,
                              "interp" : "eioe"
                            },
                            "geometryCrop1" : {
                              "type" : "double",
                              "defaultValue" : 0.0,
                              "interp" : "eioe"
                            },
                            "geometryCrop2" : {
                              "type" : "double",
                              "defaultValue" : 0.0,
                              "interp" : "eioe"
                            },
                            "geometryCrop3" : {
                              "type" : "double",
                              "defaultValue" : 0.0,
                              "interp" : "eioe"
                            },
                            "cursorScale" : {
                              "type" : "double",
                              "defaultValue" : 0.0,
                              "interp" : "linr"
                            },
                            "cursorOpacity" : {
                              "type" : "double",
                              "defaultValue" : 0.0,
                              "interp" : "linr"
                            }
                          },
                          "effects" : [

                          ],
                          "start" : 2816,
                          "duration" : 58,
                          "mediaStart" : 3806,
                          "mediaDuration" : 58,
                          "scalar" : 1,
                          "metadata" : {
                            "AutoAppliedSmartFocus" : "False"
                          },
                          "animationTracks" : {

                          }
                        },
                        {
                          "id" : 44,
                          "_type" : "ScreenVMFile",
                          "src" : 9,
                          "trackNumber" : 0,
                          "attributes" : {
                            "ident" : "Rec 02-08-22_002"
                          },
                          "parameters" : {
                            "sourceCrop0" : {
                              "type" : "double",
                              "defaultValue" : 0.0,
                              "interp" : "eioe"
                            },
                            "sourceCrop1" : {
                              "type" : "double",
                              "defaultValue" : 0.0,
                              "interp" : "eioe"
                            },
                            "sourceCrop2" : {
                              "type" : "double",
                              "defaultValue" : 0.0,
                              "interp" : "eioe"
                            },
                            "sourceCrop3" : {
                              "type" : "double",
                              "defaultValue" : 0.0,
                              "interp" : "eioe"
                            },
                            "geometryCrop0" : {
                              "type" : "double",
                              "defaultValue" : 0.0,
                              "interp" : "eioe"
                            },
                            "geometryCrop1" : {
                              "type" : "double",
                              "defaultValue" : 0.0,
                              "interp" : "eioe"
                            },
                            "geometryCrop2" : {
                              "type" : "double",
                              "defaultValue" : 0.0,
                              "interp" : "eioe"
                            },
                            "geometryCrop3" : {
                              "type" : "double",
                              "defaultValue" : 0.0,
                              "interp" : "eioe"
                            },
                            "cursorScale" : {
                              "type" : "double",
                              "defaultValue" : 0.0,
                              "interp" : "linr"
                            },
                            "cursorOpacity" : {
                              "type" : "double",
                              "defaultValue" : 0.0,
                              "interp" : "linr"
                            }
                          },
                          "effects" : [

                          ],
                          "start" : 2874,
                          "duration" : 1,
                          "mediaStart" : 4011,
                          "mediaDuration" : 1,
                          "scalar" : 1,
                          "metadata" : {
                            "AutoAppliedSmartFocus" : "False"
                          },
                          "animationTracks" : {

                          }
                        },
                        {
                          "id" : 45,
                          "_type" : "ScreenVMFile",
                          "src" : 9,
                          "trackNumber" : 0,
                          "attributes" : {
                            "ident" : "Rec 02-08-22_002"
                          },
                          "parameters" : {
                            "sourceCrop0" : {
                              "type" : "double",
                              "defaultValue" : 0.0,
                              "interp" : "eioe"
                            },
                            "sourceCrop1" : {
                              "type" : "double",
                              "defaultValue" : 0.0,
                              "interp" : "eioe"
                            },
                            "sourceCrop2" : {
                              "type" : "double",
                              "defaultValue" : 0.0,
                              "interp" : "eioe"
                            },
                            "sourceCrop3" : {
                              "type" : "double",
                              "defaultValue" : 0.0,
                              "interp" : "eioe"
                            },
                            "geometryCrop0" : {
                              "type" : "double",
                              "defaultValue" : 0.0,
                              "interp" : "eioe"
                            },
                            "geometryCrop1" : {
                              "type" : "double",
                              "defaultValue" : 0.0,
                              "interp" : "eioe"
                            },
                            "geometryCrop2" : {
                              "type" : "double",
                              "defaultValue" : 0.0,
                              "interp" : "eioe"
                            },
                            "geometryCrop3" : {
                              "type" : "double",
                              "defaultValue" : 0.0,
                              "interp" : "eioe"
                            },
                            "cursorScale" : {
                              "type" : "double",
                              "defaultValue" : 0.0,
                              "interp" : "linr"
                            },
                            "cursorOpacity" : {
                              "type" : "double",
                              "defaultValue" : 0.0,
                              "interp" : "linr"
                            }
                          },
                          "effects" : [

                          ],
                          "start" : 2875,
                          "duration" : 36,
                          "mediaStart" : 4272,
                          "mediaDuration" : 36,
                          "scalar" : 1,
                          "metadata" : {
                            "AutoAppliedSmartFocus" : "False"
                          },
                          "animationTracks" : {

                          }
                        },
                        {
                          "id" : 46,
                          "_type" : "ScreenVMFile",
                          "src" : 9,
                          "trackNumber" : 0,
                          "attributes" : {
                            "ident" : "Rec 02-08-22_002"
                          },
                          "parameters" : {
                            "sourceCrop0" : {
                              "type" : "double",
                              "defaultValue" : 0.0,
                              "interp" : "eioe"
                            },
                            "sourceCrop1" : {
                              "type" : "double",
                              "defaultValue" : 0.0,
                              "interp" : "eioe"
                            },
                            "sourceCrop2" : {
                              "type" : "double",
                              "defaultValue" : 0.0,
                              "interp" : "eioe"
                            },
                            "sourceCrop3" : {
                              "type" : "double",
                              "defaultValue" : 0.0,
                              "interp" : "eioe"
                            },
                            "geometryCrop0" : {
                              "type" : "double",
                              "defaultValue" : 0.0,
                              "interp" : "eioe"
                            },
                            "geometryCrop1" : {
                              "type" : "double",
                              "defaultValue" : 0.0,
                              "interp" : "eioe"
                            },
                            "geometryCrop2" : {
                              "type" : "double",
                              "defaultValue" : 0.0,
                              "interp" : "eioe"
                            },
                            "geometryCrop3" : {
                              "type" : "double",
                              "defaultValue" : 0.0,
                              "interp" : "eioe"
                            },
                            "cursorScale" : {
                              "type" : "double",
                              "defaultValue" : 0.0,
                              "interp" : "linr"
                            },
                            "cursorOpacity" : {
                              "type" : "double",
                              "defaultValue" : 0.0,
                              "interp" : "linr"
                            }
                          },
                          "effects" : [

                          ],
                          "start" : 2911,
                          "duration" : 96,
                          "mediaStart" : 4340,
                          "mediaDuration" : 96,
                          "scalar" : 1,
                          "metadata" : {
                            "AutoAppliedSmartFocus" : "False"
                          },
                          "animationTracks" : {

                          }
                        },
                        {
                          "id" : 47,
                          "_type" : "ScreenVMFile",
                          "src" : 9,
                          "trackNumber" : 0,
                          "attributes" : {
                            "ident" : "Rec 02-08-22_002"
                          },
                          "parameters" : {
                            "sourceCrop0" : {
                              "type" : "double",
                              "defaultValue" : 0.0,
                              "interp" : "eioe"
                            },
                            "sourceCrop1" : {
                              "type" : "double",
                              "defaultValue" : 0.0,
                              "interp" : "eioe"
                            },
                            "sourceCrop2" : {
                              "type" : "double",
                              "defaultValue" : 0.0,
                              "interp" : "eioe"
                            },
                            "sourceCrop3" : {
                              "type" : "double",
                              "defaultValue" : 0.0,
                              "interp" : "eioe"
                            },
                            "geometryCrop0" : {
                              "type" : "double",
                              "defaultValue" : 0.0,
                              "interp" : "eioe"
                            },
                            "geometryCrop1" : {
                              "type" : "double",
                              "defaultValue" : 0.0,
                              "interp" : "eioe"
                            },
                            "geometryCrop2" : {
                              "type" : "double",
                              "defaultValue" : 0.0,
                              "interp" : "eioe"
                            },
                            "geometryCrop3" : {
                              "type" : "double",
                              "defaultValue" : 0.0,
                              "interp" : "eioe"
                            },
                            "cursorScale" : {
                              "type" : "double",
                              "defaultValue" : 0.0,
                              "interp" : "linr"
                            },
                            "cursorOpacity" : {
                              "type" : "double",
                              "defaultValue" : 0.0,
                              "interp" : "linr"
                            }
                          },
                          "effects" : [

                          ],
                          "start" : 3007,
                          "duration" : 159,
                          "mediaStart" : 4563,
                          "mediaDuration" : 159,
                          "scalar" : 1,
                          "metadata" : {
                            "AutoAppliedSmartFocus" : "False"
                          },
                          "animationTracks" : {

                          }
                        },
                        {
                          "id" : 48,
                          "_type" : "ScreenVMFile",
                          "src" : 9,
                          "trackNumber" : 0,
                          "attributes" : {
                            "ident" : "Rec 02-08-22_002"
                          },
                          "parameters" : {
                            "sourceCrop0" : {
                              "type" : "double",
                              "defaultValue" : 0.0,
                              "interp" : "eioe"
                            },
                            "sourceCrop1" : {
                              "type" : "double",
                              "defaultValue" : 0.0,
                              "interp" : "eioe"
                            },
                            "sourceCrop2" : {
                              "type" : "double",
                              "defaultValue" : 0.0,
                              "interp" : "eioe"
                            },
                            "sourceCrop3" : {
                              "type" : "double",
                              "defaultValue" : 0.0,
                              "interp" : "eioe"
                            },
                            "geometryCrop0" : {
                              "type" : "double",
                              "defaultValue" : 0.0,
                              "interp" : "eioe"
                            },
                            "geometryCrop1" : {
                              "type" : "double",
                              "defaultValue" : 0.0,
                              "interp" : "eioe"
                            },
                            "geometryCrop2" : {
                              "type" : "double",
                              "defaultValue" : 0.0,
                              "interp" : "eioe"
                            },
                            "geometryCrop3" : {
                              "type" : "double",
                              "defaultValue" : 0.0,
                              "interp" : "eioe"
                            },
                            "cursorScale" : {
                              "type" : "double",
                              "defaultValue" : 0.0,
                              "interp" : "linr"
                            },
                            "cursorOpacity" : {
                              "type" : "double",
                              "defaultValue" : 0.0,
                              "interp" : "linr"
                            }
                          },
                          "effects" : [

                          ],
                          "start" : 3166,
                          "duration" : 211,
                          "mediaStart" : 4757,
                          "mediaDuration" : 211,
                          "scalar" : 1,
                          "metadata" : {
                            "AutoAppliedSmartFocus" : "False"
                          },
                          "animationTracks" : {

                          }
                        },
                        {
                          "id" : 49,
                          "_type" : "ScreenVMFile",
                          "src" : 9,
                          "trackNumber" : 0,
                          "attributes" : {
                            "ident" : "Rec 02-08-22_002"
                          },
                          "parameters" : {
                            "sourceCrop0" : {
                              "type" : "double",
                              "defaultValue" : 0.0,
                              "interp" : "eioe"
                            },
                            "sourceCrop1" : {
                              "type" : "double",
                              "defaultValue" : 0.0,
                              "interp" : "eioe"
                            },
                            "sourceCrop2" : {
                              "type" : "double",
                              "defaultValue" : 0.0,
                              "interp" : "eioe"
                            },
                            "sourceCrop3" : {
                              "type" : "double",
                              "defaultValue" : 0.0,
                              "interp" : "eioe"
                            },
                            "geometryCrop0" : {
                              "type" : "double",
                              "defaultValue" : 0.0,
                              "interp" : "eioe"
                            },
                            "geometryCrop1" : {
                              "type" : "double",
                              "defaultValue" : 0.0,
                              "interp" : "eioe"
                            },
                            "geometryCrop2" : {
                              "type" : "double",
                              "defaultValue" : 0.0,
                              "interp" : "eioe"
                            },
                            "geometryCrop3" : {
                              "type" : "double",
                              "defaultValue" : 0.0,
                              "interp" : "eioe"
                            },
                            "cursorScale" : {
                              "type" : "double",
                              "defaultValue" : 0.0,
                              "interp" : "linr"
                            },
                            "cursorOpacity" : {
                              "type" : "double",
                              "defaultValue" : 0.0,
                              "interp" : "linr"
                            }
                          },
                          "effects" : [

                          ],
                          "start" : 3377,
                          "duration" : 54,
                          "mediaStart" : 4998,
                          "mediaDuration" : 54,
                          "scalar" : 1,
                          "metadata" : {
                            "AutoAppliedSmartFocus" : "False"
                          },
                          "animationTracks" : {

                          }
                        },
                        {
                          "id" : 50,
                          "_type" : "ScreenVMFile",
                          "src" : 9,
                          "trackNumber" : 0,
                          "attributes" : {
                            "ident" : "Rec 02-08-22_002"
                          },
                          "parameters" : {
                            "sourceCrop0" : {
                              "type" : "double",
                              "defaultValue" : 0.0,
                              "interp" : "eioe"
                            },
                            "sourceCrop1" : {
                              "type" : "double",
                              "defaultValue" : 0.0,
                              "interp" : "eioe"
                            },
                            "sourceCrop2" : {
                              "type" : "double",
                              "defaultValue" : 0.0,
                              "interp" : "eioe"
                            },
                            "sourceCrop3" : {
                              "type" : "double",
                              "defaultValue" : 0.0,
                              "interp" : "eioe"
                            },
                            "geometryCrop0" : {
                              "type" : "double",
                              "defaultValue" : 0.0,
                              "interp" : "eioe"
                            },
                            "geometryCrop1" : {
                              "type" : "double",
                              "defaultValue" : 0.0,
                              "interp" : "eioe"
                            },
                            "geometryCrop2" : {
                              "type" : "double",
                              "defaultValue" : 0.0,
                              "interp" : "eioe"
                            },
                            "geometryCrop3" : {
                              "type" : "double",
                              "defaultValue" : 0.0,
                              "interp" : "eioe"
                            },
                            "cursorScale" : {
                              "type" : "double",
                              "defaultValue" : 0.0,
                              "interp" : "linr"
                            },
                            "cursorOpacity" : {
                              "type" : "double",
                              "defaultValue" : 0.0,
                              "interp" : "linr"
                            }
                          },
                          "effects" : [

                          ],
                          "start" : 3431,
                          "duration" : 23,
                          "mediaStart" : 5142,
                          "mediaDuration" : 23,
                          "scalar" : 1,
                          "metadata" : {
                            "AutoAppliedSmartFocus" : "False"
                          },
                          "animationTracks" : {

                          }
                        },
                        {
                          "id" : 51,
                          "_type" : "ScreenVMFile",
                          "src" : 9,
                          "trackNumber" : 0,
                          "attributes" : {
                            "ident" : "Rec 02-08-22_002"
                          },
                          "parameters" : {
                            "sourceCrop0" : {
                              "type" : "double",
                              "defaultValue" : 0.0,
                              "interp" : "eioe"
                            },
                            "sourceCrop1" : {
                              "type" : "double",
                              "defaultValue" : 0.0,
                              "interp" : "eioe"
                            },
                            "sourceCrop2" : {
                              "type" : "double",
                              "defaultValue" : 0.0,
                              "interp" : "eioe"
                            },
                            "sourceCrop3" : {
                              "type" : "double",
                              "defaultValue" : 0.0,
                              "interp" : "eioe"
                            },
                            "geometryCrop0" : {
                              "type" : "double",
                              "defaultValue" : 0.0,
                              "interp" : "eioe"
                            },
                            "geometryCrop1" : {
                              "type" : "double",
                              "defaultValue" : 0.0,
                              "interp" : "eioe"
                            },
                            "geometryCrop2" : {
                              "type" : "double",
                              "defaultValue" : 0.0,
                              "interp" : "eioe"
                            },
                            "geometryCrop3" : {
                              "type" : "double",
                              "defaultValue" : 0.0,
                              "interp" : "eioe"
                            },
                            "cursorScale" : {
                              "type" : "double",
                              "defaultValue" : 0.0,
                              "interp" : "linr"
                            },
                            "cursorOpacity" : {
                              "type" : "double",
                              "defaultValue" : 0.0,
                              "interp" : "linr"
                            }
                          },
                          "effects" : [

                          ],
                          "start" : 3454,
                          "duration" : 71,
                          "mediaStart" : 5212,
                          "mediaDuration" : 71,
                          "scalar" : 1,
                          "metadata" : {
                            "AutoAppliedSmartFocus" : "False"
                          },
                          "animationTracks" : {

                          }
                        },
                        {
                          "id" : 52,
                          "_type" : "ScreenVMFile",
                          "src" : 9,
                          "trackNumber" : 0,
                          "attributes" : {
                            "ident" : "Rec 02-08-22_002"
                          },
                          "parameters" : {
                            "sourceCrop0" : {
                              "type" : "double",
                              "defaultValue" : 0.0,
                              "interp" : "eioe"
                            },
                            "sourceCrop1" : {
                              "type" : "double",
                              "defaultValue" : 0.0,
                              "interp" : "eioe"
                            },
                            "sourceCrop2" : {
                              "type" : "double",
                              "defaultValue" : 0.0,
                              "interp" : "eioe"
                            },
                            "sourceCrop3" : {
                              "type" : "double",
                              "defaultValue" : 0.0,
                              "interp" : "eioe"
                            },
                            "geometryCrop0" : {
                              "type" : "double",
                              "defaultValue" : 0.0,
                              "interp" : "eioe"
                            },
                            "geometryCrop1" : {
                              "type" : "double",
                              "defaultValue" : 0.0,
                              "interp" : "eioe"
                            },
                            "geometryCrop2" : {
                              "type" : "double",
                              "defaultValue" : 0.0,
                              "interp" : "eioe"
                            },
                            "geometryCrop3" : {
                              "type" : "double",
                              "defaultValue" : 0.0,
                              "interp" : "eioe"
                            },
                            "cursorScale" : {
                              "type" : "double",
                              "defaultValue" : 0.0,
                              "interp" : "linr"
                            },
                            "cursorOpacity" : {
                              "type" : "double",
                              "defaultValue" : 0.0,
                              "interp" : "linr"
                            }
                          },
                          "effects" : [

                          ],
                          "start" : 3525,
                          "duration" : 57,
                          "mediaStart" : 5310,
                          "mediaDuration" : 57,
                          "scalar" : 1,
                          "metadata" : {
                            "AutoAppliedSmartFocus" : "False"
                          },
                          "animationTracks" : {

                          }
                        },
                        {
                          "id" : 53,
                          "_type" : "ScreenVMFile",
                          "src" : 9,
                          "trackNumber" : 0,
                          "attributes" : {
                            "ident" : "Rec 02-08-22_002"
                          },
                          "parameters" : {
                            "sourceCrop0" : {
                              "type" : "double",
                              "defaultValue" : 0.0,
                              "interp" : "eioe"
                            },
                            "sourceCrop1" : {
                              "type" : "double",
                              "defaultValue" : 0.0,
                              "interp" : "eioe"
                            },
                            "sourceCrop2" : {
                              "type" : "double",
                              "defaultValue" : 0.0,
                              "interp" : "eioe"
                            },
                            "sourceCrop3" : {
                              "type" : "double",
                              "defaultValue" : 0.0,
                              "interp" : "eioe"
                            },
                            "geometryCrop0" : {
                              "type" : "double",
                              "defaultValue" : 0.0,
                              "interp" : "eioe"
                            },
                            "geometryCrop1" : {
                              "type" : "double",
                              "defaultValue" : 0.0,
                              "interp" : "eioe"
                            },
                            "geometryCrop2" : {
                              "type" : "double",
                              "defaultValue" : 0.0,
                              "interp" : "eioe"
                            },
                            "geometryCrop3" : {
                              "type" : "double",
                              "defaultValue" : 0.0,
                              "interp" : "eioe"
                            },
                            "cursorScale" : {
                              "type" : "double",
                              "defaultValue" : 0.0,
                              "interp" : "linr"
                            },
                            "cursorOpacity" : {
                              "type" : "double",
                              "defaultValue" : 0.0,
                              "interp" : "linr"
                            }
                          },
                          "effects" : [

                          ],
                          "start" : 3582,
                          "duration" : 133,
                          "mediaStart" : 5387,
                          "mediaDuration" : 133,
                          "scalar" : 1,
                          "metadata" : {
                            "AutoAppliedSmartFocus" : "False"
                          },
                          "animationTracks" : {

                          }
                        },
                        {
                          "id" : 54,
                          "_type" : "ScreenVMFile",
                          "src" : 9,
                          "trackNumber" : 0,
                          "attributes" : {
                            "ident" : "Rec 02-08-22_002"
                          },
                          "parameters" : {
                            "sourceCrop0" : {
                              "type" : "double",
                              "defaultValue" : 0.0,
                              "interp" : "eioe"
                            },
                            "sourceCrop1" : {
                              "type" : "double",
                              "defaultValue" : 0.0,
                              "interp" : "eioe"
                            },
                            "sourceCrop2" : {
                              "type" : "double",
                              "defaultValue" : 0.0,
                              "interp" : "eioe"
                            },
                            "sourceCrop3" : {
                              "type" : "double",
                              "defaultValue" : 0.0,
                              "interp" : "eioe"
                            },
                            "geometryCrop0" : {
                              "type" : "double",
                              "defaultValue" : 0.0,
                              "interp" : "eioe"
                            },
                            "geometryCrop1" : {
                              "type" : "double",
                              "defaultValue" : 0.0,
                              "interp" : "eioe"
                            },
                            "geometryCrop2" : {
                              "type" : "double",
                              "defaultValue" : 0.0,
                              "interp" : "eioe"
                            },
                            "geometryCrop3" : {
                              "type" : "double",
                              "defaultValue" : 0.0,
                              "interp" : "eioe"
                            },
                            "cursorScale" : {
                              "type" : "double",
                              "defaultValue" : 0.0,
                              "interp" : "linr"
                            },
                            "cursorOpacity" : {
                              "type" : "double",
                              "defaultValue" : 0.0,
                              "interp" : "linr"
                            }
                          },
                          "effects" : [

                          ],
                          "start" : 3715,
                          "duration" : 13,
                          "mediaStart" : 5549,
                          "mediaDuration" : 13,
                          "scalar" : 1,
                          "metadata" : {
                            "AutoAppliedSmartFocus" : "False"
                          },
                          "animationTracks" : {

                          }
                        },
                        {
                          "id" : 55,
                          "_type" : "ScreenVMFile",
                          "src" : 9,
                          "trackNumber" : 0,
                          "attributes" : {
                            "ident" : "Rec 02-08-22_002"
                          },
                          "parameters" : {
                            "sourceCrop0" : {
                              "type" : "double",
                              "defaultValue" : 0.0,
                              "interp" : "eioe"
                            },
                            "sourceCrop1" : {
                              "type" : "double",
                              "defaultValue" : 0.0,
                              "interp" : "eioe"
                            },
                            "sourceCrop2" : {
                              "type" : "double",
                              "defaultValue" : 0.0,
                              "interp" : "eioe"
                            },
                            "sourceCrop3" : {
                              "type" : "double",
                              "defaultValue" : 0.0,
                              "interp" : "eioe"
                            },
                            "geometryCrop0" : {
                              "type" : "double",
                              "defaultValue" : 0.0,
                              "interp" : "eioe"
                            },
                            "geometryCrop1" : {
                              "type" : "double",
                              "defaultValue" : 0.0,
                              "interp" : "eioe"
                            },
                            "geometryCrop2" : {
                              "type" : "double",
                              "defaultValue" : 0.0,
                              "interp" : "eioe"
                            },
                            "geometryCrop3" : {
                              "type" : "double",
                              "defaultValue" : 0.0,
                              "interp" : "eioe"
                            },
                            "cursorScale" : {
                              "type" : "double",
                              "defaultValue" : 0.0,
                              "interp" : "linr"
                            },
                            "cursorOpacity" : {
                              "type" : "double",
                              "defaultValue" : 0.0,
                              "interp" : "linr"
                            }
                          },
                          "effects" : [

                          ],
                          "start" : 3728,
                          "duration" : 376,
                          "mediaStart" : 5579,
                          "mediaDuration" : 376,
                          "scalar" : 1,
                          "metadata" : {
                            "AutoAppliedSmartFocus" : "False"
                          },
                          "animationTracks" : {

                          }
                        },
                        {
                          "id" : 56,
                          "_type" : "ScreenVMFile",
                          "src" : 9,
                          "trackNumber" : 0,
                          "attributes" : {
                            "ident" : "Rec 02-08-22_002"
                          },
                          "parameters" : {
                            "sourceCrop0" : {
                              "type" : "double",
                              "defaultValue" : 0.0,
                              "interp" : "eioe"
                            },
                            "sourceCrop1" : {
                              "type" : "double",
                              "defaultValue" : 0.0,
                              "interp" : "eioe"
                            },
                            "sourceCrop2" : {
                              "type" : "double",
                              "defaultValue" : 0.0,
                              "interp" : "eioe"
                            },
                            "sourceCrop3" : {
                              "type" : "double",
                              "defaultValue" : 0.0,
                              "interp" : "eioe"
                            },
                            "geometryCrop0" : {
                              "type" : "double",
                              "defaultValue" : 0.0,
                              "interp" : "eioe"
                            },
                            "geometryCrop1" : {
                              "type" : "double",
                              "defaultValue" : 0.0,
                              "interp" : "eioe"
                            },
                            "geometryCrop2" : {
                              "type" : "double",
                              "defaultValue" : 0.0,
                              "interp" : "eioe"
                            },
                            "geometryCrop3" : {
                              "type" : "double",
                              "defaultValue" : 0.0,
                              "interp" : "eioe"
                            },
                            "cursorScale" : {
                              "type" : "double",
                              "defaultValue" : 0.0,
                              "interp" : "linr"
                            },
                            "cursorOpacity" : {
                              "type" : "double",
                              "defaultValue" : 0.0,
                              "interp" : "linr"
                            }
                          },
                          "effects" : [

                          ],
                          "start" : 4104,
                          "duration" : 53,
                          "mediaStart" : 5979,
                          "mediaDuration" : 53,
                          "scalar" : 1,
                          "metadata" : {
                            "AutoAppliedSmartFocus" : "False"
                          },
                          "animationTracks" : {

                          }
                        },
                        {
                          "id" : 57,
                          "_type" : "ScreenVMFile",
                          "src" : 9,
                          "trackNumber" : 0,
                          "attributes" : {
                            "ident" : "Rec 02-08-22_002"
                          },
                          "parameters" : {
                            "sourceCrop0" : {
                              "type" : "double",
                              "defaultValue" : 0.0,
                              "interp" : "eioe"
                            },
                            "sourceCrop1" : {
                              "type" : "double",
                              "defaultValue" : 0.0,
                              "interp" : "eioe"
                            },
                            "sourceCrop2" : {
                              "type" : "double",
                              "defaultValue" : 0.0,
                              "interp" : "eioe"
                            },
                            "sourceCrop3" : {
                              "type" : "double",
                              "defaultValue" : 0.0,
                              "interp" : "eioe"
                            },
                            "geometryCrop0" : {
                              "type" : "double",
                              "defaultValue" : 0.0,
                              "interp" : "eioe"
                            },
                            "geometryCrop1" : {
                              "type" : "double",
                              "defaultValue" : 0.0,
                              "interp" : "eioe"
                            },
                            "geometryCrop2" : {
                              "type" : "double",
                              "defaultValue" : 0.0,
                              "interp" : "eioe"
                            },
                            "geometryCrop3" : {
                              "type" : "double",
                              "defaultValue" : 0.0,
                              "interp" : "eioe"
                            },
                            "cursorScale" : {
                              "type" : "double",
                              "defaultValue" : 0.0,
                              "interp" : "linr"
                            },
                            "cursorOpacity" : {
                              "type" : "double",
                              "defaultValue" : 0.0,
                              "interp" : "linr"
                            }
                          },
                          "effects" : [

                          ],
                          "start" : 4157,
                          "duration" : 47,
                          "mediaStart" : 6060,
                          "mediaDuration" : 47,
                          "scalar" : 1,
                          "metadata" : {
                            "AutoAppliedSmartFocus" : "False"
                          },
                          "animationTracks" : {

                          }
                        },
                        {
                          "id" : 58,
                          "_type" : "ScreenVMFile",
                          "src" : 9,
                          "trackNumber" : 0,
                          "attributes" : {
                            "ident" : "Rec 02-08-22_002"
                          },
                          "parameters" : {
                            "sourceCrop0" : {
                              "type" : "double",
                              "defaultValue" : 0.0,
                              "interp" : "eioe"
                            },
                            "sourceCrop1" : {
                              "type" : "double",
                              "defaultValue" : 0.0,
                              "interp" : "eioe"
                            },
                            "sourceCrop2" : {
                              "type" : "double",
                              "defaultValue" : 0.0,
                              "interp" : "eioe"
                            },
                            "sourceCrop3" : {
                              "type" : "double",
                              "defaultValue" : 0.0,
                              "interp" : "eioe"
                            },
                            "geometryCrop0" : {
                              "type" : "double",
                              "defaultValue" : 0.0,
                              "interp" : "eioe"
                            },
                            "geometryCrop1" : {
                              "type" : "double",
                              "defaultValue" : 0.0,
                              "interp" : "eioe"
                            },
                            "geometryCrop2" : {
                              "type" : "double",
                              "defaultValue" : 0.0,
                              "interp" : "eioe"
                            },
                            "geometryCrop3" : {
                              "type" : "double",
                              "defaultValue" : 0.0,
                              "interp" : "eioe"
                            },
                            "cursorScale" : {
                              "type" : "double",
                              "defaultValue" : 0.0,
                              "interp" : "linr"
                            },
                            "cursorOpacity" : {
                              "type" : "double",
                              "defaultValue" : 0.0,
                              "interp" : "linr"
                            }
                          },
                          "effects" : [

                          ],
                          "start" : 4204,
                          "duration" : 122,
                          "mediaStart" : 6278,
                          "mediaDuration" : 122,
                          "scalar" : 1,
                          "metadata" : {
                            "AutoAppliedSmartFocus" : "False"
                          },
                          "animationTracks" : {

                          }
                        },
                        {
                          "id" : 59,
                          "_type" : "ScreenVMFile",
                          "src" : 9,
                          "trackNumber" : 0,
                          "attributes" : {
                            "ident" : "Rec 02-08-22_002"
                          },
                          "parameters" : {
                            "sourceCrop0" : {
                              "type" : "double",
                              "defaultValue" : 0.0,
                              "interp" : "eioe"
                            },
                            "sourceCrop1" : {
                              "type" : "double",
                              "defaultValue" : 0.0,
                              "interp" : "eioe"
                            },
                            "sourceCrop2" : {
                              "type" : "double",
                              "defaultValue" : 0.0,
                              "interp" : "eioe"
                            },
                            "sourceCrop3" : {
                              "type" : "double",
                              "defaultValue" : 0.0,
                              "interp" : "eioe"
                            },
                            "geometryCrop0" : {
                              "type" : "double",
                              "defaultValue" : 0.0,
                              "interp" : "eioe"
                            },
                            "geometryCrop1" : {
                              "type" : "double",
                              "defaultValue" : 0.0,
                              "interp" : "eioe"
                            },
                            "geometryCrop2" : {
                              "type" : "double",
                              "defaultValue" : 0.0,
                              "interp" : "eioe"
                            },
                            "geometryCrop3" : {
                              "type" : "double",
                              "defaultValue" : 0.0,
                              "interp" : "eioe"
                            },
                            "cursorScale" : {
                              "type" : "double",
                              "defaultValue" : 0.0,
                              "interp" : "linr"
                            },
                            "cursorOpacity" : {
                              "type" : "double",
                              "defaultValue" : 0.0,
                              "interp" : "linr"
                            }
                          },
                          "effects" : [

                          ],
                          "start" : 4326,
                          "duration" : 64,
                          "mediaStart" : 6459,
                          "mediaDuration" : 64,
                          "scalar" : 1,
                          "metadata" : {
                            "AutoAppliedSmartFocus" : "False"
                          },
                          "animationTracks" : {

                          }
                        },
                        {
                          "id" : 60,
                          "_type" : "ScreenVMFile",
                          "src" : 9,
                          "trackNumber" : 0,
                          "attributes" : {
                            "ident" : "Rec 02-08-22_002"
                          },
                          "parameters" : {
                            "sourceCrop0" : {
                              "type" : "double",
                              "defaultValue" : 0.0,
                              "interp" : "eioe"
                            },
                            "sourceCrop1" : {
                              "type" : "double",
                              "defaultValue" : 0.0,
                              "interp" : "eioe"
                            },
                            "sourceCrop2" : {
                              "type" : "double",
                              "defaultValue" : 0.0,
                              "interp" : "eioe"
                            },
                            "sourceCrop3" : {
                              "type" : "double",
                              "defaultValue" : 0.0,
                              "interp" : "eioe"
                            },
                            "geometryCrop0" : {
                              "type" : "double",
                              "defaultValue" : 0.0,
                              "interp" : "eioe"
                            },
                            "geometryCrop1" : {
                              "type" : "double",
                              "defaultValue" : 0.0,
                              "interp" : "eioe"
                            },
                            "geometryCrop2" : {
                              "type" : "double",
                              "defaultValue" : 0.0,
                              "interp" : "eioe"
                            },
                            "geometryCrop3" : {
                              "type" : "double",
                              "defaultValue" : 0.0,
                              "interp" : "eioe"
                            },
                            "cursorScale" : {
                              "type" : "double",
                              "defaultValue" : 0.0,
                              "interp" : "linr"
                            },
                            "cursorOpacity" : {
                              "type" : "double",
                              "defaultValue" : 0.0,
                              "interp" : "linr"
                            }
                          },
                          "effects" : [

                          ],
                          "start" : 4390,
                          "duration" : 117,
                          "mediaStart" : 6562,
                          "mediaDuration" : 117,
                          "scalar" : 1,
                          "metadata" : {
                            "AutoAppliedSmartFocus" : "False"
                          },
                          "animationTracks" : {

                          }
                        },
                        {
                          "id" : 61,
                          "_type" : "ScreenVMFile",
                          "src" : 9,
                          "trackNumber" : 0,
                          "attributes" : {
                            "ident" : "Rec 02-08-22_002"
                          },
                          "parameters" : {
                            "sourceCrop0" : {
                              "type" : "double",
                              "defaultValue" : 0.0,
                              "interp" : "eioe"
                            },
                            "sourceCrop1" : {
                              "type" : "double",
                              "defaultValue" : 0.0,
                              "interp" : "eioe"
                            },
                            "sourceCrop2" : {
                              "type" : "double",
                              "defaultValue" : 0.0,
                              "interp" : "eioe"
                            },
                            "sourceCrop3" : {
                              "type" : "double",
                              "defaultValue" : 0.0,
                              "interp" : "eioe"
                            },
                            "geometryCrop0" : {
                              "type" : "double",
                              "defaultValue" : 0.0,
                              "interp" : "eioe"
                            },
                            "geometryCrop1" : {
                              "type" : "double",
                              "defaultValue" : 0.0,
                              "interp" : "eioe"
                            },
                            "geometryCrop2" : {
                              "type" : "double",
                              "defaultValue" : 0.0,
                              "interp" : "eioe"
                            },
                            "geometryCrop3" : {
                              "type" : "double",
                              "defaultValue" : 0.0,
                              "interp" : "eioe"
                            },
                            "cursorScale" : {
                              "type" : "double",
                              "defaultValue" : 0.0,
                              "interp" : "linr"
                            },
                            "cursorOpacity" : {
                              "type" : "double",
                              "defaultValue" : 0.0,
                              "interp" : "linr"
                            }
                          },
                          "effects" : [

                          ],
                          "start" : 4507,
                          "duration" : 86,
                          "mediaStart" : 6734,
                          "mediaDuration" : 86,
                          "scalar" : 1,
                          "metadata" : {
                            "AutoAppliedSmartFocus" : "False"
                          },
                          "animationTracks" : {

                          }
                        },
                        {
                          "id" : 62,
                          "_type" : "ScreenVMFile",
                          "src" : 9,
                          "trackNumber" : 0,
                          "attributes" : {
                            "ident" : "Rec 02-08-22_002"
                          },
                          "parameters" : {
                            "sourceCrop0" : {
                              "type" : "double",
                              "defaultValue" : 0.0,
                              "interp" : "eioe"
                            },
                            "sourceCrop1" : {
                              "type" : "double",
                              "defaultValue" : 0.0,
                              "interp" : "eioe"
                            },
                            "sourceCrop2" : {
                              "type" : "double",
                              "defaultValue" : 0.0,
                              "interp" : "eioe"
                            },
                            "sourceCrop3" : {
                              "type" : "double",
                              "defaultValue" : 0.0,
                              "interp" : "eioe"
                            },
                            "geometryCrop0" : {
                              "type" : "double",
                              "defaultValue" : 0.0,
                              "interp" : "eioe"
                            },
                            "geometryCrop1" : {
                              "type" : "double",
                              "defaultValue" : 0.0,
                              "interp" : "eioe"
                            },
                            "geometryCrop2" : {
                              "type" : "double",
                              "defaultValue" : 0.0,
                              "interp" : "eioe"
                            },
                            "geometryCrop3" : {
                              "type" : "double",
                              "defaultValue" : 0.0,
                              "interp" : "eioe"
                            },
                            "cursorScale" : {
                              "type" : "double",
                              "defaultValue" : 0.0,
                              "interp" : "linr"
                            },
                            "cursorOpacity" : {
                              "type" : "double",
                              "defaultValue" : 0.0,
                              "interp" : "linr"
                            }
                          },
                          "effects" : [

                          ],
                          "start" : 4593,
                          "duration" : 136,
                          "mediaStart" : 7582,
                          "mediaDuration" : 136,
                          "scalar" : 1,
                          "metadata" : {
                            "AutoAppliedSmartFocus" : "False"
                          },
                          "animationTracks" : {

                          }
                        },
                        {
                          "id" : 63,
                          "_type" : "ScreenVMFile",
                          "src" : 9,
                          "trackNumber" : 0,
                          "attributes" : {
                            "ident" : "Rec 02-08-22_002"
                          },
                          "parameters" : {
                            "sourceCrop0" : {
                              "type" : "double",
                              "defaultValue" : 0.0,
                              "interp" : "eioe"
                            },
                            "sourceCrop1" : {
                              "type" : "double",
                              "defaultValue" : 0.0,
                              "interp" : "eioe"
                            },
                            "sourceCrop2" : {
                              "type" : "double",
                              "defaultValue" : 0.0,
                              "interp" : "eioe"
                            },
                            "sourceCrop3" : {
                              "type" : "double",
                              "defaultValue" : 0.0,
                              "interp" : "eioe"
                            },
                            "geometryCrop0" : {
                              "type" : "double",
                              "defaultValue" : 0.0,
                              "interp" : "eioe"
                            },
                            "geometryCrop1" : {
                              "type" : "double",
                              "defaultValue" : 0.0,
                              "interp" : "eioe"
                            },
                            "geometryCrop2" : {
                              "type" : "double",
                              "defaultValue" : 0.0,
                              "interp" : "eioe"
                            },
                            "geometryCrop3" : {
                              "type" : "double",
                              "defaultValue" : 0.0,
                              "interp" : "eioe"
                            },
                            "cursorScale" : {
                              "type" : "double",
                              "defaultValue" : 0.0,
                              "interp" : "linr"
                            },
                            "cursorOpacity" : {
                              "type" : "double",
                              "defaultValue" : 0.0,
                              "interp" : "linr"
                            }
                          },
                          "effects" : [

                          ],
                          "start" : 4729,
                          "duration" : 241,
                          "mediaStart" : 7757,
                          "mediaDuration" : 241,
                          "scalar" : 1,
                          "metadata" : {
                            "AutoAppliedSmartFocus" : "False"
                          },
                          "animationTracks" : {

                          }
                        },
                        {
                          "id" : 64,
                          "_type" : "ScreenVMFile",
                          "src" : 9,
                          "trackNumber" : 0,
                          "attributes" : {
                            "ident" : "Rec 02-08-22_002"
                          },
                          "parameters" : {
                            "sourceCrop0" : {
                              "type" : "double",
                              "defaultValue" : 0.0,
                              "interp" : "eioe"
                            },
                            "sourceCrop1" : {
                              "type" : "double",
                              "defaultValue" : 0.0,
                              "interp" : "eioe"
                            },
                            "sourceCrop2" : {
                              "type" : "double",
                              "defaultValue" : 0.0,
                              "interp" : "eioe"
                            },
                            "sourceCrop3" : {
                              "type" : "double",
                              "defaultValue" : 0.0,
                              "interp" : "eioe"
                            },
                            "geometryCrop0" : {
                              "type" : "double",
                              "defaultValue" : 0.0,
                              "interp" : "eioe"
                            },
                            "geometryCrop1" : {
                              "type" : "double",
                              "defaultValue" : 0.0,
                              "interp" : "eioe"
                            },
                            "geometryCrop2" : {
                              "type" : "double",
                              "defaultValue" : 0.0,
                              "interp" : "eioe"
                            },
                            "geometryCrop3" : {
                              "type" : "double",
                              "defaultValue" : 0.0,
                              "interp" : "eioe"
                            },
                            "cursorScale" : {
                              "type" : "double",
                              "defaultValue" : 0.0,
                              "interp" : "linr"
                            },
                            "cursorOpacity" : {
                              "type" : "double",
                              "defaultValue" : 0.0,
                              "interp" : "linr"
                            }
                          },
                          "effects" : [

                          ],
                          "start" : 4970,
                          "duration" : 44,
                          "mediaStart" : 8053,
                          "mediaDuration" : 44,
                          "scalar" : 1,
                          "metadata" : {
                            "AutoAppliedSmartFocus" : "False"
                          },
                          "animationTracks" : {

                          }
                        },
                        {
                          "id" : 65,
                          "_type" : "ScreenVMFile",
                          "src" : 9,
                          "trackNumber" : 0,
                          "attributes" : {
                            "ident" : "Rec 02-08-22_002"
                          },
                          "parameters" : {
                            "sourceCrop0" : {
                              "type" : "double",
                              "defaultValue" : 0.0,
                              "interp" : "eioe"
                            },
                            "sourceCrop1" : {
                              "type" : "double",
                              "defaultValue" : 0.0,
                              "interp" : "eioe"
                            },
                            "sourceCrop2" : {
                              "type" : "double",
                              "defaultValue" : 0.0,
                              "interp" : "eioe"
                            },
                            "sourceCrop3" : {
                              "type" : "double",
                              "defaultValue" : 0.0,
                              "interp" : "eioe"
                            },
                            "geometryCrop0" : {
                              "type" : "double",
                              "defaultValue" : 0.0,
                              "interp" : "eioe"
                            },
                            "geometryCrop1" : {
                              "type" : "double",
                              "defaultValue" : 0.0,
                              "interp" : "eioe"
                            },
                            "geometryCrop2" : {
                              "type" : "double",
                              "defaultValue" : 0.0,
                              "interp" : "eioe"
                            },
                            "geometryCrop3" : {
                              "type" : "double",
                              "defaultValue" : 0.0,
                              "interp" : "eioe"
                            },
                            "cursorScale" : {
                              "type" : "double",
                              "defaultValue" : 0.0,
                              "interp" : "linr"
                            },
                            "cursorOpacity" : {
                              "type" : "double",
                              "defaultValue" : 0.0,
                              "interp" : "linr"
                            }
                          },
                          "effects" : [

                          ],
                          "start" : 5014,
                          "duration" : 13,
                          "mediaStart" : 8111,
                          "mediaDuration" : 13,
                          "scalar" : 1,
                          "metadata" : {
                            "AutoAppliedSmartFocus" : "False"
                          },
                          "animationTracks" : {

                          }
                        },
                        {
                          "id" : 66,
                          "_type" : "ScreenVMFile",
                          "src" : 9,
                          "trackNumber" : 0,
                          "attributes" : {
                            "ident" : "Rec 02-08-22_002"
                          },
                          "parameters" : {
                            "sourceCrop0" : {
                              "type" : "double",
                              "defaultValue" : 0.0,
                              "interp" : "eioe"
                            },
                            "sourceCrop1" : {
                              "type" : "double",
                              "defaultValue" : 0.0,
                              "interp" : "eioe"
                            },
                            "sourceCrop2" : {
                              "type" : "double",
                              "defaultValue" : 0.0,
                              "interp" : "eioe"
                            },
                            "sourceCrop3" : {
                              "type" : "double",
                              "defaultValue" : 0.0,
                              "interp" : "eioe"
                            },
                            "geometryCrop0" : {
                              "type" : "double",
                              "defaultValue" : 0.0,
                              "interp" : "eioe"
                            },
                            "geometryCrop1" : {
                              "type" : "double",
                              "defaultValue" : 0.0,
                              "interp" : "eioe"
                            },
                            "geometryCrop2" : {
                              "type" : "double",
                              "defaultValue" : 0.0,
                              "interp" : "eioe"
                            },
                            "geometryCrop3" : {
                              "type" : "double",
                              "defaultValue" : 0.0,
                              "interp" : "eioe"
                            },
                            "cursorScale" : {
                              "type" : "double",
                              "defaultValue" : 0.0,
                              "interp" : "linr"
                            },
                            "cursorOpacity" : {
                              "type" : "double",
                              "defaultValue" : 0.0,
                              "interp" : "linr"
                            }
                          },
                          "effects" : [

                          ],
                          "start" : 5027,
                          "duration" : 12,
                          "mediaStart" : 8147,
                          "mediaDuration" : 12,
                          "scalar" : 1,
                          "metadata" : {
                            "AutoAppliedSmartFocus" : "False"
                          },
                          "animationTracks" : {

                          }
                        },
                        {
                          "id" : 67,
                          "_type" : "ScreenVMFile",
                          "src" : 9,
                          "trackNumber" : 0,
                          "attributes" : {
                            "ident" : "Rec 02-08-22_002"
                          },
                          "parameters" : {
                            "sourceCrop0" : {
                              "type" : "double",
                              "defaultValue" : 0.0,
                              "interp" : "eioe"
                            },
                            "sourceCrop1" : {
                              "type" : "double",
                              "defaultValue" : 0.0,
                              "interp" : "eioe"
                            },
                            "sourceCrop2" : {
                              "type" : "double",
                              "defaultValue" : 0.0,
                              "interp" : "eioe"
                            },
                            "sourceCrop3" : {
                              "type" : "double",
                              "defaultValue" : 0.0,
                              "interp" : "eioe"
                            },
                            "geometryCrop0" : {
                              "type" : "double",
                              "defaultValue" : 0.0,
                              "interp" : "eioe"
                            },
                            "geometryCrop1" : {
                              "type" : "double",
                              "defaultValue" : 0.0,
                              "interp" : "eioe"
                            },
                            "geometryCrop2" : {
                              "type" : "double",
                              "defaultValue" : 0.0,
                              "interp" : "eioe"
                            },
                            "geometryCrop3" : {
                              "type" : "double",
                              "defaultValue" : 0.0,
                              "interp" : "eioe"
                            },
                            "cursorScale" : {
                              "type" : "double",
                              "defaultValue" : 0.0,
                              "interp" : "linr"
                            },
                            "cursorOpacity" : {
                              "type" : "double",
                              "defaultValue" : 0.0,
                              "interp" : "linr"
                            }
                          },
                          "effects" : [

                          ],
                          "start" : 5039,
                          "duration" : 172,
                          "mediaStart" : 8246,
                          "mediaDuration" : 172,
                          "scalar" : 1,
                          "metadata" : {
                            "AutoAppliedSmartFocus" : "False"
                          },
                          "animationTracks" : {

                          }
                        },
                        {
                          "id" : 68,
                          "_type" : "ScreenVMFile",
                          "src" : 9,
                          "trackNumber" : 0,
                          "attributes" : {
                            "ident" : "Rec 02-08-22_002"
                          },
                          "parameters" : {
                            "sourceCrop0" : {
                              "type" : "double",
                              "defaultValue" : 0.0,
                              "interp" : "eioe"
                            },
                            "sourceCrop1" : {
                              "type" : "double",
                              "defaultValue" : 0.0,
                              "interp" : "eioe"
                            },
                            "sourceCrop2" : {
                              "type" : "double",
                              "defaultValue" : 0.0,
                              "interp" : "eioe"
                            },
                            "sourceCrop3" : {
                              "type" : "double",
                              "defaultValue" : 0.0,
                              "interp" : "eioe"
                            },
                            "geometryCrop0" : {
                              "type" : "double",
                              "defaultValue" : 0.0,
                              "interp" : "eioe"
                            },
                            "geometryCrop1" : {
                              "type" : "double",
                              "defaultValue" : 0.0,
                              "interp" : "eioe"
                            },
                            "geometryCrop2" : {
                              "type" : "double",
                              "defaultValue" : 0.0,
                              "interp" : "eioe"
                            },
                            "geometryCrop3" : {
                              "type" : "double",
                              "defaultValue" : 0.0,
                              "interp" : "eioe"
                            },
                            "cursorScale" : {
                              "type" : "double",
                              "defaultValue" : 0.0,
                              "interp" : "linr"
                            },
                            "cursorOpacity" : {
                              "type" : "double",
                              "defaultValue" : 0.0,
                              "interp" : "linr"
                            }
                          },
                          "effects" : [

                          ],
                          "start" : 5211,
                          "duration" : 109,
                          "mediaStart" : 8483,
                          "mediaDuration" : 109,
                          "scalar" : 1,
                          "metadata" : {
                            "AutoAppliedSmartFocus" : "False"
                          },
                          "animationTracks" : {

                          }
                        },
                        {
                          "id" : 69,
                          "_type" : "ScreenVMFile",
                          "src" : 9,
                          "trackNumber" : 0,
                          "attributes" : {
                            "ident" : "Rec 02-08-22_002"
                          },
                          "parameters" : {
                            "sourceCrop0" : {
                              "type" : "double",
                              "defaultValue" : 0.0,
                              "interp" : "eioe"
                            },
                            "sourceCrop1" : {
                              "type" : "double",
                              "defaultValue" : 0.0,
                              "interp" : "eioe"
                            },
                            "sourceCrop2" : {
                              "type" : "double",
                              "defaultValue" : 0.0,
                              "interp" : "eioe"
                            },
                            "sourceCrop3" : {
                              "type" : "double",
                              "defaultValue" : 0.0,
                              "interp" : "eioe"
                            },
                            "geometryCrop0" : {
                              "type" : "double",
                              "defaultValue" : 0.0,
                              "interp" : "eioe"
                            },
                            "geometryCrop1" : {
                              "type" : "double",
                              "defaultValue" : 0.0,
                              "interp" : "eioe"
                            },
                            "geometryCrop2" : {
                              "type" : "double",
                              "defaultValue" : 0.0,
                              "interp" : "eioe"
                            },
                            "geometryCrop3" : {
                              "type" : "double",
                              "defaultValue" : 0.0,
                              "interp" : "eioe"
                            },
                            "cursorScale" : {
                              "type" : "double",
                              "defaultValue" : 0.0,
                              "interp" : "linr"
                            },
                            "cursorOpacity" : {
                              "type" : "double",
                              "defaultValue" : 0.0,
                              "interp" : "linr"
                            }
                          },
                          "effects" : [

                          ],
                          "start" : 5320,
                          "duration" : 16,
                          "mediaStart" : 8669,
                          "mediaDuration" : 16,
                          "scalar" : 1,
                          "metadata" : {
                            "AutoAppliedSmartFocus" : "False"
                          },
                          "animationTracks" : {

                          }
                        },
                        {
                          "id" : 70,
                          "_type" : "ScreenVMFile",
                          "src" : 9,
                          "trackNumber" : 0,
                          "attributes" : {
                            "ident" : "Rec 02-08-22_002"
                          },
                          "parameters" : {
                            "sourceCrop0" : {
                              "type" : "double",
                              "defaultValue" : 0.0,
                              "interp" : "eioe"
                            },
                            "sourceCrop1" : {
                              "type" : "double",
                              "defaultValue" : 0.0,
                              "interp" : "eioe"
                            },
                            "sourceCrop2" : {
                              "type" : "double",
                              "defaultValue" : 0.0,
                              "interp" : "eioe"
                            },
                            "sourceCrop3" : {
                              "type" : "double",
                              "defaultValue" : 0.0,
                              "interp" : "eioe"
                            },
                            "geometryCrop0" : {
                              "type" : "double",
                              "defaultValue" : 0.0,
                              "interp" : "eioe"
                            },
                            "geometryCrop1" : {
                              "type" : "double",
                              "defaultValue" : 0.0,
                              "interp" : "eioe"
                            },
                            "geometryCrop2" : {
                              "type" : "double",
                              "defaultValue" : 0.0,
                              "interp" : "eioe"
                            },
                            "geometryCrop3" : {
                              "type" : "double",
                              "defaultValue" : 0.0,
                              "interp" : "eioe"
                            },
                            "cursorScale" : {
                              "type" : "double",
                              "defaultValue" : 0.0,
                              "interp" : "linr"
                            },
                            "cursorOpacity" : {
                              "type" : "double",
                              "defaultValue" : 0.0,
                              "interp" : "linr"
                            }
                          },
                          "effects" : [

                          ],
                          "start" : 5336,
                          "duration" : 216,
                          "mediaStart" : 8736,
                          "mediaDuration" : 216,
                          "scalar" : 1,
                          "metadata" : {
                            "AutoAppliedSmartFocus" : "False"
                          },
                          "animationTracks" : {

                          }
                        },
                        {
                          "id" : 71,
                          "_type" : "ScreenVMFile",
                          "src" : 9,
                          "trackNumber" : 0,
                          "attributes" : {
                            "ident" : "Rec 02-08-22_002"
                          },
                          "parameters" : {
                            "sourceCrop0" : {
                              "type" : "double",
                              "defaultValue" : 0.0,
                              "interp" : "eioe"
                            },
                            "sourceCrop1" : {
                              "type" : "double",
                              "defaultValue" : 0.0,
                              "interp" : "eioe"
                            },
                            "sourceCrop2" : {
                              "type" : "double",
                              "defaultValue" : 0.0,
                              "interp" : "eioe"
                            },
                            "sourceCrop3" : {
                              "type" : "double",
                              "defaultValue" : 0.0,
                              "interp" : "eioe"
                            },
                            "geometryCrop0" : {
                              "type" : "double",
                              "defaultValue" : 0.0,
                              "interp" : "eioe"
                            },
                            "geometryCrop1" : {
                              "type" : "double",
                              "defaultValue" : 0.0,
                              "interp" : "eioe"
                            },
                            "geometryCrop2" : {
                              "type" : "double",
                              "defaultValue" : 0.0,
                              "interp" : "eioe"
                            },
                            "geometryCrop3" : {
                              "type" : "double",
                              "defaultValue" : 0.0,
                              "interp" : "eioe"
                            },
                            "cursorScale" : {
                              "type" : "double",
                              "defaultValue" : 0.0,
                              "interp" : "linr"
                            },
                            "cursorOpacity" : {
                              "type" : "double",
                              "defaultValue" : 0.0,
                              "interp" : "linr"
                            }
                          },
                          "effects" : [

                          ],
                          "start" : 5552,
                          "duration" : 151,
                          "mediaStart" : 9102,
                          "mediaDuration" : 151,
                          "scalar" : 1,
                          "metadata" : {
                            "AutoAppliedSmartFocus" : "False"
                          },
                          "animationTracks" : {

                          }
                        },
                        {
                          "id" : 72,
                          "_type" : "ScreenVMFile",
                          "src" : 9,
                          "trackNumber" : 0,
                          "attributes" : {
                            "ident" : "Rec 02-08-22_002"
                          },
                          "parameters" : {
                            "sourceCrop0" : {
                              "type" : "double",
                              "defaultValue" : 0.0,
                              "interp" : "eioe"
                            },
                            "sourceCrop1" : {
                              "type" : "double",
                              "defaultValue" : 0.0,
                              "interp" : "eioe"
                            },
                            "sourceCrop2" : {
                              "type" : "double",
                              "defaultValue" : 0.0,
                              "interp" : "eioe"
                            },
                            "sourceCrop3" : {
                              "type" : "double",
                              "defaultValue" : 0.0,
                              "interp" : "eioe"
                            },
                            "geometryCrop0" : {
                              "type" : "double",
                              "defaultValue" : 0.0,
                              "interp" : "eioe"
                            },
                            "geometryCrop1" : {
                              "type" : "double",
                              "defaultValue" : 0.0,
                              "interp" : "eioe"
                            },
                            "geometryCrop2" : {
                              "type" : "double",
                              "defaultValue" : 0.0,
                              "interp" : "eioe"
                            },
                            "geometryCrop3" : {
                              "type" : "double",
                              "defaultValue" : 0.0,
                              "interp" : "eioe"
                            },
                            "cursorScale" : {
                              "type" : "double",
                              "defaultValue" : 0.0,
                              "interp" : "linr"
                            },
                            "cursorOpacity" : {
                              "type" : "double",
                              "defaultValue" : 0.0,
                              "interp" : "linr"
                            }
                          },
                          "effects" : [

                          ],
                          "start" : 5703,
                          "duration" : 170,
                          "mediaStart" : 9293,
                          "mediaDuration" : 170,
                          "scalar" : 1,
                          "metadata" : {
                            "AutoAppliedSmartFocus" : "False"
                          },
                          "animationTracks" : {

                          }
                        },
                        {
                          "id" : 73,
                          "_type" : "ScreenVMFile",
                          "src" : 9,
                          "trackNumber" : 0,
                          "attributes" : {
                            "ident" : "Rec 02-08-22_002"
                          },
                          "parameters" : {
                            "sourceCrop0" : {
                              "type" : "double",
                              "defaultValue" : 0.0,
                              "interp" : "eioe"
                            },
                            "sourceCrop1" : {
                              "type" : "double",
                              "defaultValue" : 0.0,
                              "interp" : "eioe"
                            },
                            "sourceCrop2" : {
                              "type" : "double",
                              "defaultValue" : 0.0,
                              "interp" : "eioe"
                            },
                            "sourceCrop3" : {
                              "type" : "double",
                              "defaultValue" : 0.0,
                              "interp" : "eioe"
                            },
                            "geometryCrop0" : {
                              "type" : "double",
                              "defaultValue" : 0.0,
                              "interp" : "eioe"
                            },
                            "geometryCrop1" : {
                              "type" : "double",
                              "defaultValue" : 0.0,
                              "interp" : "eioe"
                            },
                            "geometryCrop2" : {
                              "type" : "double",
                              "defaultValue" : 0.0,
                              "interp" : "eioe"
                            },
                            "geometryCrop3" : {
                              "type" : "double",
                              "defaultValue" : 0.0,
                              "interp" : "eioe"
                            },
                            "cursorScale" : {
                              "type" : "double",
                              "defaultValue" : 0.0,
                              "interp" : "linr"
                            },
                            "cursorOpacity" : {
                              "type" : "double",
                              "defaultValue" : 0.0,
                              "interp" : "linr"
                            }
                          },
                          "effects" : [

                          ],
                          "start" : 5873,
                          "duration" : 513,
                          "mediaStart" : 9595,
                          "mediaDuration" : 513,
                          "scalar" : 1,
                          "metadata" : {
                            "AutoAppliedSmartFocus" : "False"
                          },
                          "animationTracks" : {

                          }
                        },
                        {
                          "id" : 74,
                          "_type" : "ScreenVMFile",
                          "src" : 9,
                          "trackNumber" : 0,
                          "attributes" : {
                            "ident" : "Rec 02-08-22_002"
                          },
                          "parameters" : {
                            "sourceCrop0" : {
                              "type" : "double",
                              "defaultValue" : 0.0,
                              "interp" : "eioe"
                            },
                            "sourceCrop1" : {
                              "type" : "double",
                              "defaultValue" : 0.0,
                              "interp" : "eioe"
                            },
                            "sourceCrop2" : {
                              "type" : "double",
                              "defaultValue" : 0.0,
                              "interp" : "eioe"
                            },
                            "sourceCrop3" : {
                              "type" : "double",
                              "defaultValue" : 0.0,
                              "interp" : "eioe"
                            },
                            "geometryCrop0" : {
                              "type" : "double",
                              "defaultValue" : 0.0,
                              "interp" : "eioe"
                            },
                            "geometryCrop1" : {
                              "type" : "double",
                              "defaultValue" : 0.0,
                              "interp" : "eioe"
                            },
                            "geometryCrop2" : {
                              "type" : "double",
                              "defaultValue" : 0.0,
                              "interp" : "eioe"
                            },
                            "geometryCrop3" : {
                              "type" : "double",
                              "defaultValue" : 0.0,
                              "interp" : "eioe"
                            },
                            "cursorScale" : {
                              "type" : "double",
                              "defaultValue" : 0.0,
                              "interp" : "linr"
                            },
                            "cursorOpacity" : {
                              "type" : "double",
                              "defaultValue" : 0.0,
                              "interp" : "linr"
                            }
                          },
                          "effects" : [

                          ],
                          "start" : 6386,
                          "duration" : 388,
                          "mediaStart" : 10140,
                          "mediaDuration" : 388,
                          "scalar" : 1,
                          "metadata" : {
                            "AutoAppliedSmartFocus" : "False"
                          },
                          "animationTracks" : {

                          }
                        },
                        {
                          "id" : 75,
                          "_type" : "ScreenVMFile",
                          "src" : 9,
                          "trackNumber" : 0,
                          "attributes" : {
                            "ident" : "Rec 02-08-22_002"
                          },
                          "parameters" : {
                            "sourceCrop0" : {
                              "type" : "double",
                              "defaultValue" : 0.0,
                              "interp" : "eioe"
                            },
                            "sourceCrop1" : {
                              "type" : "double",
                              "defaultValue" : 0.0,
                              "interp" : "eioe"
                            },
                            "sourceCrop2" : {
                              "type" : "double",
                              "defaultValue" : 0.0,
                              "interp" : "eioe"
                            },
                            "sourceCrop3" : {
                              "type" : "double",
                              "defaultValue" : 0.0,
                              "interp" : "eioe"
                            },
                            "geometryCrop0" : {
                              "type" : "double",
                              "defaultValue" : 0.0,
                              "interp" : "eioe"
                            },
                            "geometryCrop1" : {
                              "type" : "double",
                              "defaultValue" : 0.0,
                              "interp" : "eioe"
                            },
                            "geometryCrop2" : {
                              "type" : "double",
                              "defaultValue" : 0.0,
                              "interp" : "eioe"
                            },
                            "geometryCrop3" : {
                              "type" : "double",
                              "defaultValue" : 0.0,
                              "interp" : "eioe"
                            },
                            "cursorScale" : {
                              "type" : "double",
                              "defaultValue" : 0.0,
                              "interp" : "linr"
                            },
                            "cursorOpacity" : {
                              "type" : "double",
                              "defaultValue" : 0.0,
                              "interp" : "linr"
                            }
                          },
                          "effects" : [

                          ],
                          "start" : 6774,
                          "duration" : 125,
                          "mediaStart" : 10577,
                          "mediaDuration" : 125,
                          "scalar" : 1,
                          "metadata" : {
                            "AutoAppliedSmartFocus" : "False"
                          },
                          "animationTracks" : {

                          }
                        },
                        {
                          "id" : 76,
                          "_type" : "ScreenVMFile",
                          "src" : 9,
                          "trackNumber" : 0,
                          "attributes" : {
                            "ident" : "Rec 02-08-22_002"
                          },
                          "parameters" : {
                            "sourceCrop0" : {
                              "type" : "double",
                              "defaultValue" : 0.0,
                              "interp" : "eioe"
                            },
                            "sourceCrop1" : {
                              "type" : "double",
                              "defaultValue" : 0.0,
                              "interp" : "eioe"
                            },
                            "sourceCrop2" : {
                              "type" : "double",
                              "defaultValue" : 0.0,
                              "interp" : "eioe"
                            },
                            "sourceCrop3" : {
                              "type" : "double",
                              "defaultValue" : 0.0,
                              "interp" : "eioe"
                            },
                            "geometryCrop0" : {
                              "type" : "double",
                              "defaultValue" : 0.0,
                              "interp" : "eioe"
                            },
                            "geometryCrop1" : {
                              "type" : "double",
                              "defaultValue" : 0.0,
                              "interp" : "eioe"
                            },
                            "geometryCrop2" : {
                              "type" : "double",
                              "defaultValue" : 0.0,
                              "interp" : "eioe"
                            },
                            "geometryCrop3" : {
                              "type" : "double",
                              "defaultValue" : 0.0,
                              "interp" : "eioe"
                            },
                            "cursorScale" : {
                              "type" : "double",
                              "defaultValue" : 0.0,
                              "interp" : "linr"
                            },
                            "cursorOpacity" : {
                              "type" : "double",
                              "defaultValue" : 0.0,
                              "interp" : "linr"
                            }
                          },
                          "effects" : [

                          ],
                          "start" : 6899,
                          "duration" : 160,
                          "mediaStart" : 10757,
                          "mediaDuration" : 160,
                          "scalar" : 1,
                          "metadata" : {
                            "AutoAppliedSmartFocus" : "False"
                          },
                          "animationTracks" : {

                          }
                        },
                        {
                          "id" : 77,
                          "_type" : "ScreenVMFile",
                          "src" : 9,
                          "trackNumber" : 0,
                          "attributes" : {
                            "ident" : "Rec 02-08-22_002"
                          },
                          "parameters" : {
                            "sourceCrop0" : {
                              "type" : "double",
                              "defaultValue" : 0.0,
                              "interp" : "eioe"
                            },
                            "sourceCrop1" : {
                              "type" : "double",
                              "defaultValue" : 0.0,
                              "interp" : "eioe"
                            },
                            "sourceCrop2" : {
                              "type" : "double",
                              "defaultValue" : 0.0,
                              "interp" : "eioe"
                            },
                            "sourceCrop3" : {
                              "type" : "double",
                              "defaultValue" : 0.0,
                              "interp" : "eioe"
                            },
                            "geometryCrop0" : {
                              "type" : "double",
                              "defaultValue" : 0.0,
                              "interp" : "eioe"
                            },
                            "geometryCrop1" : {
                              "type" : "double",
                              "defaultValue" : 0.0,
                              "interp" : "eioe"
                            },
                            "geometryCrop2" : {
                              "type" : "double",
                              "defaultValue" : 0.0,
                              "interp" : "eioe"
                            },
                            "geometryCrop3" : {
                              "type" : "double",
                              "defaultValue" : 0.0,
                              "interp" : "eioe"
                            },
                            "cursorScale" : {
                              "type" : "double",
                              "defaultValue" : 0.0,
                              "interp" : "linr"
                            },
                            "cursorOpacity" : {
                              "type" : "double",
                              "defaultValue" : 0.0,
                              "interp" : "linr"
                            }
                          },
                          "effects" : [

                          ],
                          "start" : 7059,
                          "duration" : 20,
                          "mediaStart" : 11401,
                          "mediaDuration" : 20,
                          "scalar" : 1,
                          "metadata" : {
                            "AutoAppliedSmartFocus" : "False"
                          },
                          "animationTracks" : {

                          }
                        },
                        {
                          "id" : 78,
                          "_type" : "ScreenVMFile",
                          "src" : 9,
                          "trackNumber" : 0,
                          "attributes" : {
                            "ident" : "Rec 02-08-22_002"
                          },
                          "parameters" : {
                            "sourceCrop0" : {
                              "type" : "double",
                              "defaultValue" : 0.0,
                              "interp" : "eioe"
                            },
                            "sourceCrop1" : {
                              "type" : "double",
                              "defaultValue" : 0.0,
                              "interp" : "eioe"
                            },
                            "sourceCrop2" : {
                              "type" : "double",
                              "defaultValue" : 0.0,
                              "interp" : "eioe"
                            },
                            "sourceCrop3" : {
                              "type" : "double",
                              "defaultValue" : 0.0,
                              "interp" : "eioe"
                            },
                            "geometryCrop0" : {
                              "type" : "double",
                              "defaultValue" : 0.0,
                              "interp" : "eioe"
                            },
                            "geometryCrop1" : {
                              "type" : "double",
                              "defaultValue" : 0.0,
                              "interp" : "eioe"
                            },
                            "geometryCrop2" : {
                              "type" : "double",
                              "defaultValue" : 0.0,
                              "interp" : "eioe"
                            },
                            "geometryCrop3" : {
                              "type" : "double",
                              "defaultValue" : 0.0,
                              "interp" : "eioe"
                            },
                            "cursorScale" : {
                              "type" : "double",
                              "defaultValue" : 0.0,
                              "interp" : "linr"
                            },
                            "cursorOpacity" : {
                              "type" : "double",
                              "defaultValue" : 0.0,
                              "interp" : "linr"
                            }
                          },
                          "effects" : [

                          ],
                          "start" : 7079,
                          "duration" : 18,
                          "mediaStart" : 11448,
                          "mediaDuration" : 18,
                          "scalar" : 1,
                          "metadata" : {
                            "AutoAppliedSmartFocus" : "False"
                          },
                          "animationTracks" : {

                          }
                        },
                        {
                          "id" : 79,
                          "_type" : "ScreenVMFile",
                          "src" : 9,
                          "trackNumber" : 0,
                          "attributes" : {
                            "ident" : "Rec 02-08-22_002"
                          },
                          "parameters" : {
                            "sourceCrop0" : {
                              "type" : "double",
                              "defaultValue" : 0.0,
                              "interp" : "eioe"
                            },
                            "sourceCrop1" : {
                              "type" : "double",
                              "defaultValue" : 0.0,
                              "interp" : "eioe"
                            },
                            "sourceCrop2" : {
                              "type" : "double",
                              "defaultValue" : 0.0,
                              "interp" : "eioe"
                            },
                            "sourceCrop3" : {
                              "type" : "double",
                              "defaultValue" : 0.0,
                              "interp" : "eioe"
                            },
                            "geometryCrop0" : {
                              "type" : "double",
                              "defaultValue" : 0.0,
                              "interp" : "eioe"
                            },
                            "geometryCrop1" : {
                              "type" : "double",
                              "defaultValue" : 0.0,
                              "interp" : "eioe"
                            },
                            "geometryCrop2" : {
                              "type" : "double",
                              "defaultValue" : 0.0,
                              "interp" : "eioe"
                            },
                            "geometryCrop3" : {
                              "type" : "double",
                              "defaultValue" : 0.0,
                              "interp" : "eioe"
                            },
                            "cursorScale" : {
                              "type" : "double",
                              "defaultValue" : 0.0,
                              "interp" : "linr"
                            },
                            "cursorOpacity" : {
                              "type" : "double",
                              "defaultValue" : 0.0,
                              "interp" : "linr"
                            }
                          },
                          "effects" : [

                          ],
                          "start" : 7097,
                          "duration" : 520,
                          "mediaStart" : 11644,
                          "mediaDuration" : 520,
                          "scalar" : 1,
                          "metadata" : {
                            "AutoAppliedSmartFocus" : "False"
                          },
                          "animationTracks" : {

                          }
                        },
                        {
                          "id" : 80,
                          "_type" : "ScreenVMFile",
                          "src" : 9,
                          "trackNumber" : 0,
                          "attributes" : {
                            "ident" : "Rec 02-08-22_002"
                          },
                          "parameters" : {
                            "sourceCrop0" : {
                              "type" : "double",
                              "defaultValue" : 0.0,
                              "interp" : "eioe"
                            },
                            "sourceCrop1" : {
                              "type" : "double",
                              "defaultValue" : 0.0,
                              "interp" : "eioe"
                            },
                            "sourceCrop2" : {
                              "type" : "double",
                              "defaultValue" : 0.0,
                              "interp" : "eioe"
                            },
                            "sourceCrop3" : {
                              "type" : "double",
                              "defaultValue" : 0.0,
                              "interp" : "eioe"
                            },
                            "geometryCrop0" : {
                              "type" : "double",
                              "defaultValue" : 0.0,
                              "interp" : "eioe"
                            },
                            "geometryCrop1" : {
                              "type" : "double",
                              "defaultValue" : 0.0,
                              "interp" : "eioe"
                            },
                            "geometryCrop2" : {
                              "type" : "double",
                              "defaultValue" : 0.0,
                              "interp" : "eioe"
                            },
                            "geometryCrop3" : {
                              "type" : "double",
                              "defaultValue" : 0.0,
                              "interp" : "eioe"
                            },
                            "cursorScale" : {
                              "type" : "double",
                              "defaultValue" : 0.0,
                              "interp" : "linr"
                            },
                            "cursorOpacity" : {
                              "type" : "double",
                              "defaultValue" : 0.0,
                              "interp" : "linr"
                            }
                          },
                          "effects" : [

                          ],
                          "start" : 7617,
                          "duration" : 477,
                          "mediaStart" : 12225,
                          "mediaDuration" : 477,
                          "scalar" : 1,
                          "metadata" : {
                            "AutoAppliedSmartFocus" : "False"
                          },
                          "animationTracks" : {

                          }
                        },
                        {
                          "id" : 81,
                          "_type" : "ScreenVMFile",
                          "src" : 9,
                          "trackNumber" : 0,
                          "attributes" : {
                            "ident" : "Rec 02-08-22_002"
                          },
                          "parameters" : {
                            "sourceCrop0" : {
                              "type" : "double",
                              "defaultValue" : 0.0,
                              "interp" : "eioe"
                            },
                            "sourceCrop1" : {
                              "type" : "double",
                              "defaultValue" : 0.0,
                              "interp" : "eioe"
                            },
                            "sourceCrop2" : {
                              "type" : "double",
                              "defaultValue" : 0.0,
                              "interp" : "eioe"
                            },
                            "sourceCrop3" : {
                              "type" : "double",
                              "defaultValue" : 0.0,
                              "interp" : "eioe"
                            },
                            "geometryCrop0" : {
                              "type" : "double",
                              "defaultValue" : 0.0,
                              "interp" : "eioe"
                            },
                            "geometryCrop1" : {
                              "type" : "double",
                              "defaultValue" : 0.0,
                              "interp" : "eioe"
                            },
                            "geometryCrop2" : {
                              "type" : "double",
                              "defaultValue" : 0.0,
                              "interp" : "eioe"
                            },
                            "geometryCrop3" : {
                              "type" : "double",
                              "defaultValue" : 0.0,
                              "interp" : "eioe"
                            },
                            "cursorScale" : {
                              "type" : "double",
                              "defaultValue" : 0.0,
                              "interp" : "linr"
                            },
                            "cursorOpacity" : {
                              "type" : "double",
                              "defaultValue" : 0.0,
                              "interp" : "linr"
                            }
                          },
                          "effects" : [

                          ],
                          "start" : 8094,
                          "duration" : 21,
                          "mediaStart" : 12771,
                          "mediaDuration" : 21,
                          "scalar" : 1,
                          "metadata" : {
                            "AutoAppliedSmartFocus" : "False"
                          },
                          "animationTracks" : {

                          }
                        },
                        {
                          "id" : 82,
                          "_type" : "ScreenVMFile",
                          "src" : 9,
                          "trackNumber" : 0,
                          "attributes" : {
                            "ident" : "Rec 02-08-22_002"
                          },
                          "parameters" : {
                            "sourceCrop0" : {
                              "type" : "double",
                              "defaultValue" : 0.0,
                              "interp" : "eioe"
                            },
                            "sourceCrop1" : {
                              "type" : "double",
                              "defaultValue" : 0.0,
                              "interp" : "eioe"
                            },
                            "sourceCrop2" : {
                              "type" : "double",
                              "defaultValue" : 0.0,
                              "interp" : "eioe"
                            },
                            "sourceCrop3" : {
                              "type" : "double",
                              "defaultValue" : 0.0,
                              "interp" : "eioe"
                            },
                            "geometryCrop0" : {
                              "type" : "double",
                              "defaultValue" : 0.0,
                              "interp" : "eioe"
                            },
                            "geometryCrop1" : {
                              "type" : "double",
                              "defaultValue" : 0.0,
                              "interp" : "eioe"
                            },
                            "geometryCrop2" : {
                              "type" : "double",
                              "defaultValue" : 0.0,
                              "interp" : "eioe"
                            },
                            "geometryCrop3" : {
                              "type" : "double",
                              "defaultValue" : 0.0,
                              "interp" : "eioe"
                            },
                            "cursorScale" : {
                              "type" : "double",
                              "defaultValue" : 0.0,
                              "interp" : "linr"
                            },
                            "cursorOpacity" : {
                              "type" : "double",
                              "defaultValue" : 0.0,
                              "interp" : "linr"
                            }
                          },
                          "effects" : [

                          ],
                          "start" : 8115,
                          "duration" : 123,
                          "mediaStart" : 12981,
                          "mediaDuration" : 123,
                          "scalar" : 1,
                          "metadata" : {
                            "AutoAppliedSmartFocus" : "False"
                          },
                          "animationTracks" : {

                          }
                        },
                        {
                          "id" : 83,
                          "_type" : "ScreenVMFile",
                          "src" : 9,
                          "trackNumber" : 0,
                          "attributes" : {
                            "ident" : "Rec 02-08-22_002"
                          },
                          "parameters" : {
                            "sourceCrop0" : {
                              "type" : "double",
                              "defaultValue" : 0.0,
                              "interp" : "eioe"
                            },
                            "sourceCrop1" : {
                              "type" : "double",
                              "defaultValue" : 0.0,
                              "interp" : "eioe"
                            },
                            "sourceCrop2" : {
                              "type" : "double",
                              "defaultValue" : 0.0,
                              "interp" : "eioe"
                            },
                            "sourceCrop3" : {
                              "type" : "double",
                              "defaultValue" : 0.0,
                              "interp" : "eioe"
                            },
                            "geometryCrop0" : {
                              "type" : "double",
                              "defaultValue" : 0.0,
                              "interp" : "eioe"
                            },
                            "geometryCrop1" : {
                              "type" : "double",
                              "defaultValue" : 0.0,
                              "interp" : "eioe"
                            },
                            "geometryCrop2" : {
                              "type" : "double",
                              "defaultValue" : 0.0,
                              "interp" : "eioe"
                            },
                            "geometryCrop3" : {
                              "type" : "double",
                              "defaultValue" : 0.0,
                              "interp" : "eioe"
                            },
                            "cursorScale" : {
                              "type" : "double",
                              "defaultValue" : 0.0,
                              "interp" : "linr"
                            },
                            "cursorOpacity" : {
                              "type" : "double",
                              "defaultValue" : 0.0,
                              "interp" : "linr"
                            }
                          },
                          "effects" : [

                          ],
                          "start" : 8238,
                          "duration" : 18,
                          "mediaStart" : 13196,
                          "mediaDuration" : 18,
                          "scalar" : 1,
                          "metadata" : {
                            "AutoAppliedSmartFocus" : "False"
                          },
                          "animationTracks" : {

                          }
                        },
                        {
                          "id" : 84,
                          "_type" : "ScreenVMFile",
                          "src" : 9,
                          "trackNumber" : 0,
                          "attributes" : {
                            "ident" : "Rec 02-08-22_002"
                          },
                          "parameters" : {
                            "sourceCrop0" : {
                              "type" : "double",
                              "defaultValue" : 0.0,
                              "interp" : "eioe"
                            },
                            "sourceCrop1" : {
                              "type" : "double",
                              "defaultValue" : 0.0,
                              "interp" : "eioe"
                            },
                            "sourceCrop2" : {
                              "type" : "double",
                              "defaultValue" : 0.0,
                              "interp" : "eioe"
                            },
                            "sourceCrop3" : {
                              "type" : "double",
                              "defaultValue" : 0.0,
                              "interp" : "eioe"
                            },
                            "geometryCrop0" : {
                              "type" : "double",
                              "defaultValue" : 0.0,
                              "interp" : "eioe"
                            },
                            "geometryCrop1" : {
                              "type" : "double",
                              "defaultValue" : 0.0,
                              "interp" : "eioe"
                            },
                            "geometryCrop2" : {
                              "type" : "double",
                              "defaultValue" : 0.0,
                              "interp" : "eioe"
                            },
                            "geometryCrop3" : {
                              "type" : "double",
                              "defaultValue" : 0.0,
                              "interp" : "eioe"
                            },
                            "cursorScale" : {
                              "type" : "double",
                              "defaultValue" : 0.0,
                              "interp" : "linr"
                            },
                            "cursorOpacity" : {
                              "type" : "double",
                              "defaultValue" : 0.0,
                              "interp" : "linr"
                            }
                          },
                          "effects" : [

                          ],
                          "start" : 8256,
                          "duration" : 73,
                          "mediaStart" : 13378,
                          "mediaDuration" : 73,
                          "scalar" : 1,
                          "metadata" : {
                            "AutoAppliedSmartFocus" : "False"
                          },
                          "animationTracks" : {

                          }
                        },
                        {
                          "id" : 85,
                          "_type" : "ScreenVMFile",
                          "src" : 9,
                          "trackNumber" : 0,
                          "attributes" : {
                            "ident" : "Rec 02-08-22_002"
                          },
                          "parameters" : {
                            "sourceCrop0" : {
                              "type" : "double",
                              "defaultValue" : 0.0,
                              "interp" : "eioe"
                            },
                            "sourceCrop1" : {
                              "type" : "double",
                              "defaultValue" : 0.0,
                              "interp" : "eioe"
                            },
                            "sourceCrop2" : {
                              "type" : "double",
                              "defaultValue" : 0.0,
                              "interp" : "eioe"
                            },
                            "sourceCrop3" : {
                              "type" : "double",
                              "defaultValue" : 0.0,
                              "interp" : "eioe"
                            },
                            "geometryCrop0" : {
                              "type" : "double",
                              "defaultValue" : 0.0,
                              "interp" : "eioe"
                            },
                            "geometryCrop1" : {
                              "type" : "double",
                              "defaultValue" : 0.0,
                              "interp" : "eioe"
                            },
                            "geometryCrop2" : {
                              "type" : "double",
                              "defaultValue" : 0.0,
                              "interp" : "eioe"
                            },
                            "geometryCrop3" : {
                              "type" : "double",
                              "defaultValue" : 0.0,
                              "interp" : "eioe"
                            },
                            "cursorScale" : {
                              "type" : "double",
                              "defaultValue" : 0.0,
                              "interp" : "linr"
                            },
                            "cursorOpacity" : {
                              "type" : "double",
                              "defaultValue" : 0.0,
                              "interp" : "linr"
                            }
                          },
                          "effects" : [

                          ],
                          "start" : 8329,
                          "duration" : 182,
                          "mediaStart" : 13496,
                          "mediaDuration" : 182,
                          "scalar" : 1,
                          "metadata" : {
                            "AutoAppliedSmartFocus" : "False"
                          },
                          "animationTracks" : {

                          }
                        },
                        {
                          "id" : 86,
                          "_type" : "ScreenVMFile",
                          "src" : 9,
                          "trackNumber" : 0,
                          "attributes" : {
                            "ident" : "Rec 02-08-22_002"
                          },
                          "parameters" : {
                            "sourceCrop0" : {
                              "type" : "double",
                              "defaultValue" : 0.0,
                              "interp" : "eioe"
                            },
                            "sourceCrop1" : {
                              "type" : "double",
                              "defaultValue" : 0.0,
                              "interp" : "eioe"
                            },
                            "sourceCrop2" : {
                              "type" : "double",
                              "defaultValue" : 0.0,
                              "interp" : "eioe"
                            },
                            "sourceCrop3" : {
                              "type" : "double",
                              "defaultValue" : 0.0,
                              "interp" : "eioe"
                            },
                            "geometryCrop0" : {
                              "type" : "double",
                              "defaultValue" : 0.0,
                              "interp" : "eioe"
                            },
                            "geometryCrop1" : {
                              "type" : "double",
                              "defaultValue" : 0.0,
                              "interp" : "eioe"
                            },
                            "geometryCrop2" : {
                              "type" : "double",
                              "defaultValue" : 0.0,
                              "interp" : "eioe"
                            },
                            "geometryCrop3" : {
                              "type" : "double",
                              "defaultValue" : 0.0,
                              "interp" : "eioe"
                            },
                            "cursorScale" : {
                              "type" : "double",
                              "defaultValue" : 0.0,
                              "interp" : "linr"
                            },
                            "cursorOpacity" : {
                              "type" : "double",
                              "defaultValue" : 0.0,
                              "interp" : "linr"
                            }
                          },
                          "effects" : [

                          ],
                          "start" : 8511,
                          "duration" : 105,
                          "mediaStart" : 13735,
                          "mediaDuration" : 105,
                          "scalar" : 1,
                          "metadata" : {
                            "AutoAppliedSmartFocus" : "False"
                          },
                          "animationTracks" : {

                          }
                        },
                        {
                          "id" : 87,
                          "_type" : "ScreenVMFile",
                          "src" : 9,
                          "trackNumber" : 0,
                          "attributes" : {
                            "ident" : "Rec 02-08-22_002"
                          },
                          "parameters" : {
                            "sourceCrop0" : {
                              "type" : "double",
                              "defaultValue" : 0.0,
                              "interp" : "eioe"
                            },
                            "sourceCrop1" : {
                              "type" : "double",
                              "defaultValue" : 0.0,
                              "interp" : "eioe"
                            },
                            "sourceCrop2" : {
                              "type" : "double",
                              "defaultValue" : 0.0,
                              "interp" : "eioe"
                            },
                            "sourceCrop3" : {
                              "type" : "double",
                              "defaultValue" : 0.0,
                              "interp" : "eioe"
                            },
                            "geometryCrop0" : {
                              "type" : "double",
                              "defaultValue" : 0.0,
                              "interp" : "eioe"
                            },
                            "geometryCrop1" : {
                              "type" : "double",
                              "defaultValue" : 0.0,
                              "interp" : "eioe"
                            },
                            "geometryCrop2" : {
                              "type" : "double",
                              "defaultValue" : 0.0,
                              "interp" : "eioe"
                            },
                            "geometryCrop3" : {
                              "type" : "double",
                              "defaultValue" : 0.0,
                              "interp" : "eioe"
                            },
                            "cursorScale" : {
                              "type" : "double",
                              "defaultValue" : 0.0,
                              "interp" : "linr"
                            },
                            "cursorOpacity" : {
                              "type" : "double",
                              "defaultValue" : 0.0,
                              "interp" : "linr"
                            }
                          },
                          "effects" : [

                          ],
                          "start" : 8616,
                          "duration" : 223,
                          "mediaStart" : 13915,
                          "mediaDuration" : 223,
                          "scalar" : 1,
                          "metadata" : {
                            "AutoAppliedSmartFocus" : "False"
                          },
                          "animationTracks" : {

                          }
                        },
                        {
                          "id" : 88,
                          "_type" : "ScreenVMFile",
                          "src" : 9,
                          "trackNumber" : 0,
                          "attributes" : {
                            "ident" : "Rec 02-08-22_002"
                          },
                          "parameters" : {
                            "sourceCrop0" : {
                              "type" : "double",
                              "defaultValue" : 0.0,
                              "interp" : "eioe"
                            },
                            "sourceCrop1" : {
                              "type" : "double",
                              "defaultValue" : 0.0,
                              "interp" : "eioe"
                            },
                            "sourceCrop2" : {
                              "type" : "double",
                              "defaultValue" : 0.0,
                              "interp" : "eioe"
                            },
                            "sourceCrop3" : {
                              "type" : "double",
                              "defaultValue" : 0.0,
                              "interp" : "eioe"
                            },
                            "geometryCrop0" : {
                              "type" : "double",
                              "defaultValue" : 0.0,
                              "interp" : "eioe"
                            },
                            "geometryCrop1" : {
                              "type" : "double",
                              "defaultValue" : 0.0,
                              "interp" : "eioe"
                            },
                            "geometryCrop2" : {
                              "type" : "double",
                              "defaultValue" : 0.0,
                              "interp" : "eioe"
                            },
                            "geometryCrop3" : {
                              "type" : "double",
                              "defaultValue" : 0.0,
                              "interp" : "eioe"
                            },
                            "cursorScale" : {
                              "type" : "double",
                              "defaultValue" : 0.0,
                              "interp" : "linr"
                            },
                            "cursorOpacity" : {
                              "type" : "double",
                              "defaultValue" : 0.0,
                              "interp" : "linr"
                            }
                          },
                          "effects" : [

                          ],
                          "start" : 8839,
                          "duration" : 144,
                          "mediaStart" : 14280,
                          "mediaDuration" : 144,
                          "scalar" : 1,
                          "metadata" : {
                            "AutoAppliedSmartFocus" : "False"
                          },
                          "animationTracks" : {

                          }
                        },
                        {
                          "id" : 89,
                          "_type" : "ScreenVMFile",
                          "src" : 9,
                          "trackNumber" : 0,
                          "attributes" : {
                            "ident" : "Rec 02-08-22_002"
                          },
                          "parameters" : {
                            "sourceCrop0" : {
                              "type" : "double",
                              "defaultValue" : 0.0,
                              "interp" : "eioe"
                            },
                            "sourceCrop1" : {
                              "type" : "double",
                              "defaultValue" : 0.0,
                              "interp" : "eioe"
                            },
                            "sourceCrop2" : {
                              "type" : "double",
                              "defaultValue" : 0.0,
                              "interp" : "eioe"
                            },
                            "sourceCrop3" : {
                              "type" : "double",
                              "defaultValue" : 0.0,
                              "interp" : "eioe"
                            },
                            "geometryCrop0" : {
                              "type" : "double",
                              "defaultValue" : 0.0,
                              "interp" : "eioe"
                            },
                            "geometryCrop1" : {
                              "type" : "double",
                              "defaultValue" : 0.0,
                              "interp" : "eioe"
                            },
                            "geometryCrop2" : {
                              "type" : "double",
                              "defaultValue" : 0.0,
                              "interp" : "eioe"
                            },
                            "geometryCrop3" : {
                              "type" : "double",
                              "defaultValue" : 0.0,
                              "interp" : "eioe"
                            },
                            "cursorScale" : {
                              "type" : "double",
                              "defaultValue" : 0.0,
                              "interp" : "linr"
                            },
                            "cursorOpacity" : {
                              "type" : "double",
                              "defaultValue" : 0.0,
                              "interp" : "linr"
                            }
                          },
                          "effects" : [

                          ],
                          "start" : 8983,
                          "duration" : 79,
                          "mediaStart" : 14580,
                          "mediaDuration" : 79,
                          "scalar" : 1,
                          "metadata" : {
                            "AutoAppliedSmartFocus" : "False"
                          },
                          "animationTracks" : {

                          }
                        }
                    ],
                    "effects" : [

                    ],
                    "start" : 2021,
                    "duration" : 9062,
                    "mediaStart" : 0,
                    "mediaDuration" : 9062,
                    "scalar" : 1,
                    "metadata" : {
                      "AutoAppliedSmartFocus" : "False",
                      "clipSpeedAttribute" : false
                    },
                    "animationTracks" : {

                    }
                  },
                  {
                    "id" : 90,
                    "_type" : "StitchedMedia",
                    "minMediaStart" : 0,
                    "attributes" : {
                      "ident" : "Rec 02-08-22_003",
                      "gain" : 1.0,
                      "mixToMono" : false
                    },
                    "parameters" : {
                      "scale0" : 1.2,
                      "scale1" : 1.2,
                      "sourceCrop0" : 0.0,
                      "sourceCrop1" : 0.0,
                      "sourceCrop2" : 0.0,
                      "sourceCrop3" : 0.0,
                      "geometryCrop0" : 0.0,
                      "geometryCrop1" : 0.0,
                      "geometryCrop2" : 0.0,
                      "geometryCrop3" : 0.0,
                      "cursorOpacity" : 1.0,
                      "cursorScale" : 1.0
                    },
                    "medias" : [
                        {
                          "id" : 91,
                          "_type" : "ScreenVMFile",
                          "src" : 10,
                          "trackNumber" : 0,
                          "attributes" : {
                            "ident" : "Rec 02-08-22_003"
                          },
                          "parameters" : {
                            "sourceCrop0" : {
                              "type" : "double",
                              "defaultValue" : 0.0,
                              "interp" : "eioe"
                            },
                            "sourceCrop1" : {
                              "type" : "double",
                              "defaultValue" : 0.0,
                              "interp" : "eioe"
                            },
                            "sourceCrop2" : {
                              "type" : "double",
                              "defaultValue" : 0.0,
                              "interp" : "eioe"
                            },
                            "sourceCrop3" : {
                              "type" : "double",
                              "defaultValue" : 0.0,
                              "interp" : "eioe"
                            },
                            "geometryCrop0" : {
                              "type" : "double",
                              "defaultValue" : 0.0,
                              "interp" : "eioe"
                            },
                            "geometryCrop1" : {
                              "type" : "double",
                              "defaultValue" : 0.0,
                              "interp" : "eioe"
                            },
                            "geometryCrop2" : {
                              "type" : "double",
                              "defaultValue" : 0.0,
                              "interp" : "eioe"
                            },
                            "geometryCrop3" : {
                              "type" : "double",
                              "defaultValue" : 0.0,
                              "interp" : "eioe"
                            },
                            "cursorScale" : {
                              "type" : "double",
                              "defaultValue" : 0.0,
                              "interp" : "linr"
                            },
                            "cursorOpacity" : {
                              "type" : "double",
                              "defaultValue" : 0.0,
                              "interp" : "linr"
                            }
                          },
                          "effects" : [

                          ],
                          "start" : 0,
                          "duration" : 98,
                          "mediaStart" : 0,
                          "mediaDuration" : 98,
                          "scalar" : 1,
                          "metadata" : {
                            "AutoAppliedSmartFocus" : "False"
                          },
                          "animationTracks" : {

                          }
                        },
                        {
                          "id" : 92,
                          "_type" : "ScreenVMFile",
                          "src" : 10,
                          "trackNumber" : 0,
                          "attributes" : {
                            "ident" : "Rec 02-08-22_003"
                          },
                          "parameters" : {
                            "sourceCrop0" : {
                              "type" : "double",
                              "defaultValue" : 0.0,
                              "interp" : "eioe"
                            },
                            "sourceCrop1" : {
                              "type" : "double",
                              "defaultValue" : 0.0,
                              "interp" : "eioe"
                            },
                            "sourceCrop2" : {
                              "type" : "double",
                              "defaultValue" : 0.0,
                              "interp" : "eioe"
                            },
                            "sourceCrop3" : {
                              "type" : "double",
                              "defaultValue" : 0.0,
                              "interp" : "eioe"
                            },
                            "geometryCrop0" : {
                              "type" : "double",
                              "defaultValue" : 0.0,
                              "interp" : "eioe"
                            },
                            "geometryCrop1" : {
                              "type" : "double",
                              "defaultValue" : 0.0,
                              "interp" : "eioe"
                            },
                            "geometryCrop2" : {
                              "type" : "double",
                              "defaultValue" : 0.0,
                              "interp" : "eioe"
                            },
                            "geometryCrop3" : {
                              "type" : "double",
                              "defaultValue" : 0.0,
                              "interp" : "eioe"
                            },
                            "cursorScale" : {
                              "type" : "double",
                              "defaultValue" : 0.0,
                              "interp" : "linr"
                            },
                            "cursorOpacity" : {
                              "type" : "double",
                              "defaultValue" : 0.0,
                              "interp" : "linr"
                            }
                          },
                          "effects" : [

                          ],
                          "start" : 98,
                          "duration" : 42,
                          "mediaStart" : 192,
                          "mediaDuration" : 42,
                          "scalar" : 1,
                          "metadata" : {
                            "AutoAppliedSmartFocus" : "False"
                          },
                          "animationTracks" : {

                          }
                        },
                        {
                          "id" : 93,
                          "_type" : "ScreenVMFile",
                          "src" : 10,
                          "trackNumber" : 0,
                          "attributes" : {
                            "ident" : "Rec 02-08-22_003"
                          },
                          "parameters" : {
                            "sourceCrop0" : {
                              "type" : "double",
                              "defaultValue" : 0.0,
                              "interp" : "eioe"
                            },
                            "sourceCrop1" : {
                              "type" : "double",
                              "defaultValue" : 0.0,
                              "interp" : "eioe"
                            },
                            "sourceCrop2" : {
                              "type" : "double",
                              "defaultValue" : 0.0,
                              "interp" : "eioe"
                            },
                            "sourceCrop3" : {
                              "type" : "double",
                              "defaultValue" : 0.0,
                              "interp" : "eioe"
                            },
                            "geometryCrop0" : {
                              "type" : "double",
                              "defaultValue" : 0.0,
                              "interp" : "eioe"
                            },
                            "geometryCrop1" : {
                              "type" : "double",
                              "defaultValue" : 0.0,
                              "interp" : "eioe"
                            },
                            "geometryCrop2" : {
                              "type" : "double",
                              "defaultValue" : 0.0,
                              "interp" : "eioe"
                            },
                            "geometryCrop3" : {
                              "type" : "double",
                              "defaultValue" : 0.0,
                              "interp" : "eioe"
                            },
                            "cursorScale" : {
                              "type" : "double",
                              "defaultValue" : 0.0,
                              "interp" : "linr"
                            },
                            "cursorOpacity" : {
                              "type" : "double",
                              "defaultValue" : 0.0,
                              "interp" : "linr"
                            }
                          },
                          "effects" : [

                          ],
                          "start" : 140,
                          "duration" : 104,
                          "mediaStart" : 257,
                          "mediaDuration" : 104,
                          "scalar" : 1,
                          "metadata" : {
                            "AutoAppliedSmartFocus" : "False"
                          },
                          "animationTracks" : {

                          }
                        },
                        {
                          "id" : 94,
                          "_type" : "ScreenVMFile",
                          "src" : 10,
                          "trackNumber" : 0,
                          "attributes" : {
                            "ident" : "Rec 02-08-22_003"
                          },
                          "parameters" : {
                            "sourceCrop0" : {
                              "type" : "double",
                              "defaultValue" : 0.0,
                              "interp" : "eioe"
                            },
                            "sourceCrop1" : {
                              "type" : "double",
                              "defaultValue" : 0.0,
                              "interp" : "eioe"
                            },
                            "sourceCrop2" : {
                              "type" : "double",
                              "defaultValue" : 0.0,
                              "interp" : "eioe"
                            },
                            "sourceCrop3" : {
                              "type" : "double",
                              "defaultValue" : 0.0,
                              "interp" : "eioe"
                            },
                            "geometryCrop0" : {
                              "type" : "double",
                              "defaultValue" : 0.0,
                              "interp" : "eioe"
                            },
                            "geometryCrop1" : {
                              "type" : "double",
                              "defaultValue" : 0.0,
                              "interp" : "eioe"
                            },
                            "geometryCrop2" : {
                              "type" : "double",
                              "defaultValue" : 0.0,
                              "interp" : "eioe"
                            },
                            "geometryCrop3" : {
                              "type" : "double",
                              "defaultValue" : 0.0,
                              "interp" : "eioe"
                            },
                            "cursorScale" : {
                              "type" : "double",
                              "defaultValue" : 0.0,
                              "interp" : "linr"
                            },
                            "cursorOpacity" : {
                              "type" : "double",
                              "defaultValue" : 0.0,
                              "interp" : "linr"
                            }
                          },
                          "effects" : [

                          ],
                          "start" : 244,
                          "duration" : 17,
                          "mediaStart" : 392,
                          "mediaDuration" : 17,
                          "scalar" : 1,
                          "metadata" : {
                            "AutoAppliedSmartFocus" : "False"
                          },
                          "animationTracks" : {

                          }
                        },
                        {
                          "id" : 95,
                          "_type" : "ScreenVMFile",
                          "src" : 10,
                          "trackNumber" : 0,
                          "attributes" : {
                            "ident" : "Rec 02-08-22_003"
                          },
                          "parameters" : {
                            "sourceCrop0" : {
                              "type" : "double",
                              "defaultValue" : 0.0,
                              "interp" : "eioe"
                            },
                            "sourceCrop1" : {
                              "type" : "double",
                              "defaultValue" : 0.0,
                              "interp" : "eioe"
                            },
                            "sourceCrop2" : {
                              "type" : "double",
                              "defaultValue" : 0.0,
                              "interp" : "eioe"
                            },
                            "sourceCrop3" : {
                              "type" : "double",
                              "defaultValue" : 0.0,
                              "interp" : "eioe"
                            },
                            "geometryCrop0" : {
                              "type" : "double",
                              "defaultValue" : 0.0,
                              "interp" : "eioe"
                            },
                            "geometryCrop1" : {
                              "type" : "double",
                              "defaultValue" : 0.0,
                              "interp" : "eioe"
                            },
                            "geometryCrop2" : {
                              "type" : "double",
                              "defaultValue" : 0.0,
                              "interp" : "eioe"
                            },
                            "geometryCrop3" : {
                              "type" : "double",
                              "defaultValue" : 0.0,
                              "interp" : "eioe"
                            },
                            "cursorScale" : {
                              "type" : "double",
                              "defaultValue" : 0.0,
                              "interp" : "linr"
                            },
                            "cursorOpacity" : {
                              "type" : "double",
                              "defaultValue" : 0.0,
                              "interp" : "linr"
                            }
                          },
                          "effects" : [

                          ],
                          "start" : 261,
                          "duration" : 128,
                          "mediaStart" : 1154,
                          "mediaDuration" : 128,
                          "scalar" : 1,
                          "metadata" : {
                            "AutoAppliedSmartFocus" : "False"
                          },
                          "animationTracks" : {

                          }
                        },
                        {
                          "id" : 96,
                          "_type" : "ScreenVMFile",
                          "src" : 10,
                          "trackNumber" : 0,
                          "attributes" : {
                            "ident" : "Rec 02-08-22_003"
                          },
                          "parameters" : {
                            "sourceCrop0" : {
                              "type" : "double",
                              "defaultValue" : 0.0,
                              "interp" : "eioe"
                            },
                            "sourceCrop1" : {
                              "type" : "double",
                              "defaultValue" : 0.0,
                              "interp" : "eioe"
                            },
                            "sourceCrop2" : {
                              "type" : "double",
                              "defaultValue" : 0.0,
                              "interp" : "eioe"
                            },
                            "sourceCrop3" : {
                              "type" : "double",
                              "defaultValue" : 0.0,
                              "interp" : "eioe"
                            },
                            "geometryCrop0" : {
                              "type" : "double",
                              "defaultValue" : 0.0,
                              "interp" : "eioe"
                            },
                            "geometryCrop1" : {
                              "type" : "double",
                              "defaultValue" : 0.0,
                              "interp" : "eioe"
                            },
                            "geometryCrop2" : {
                              "type" : "double",
                              "defaultValue" : 0.0,
                              "interp" : "eioe"
                            },
                            "geometryCrop3" : {
                              "type" : "double",
                              "defaultValue" : 0.0,
                              "interp" : "eioe"
                            },
                            "cursorScale" : {
                              "type" : "double",
                              "defaultValue" : 0.0,
                              "interp" : "linr"
                            },
                            "cursorOpacity" : {
                              "type" : "double",
                              "defaultValue" : 0.0,
                              "interp" : "linr"
                            }
                          },
                          "effects" : [

                          ],
                          "start" : 389,
                          "duration" : 12,
                          "mediaStart" : 1316,
                          "mediaDuration" : 12,
                          "scalar" : 1,
                          "metadata" : {
                            "AutoAppliedSmartFocus" : "False"
                          },
                          "animationTracks" : {

                          }
                        },
                        {
                          "id" : 97,
                          "_type" : "ScreenVMFile",
                          "src" : 10,
                          "trackNumber" : 0,
                          "attributes" : {
                            "ident" : "Rec 02-08-22_003"
                          },
                          "parameters" : {
                            "sourceCrop0" : {
                              "type" : "double",
                              "defaultValue" : 0.0,
                              "interp" : "eioe"
                            },
                            "sourceCrop1" : {
                              "type" : "double",
                              "defaultValue" : 0.0,
                              "interp" : "eioe"
                            },
                            "sourceCrop2" : {
                              "type" : "double",
                              "defaultValue" : 0.0,
                              "interp" : "eioe"
                            },
                            "sourceCrop3" : {
                              "type" : "double",
                              "defaultValue" : 0.0,
                              "interp" : "eioe"
                            },
                            "geometryCrop0" : {
                              "type" : "double",
                              "defaultValue" : 0.0,
                              "interp" : "eioe"
                            },
                            "geometryCrop1" : {
                              "type" : "double",
                              "defaultValue" : 0.0,
                              "interp" : "eioe"
                            },
                            "geometryCrop2" : {
                              "type" : "double",
                              "defaultValue" : 0.0,
                              "interp" : "eioe"
                            },
                            "geometryCrop3" : {
                              "type" : "double",
                              "defaultValue" : 0.0,
                              "interp" : "eioe"
                            },
                            "cursorScale" : {
                              "type" : "double",
                              "defaultValue" : 0.0,
                              "interp" : "linr"
                            },
                            "cursorOpacity" : {
                              "type" : "double",
                              "defaultValue" : 0.0,
                              "interp" : "linr"
                            }
                          },
                          "effects" : [

                          ],
                          "start" : 401,
                          "duration" : 95,
                          "mediaStart" : 1363,
                          "mediaDuration" : 95,
                          "scalar" : 1,
                          "metadata" : {
                            "AutoAppliedSmartFocus" : "False"
                          },
                          "animationTracks" : {

                          }
                        },
                        {
                          "id" : 98,
                          "_type" : "ScreenVMFile",
                          "src" : 10,
                          "trackNumber" : 0,
                          "attributes" : {
                            "ident" : "Rec 02-08-22_003"
                          },
                          "parameters" : {
                            "sourceCrop0" : {
                              "type" : "double",
                              "defaultValue" : 0.0,
                              "interp" : "eioe"
                            },
                            "sourceCrop1" : {
                              "type" : "double",
                              "defaultValue" : 0.0,
                              "interp" : "eioe"
                            },
                            "sourceCrop2" : {
                              "type" : "double",
                              "defaultValue" : 0.0,
                              "interp" : "eioe"
                            },
                            "sourceCrop3" : {
                              "type" : "double",
                              "defaultValue" : 0.0,
                              "interp" : "eioe"
                            },
                            "geometryCrop0" : {
                              "type" : "double",
                              "defaultValue" : 0.0,
                              "interp" : "eioe"
                            },
                            "geometryCrop1" : {
                              "type" : "double",
                              "defaultValue" : 0.0,
                              "interp" : "eioe"
                            },
                            "geometryCrop2" : {
                              "type" : "double",
                              "defaultValue" : 0.0,
                              "interp" : "eioe"
                            },
                            "geometryCrop3" : {
                              "type" : "double",
                              "defaultValue" : 0.0,
                              "interp" : "eioe"
                            },
                            "cursorScale" : {
                              "type" : "double",
                              "defaultValue" : 0.0,
                              "interp" : "linr"
                            },
                            "cursorOpacity" : {
                              "type" : "double",
                              "defaultValue" : 0.0,
                              "interp" : "linr"
                            }
                          },
                          "effects" : [

                          ],
                          "start" : 496,
                          "duration" : 15,
                          "mediaStart" : 1513,
                          "mediaDuration" : 15,
                          "scalar" : 1,
                          "metadata" : {
                            "AutoAppliedSmartFocus" : "False"
                          },
                          "animationTracks" : {

                          }
                        },
                        {
                          "id" : 99,
                          "_type" : "ScreenVMFile",
                          "src" : 10,
                          "trackNumber" : 0,
                          "attributes" : {
                            "ident" : "Rec 02-08-22_003"
                          },
                          "parameters" : {
                            "sourceCrop0" : {
                              "type" : "double",
                              "defaultValue" : 0.0,
                              "interp" : "eioe"
                            },
                            "sourceCrop1" : {
                              "type" : "double",
                              "defaultValue" : 0.0,
                              "interp" : "eioe"
                            },
                            "sourceCrop2" : {
                              "type" : "double",
                              "defaultValue" : 0.0,
                              "interp" : "eioe"
                            },
                            "sourceCrop3" : {
                              "type" : "double",
                              "defaultValue" : 0.0,
                              "interp" : "eioe"
                            },
                            "geometryCrop0" : {
                              "type" : "double",
                              "defaultValue" : 0.0,
                              "interp" : "eioe"
                            },
                            "geometryCrop1" : {
                              "type" : "double",
                              "defaultValue" : 0.0,
                              "interp" : "eioe"
                            },
                            "geometryCrop2" : {
                              "type" : "double",
                              "defaultValue" : 0.0,
                              "interp" : "eioe"
                            },
                            "geometryCrop3" : {
                              "type" : "double",
                              "defaultValue" : 0.0,
                              "interp" : "eioe"
                            },
                            "cursorScale" : {
                              "type" : "double",
                              "defaultValue" : 0.0,
                              "interp" : "linr"
                            },
                            "cursorOpacity" : {
                              "type" : "double",
                              "defaultValue" : 0.0,
                              "interp" : "linr"
                            }
                          },
                          "effects" : [

                          ],
                          "start" : 511,
                          "duration" : 486,
                          "mediaStart" : 1984,
                          "mediaDuration" : 486,
                          "scalar" : 1,
                          "metadata" : {
                            "AutoAppliedSmartFocus" : "False"
                          },
                          "animationTracks" : {

                          }
                        },
                        {
                          "id" : 100,
                          "_type" : "ScreenVMFile",
                          "src" : 10,
                          "trackNumber" : 0,
                          "attributes" : {
                            "ident" : "Rec 02-08-22_003"
                          },
                          "parameters" : {
                            "sourceCrop0" : {
                              "type" : "double",
                              "defaultValue" : 0.0,
                              "interp" : "eioe"
                            },
                            "sourceCrop1" : {
                              "type" : "double",
                              "defaultValue" : 0.0,
                              "interp" : "eioe"
                            },
                            "sourceCrop2" : {
                              "type" : "double",
                              "defaultValue" : 0.0,
                              "interp" : "eioe"
                            },
                            "sourceCrop3" : {
                              "type" : "double",
                              "defaultValue" : 0.0,
                              "interp" : "eioe"
                            },
                            "geometryCrop0" : {
                              "type" : "double",
                              "defaultValue" : 0.0,
                              "interp" : "eioe"
                            },
                            "geometryCrop1" : {
                              "type" : "double",
                              "defaultValue" : 0.0,
                              "interp" : "eioe"
                            },
                            "geometryCrop2" : {
                              "type" : "double",
                              "defaultValue" : 0.0,
                              "interp" : "eioe"
                            },
                            "geometryCrop3" : {
                              "type" : "double",
                              "defaultValue" : 0.0,
                              "interp" : "eioe"
                            },
                            "cursorScale" : {
                              "type" : "double",
                              "defaultValue" : 0.0,
                              "interp" : "linr"
                            },
                            "cursorOpacity" : {
                              "type" : "double",
                              "defaultValue" : 0.0,
                              "interp" : "linr"
                            }
                          },
                          "effects" : [

                          ],
                          "start" : 997,
                          "duration" : 37,
                          "mediaStart" : 2506,
                          "mediaDuration" : 37,
                          "scalar" : 1,
                          "metadata" : {
                            "AutoAppliedSmartFocus" : "False"
                          },
                          "animationTracks" : {

                          }
                        },
                        {
                          "id" : 101,
                          "_type" : "ScreenVMFile",
                          "src" : 10,
                          "trackNumber" : 0,
                          "attributes" : {
                            "ident" : "Rec 02-08-22_003"
                          },
                          "parameters" : {
                            "sourceCrop0" : {
                              "type" : "double",
                              "defaultValue" : 0.0,
                              "interp" : "eioe"
                            },
                            "sourceCrop1" : {
                              "type" : "double",
                              "defaultValue" : 0.0,
                              "interp" : "eioe"
                            },
                            "sourceCrop2" : {
                              "type" : "double",
                              "defaultValue" : 0.0,
                              "interp" : "eioe"
                            },
                            "sourceCrop3" : {
                              "type" : "double",
                              "defaultValue" : 0.0,
                              "interp" : "eioe"
                            },
                            "geometryCrop0" : {
                              "type" : "double",
                              "defaultValue" : 0.0,
                              "interp" : "eioe"
                            },
                            "geometryCrop1" : {
                              "type" : "double",
                              "defaultValue" : 0.0,
                              "interp" : "eioe"
                            },
                            "geometryCrop2" : {
                              "type" : "double",
                              "defaultValue" : 0.0,
                              "interp" : "eioe"
                            },
                            "geometryCrop3" : {
                              "type" : "double",
                              "defaultValue" : 0.0,
                              "interp" : "eioe"
                            },
                            "cursorScale" : {
                              "type" : "double",
                              "defaultValue" : 0.0,
                              "interp" : "linr"
                            },
                            "cursorOpacity" : {
                              "type" : "double",
                              "defaultValue" : 0.0,
                              "interp" : "linr"
                            }
                          },
                          "effects" : [

                          ],
                          "start" : 1034,
                          "duration" : 71,
                          "mediaStart" : 2594,
                          "mediaDuration" : 71,
                          "scalar" : 1,
                          "metadata" : {
                            "AutoAppliedSmartFocus" : "False"
                          },
                          "animationTracks" : {

                          }
                        },
                        {
                          "id" : 102,
                          "_type" : "ScreenVMFile",
                          "src" : 10,
                          "trackNumber" : 0,
                          "attributes" : {
                            "ident" : "Rec 02-08-22_003"
                          },
                          "parameters" : {
                            "sourceCrop0" : {
                              "type" : "double",
                              "defaultValue" : 0.0,
                              "interp" : "eioe"
                            },
                            "sourceCrop1" : {
                              "type" : "double",
                              "defaultValue" : 0.0,
                              "interp" : "eioe"
                            },
                            "sourceCrop2" : {
                              "type" : "double",
                              "defaultValue" : 0.0,
                              "interp" : "eioe"
                            },
                            "sourceCrop3" : {
                              "type" : "double",
                              "defaultValue" : 0.0,
                              "interp" : "eioe"
                            },
                            "geometryCrop0" : {
                              "type" : "double",
                              "defaultValue" : 0.0,
                              "interp" : "eioe"
                            },
                            "geometryCrop1" : {
                              "type" : "double",
                              "defaultValue" : 0.0,
                              "interp" : "eioe"
                            },
                            "geometryCrop2" : {
                              "type" : "double",
                              "defaultValue" : 0.0,
                              "interp" : "eioe"
                            },
                            "geometryCrop3" : {
                              "type" : "double",
                              "defaultValue" : 0.0,
                              "interp" : "eioe"
                            },
                            "cursorScale" : {
                              "type" : "double",
                              "defaultValue" : 0.0,
                              "interp" : "linr"
                            },
                            "cursorOpacity" : {
                              "type" : "double",
                              "defaultValue" : 0.0,
                              "interp" : "linr"
                            }
                          },
                          "effects" : [

                          ],
                          "start" : 1105,
                          "duration" : 187,
                          "mediaStart" : 3036,
                          "mediaDuration" : 187,
                          "scalar" : 1,
                          "metadata" : {
                            "AutoAppliedSmartFocus" : "False"
                          },
                          "animationTracks" : {

                          }
                        },
                        {
                          "id" : 103,
                          "_type" : "ScreenVMFile",
                          "src" : 10,
                          "trackNumber" : 0,
                          "attributes" : {
                            "ident" : "Rec 02-08-22_003"
                          },
                          "parameters" : {
                            "sourceCrop0" : {
                              "type" : "double",
                              "defaultValue" : 0.0,
                              "interp" : "eioe"
                            },
                            "sourceCrop1" : {
                              "type" : "double",
                              "defaultValue" : 0.0,
                              "interp" : "eioe"
                            },
                            "sourceCrop2" : {
                              "type" : "double",
                              "defaultValue" : 0.0,
                              "interp" : "eioe"
                            },
                            "sourceCrop3" : {
                              "type" : "double",
                              "defaultValue" : 0.0,
                              "interp" : "eioe"
                            },
                            "geometryCrop0" : {
                              "type" : "double",
                              "defaultValue" : 0.0,
                              "interp" : "eioe"
                            },
                            "geometryCrop1" : {
                              "type" : "double",
                              "defaultValue" : 0.0,
                              "interp" : "eioe"
                            },
                            "geometryCrop2" : {
                              "type" : "double",
                              "defaultValue" : 0.0,
                              "interp" : "eioe"
                            },
                            "geometryCrop3" : {
                              "type" : "double",
                              "defaultValue" : 0.0,
                              "interp" : "eioe"
                            },
                            "cursorScale" : {
                              "type" : "double",
                              "defaultValue" : 0.0,
                              "interp" : "linr"
                            },
                            "cursorOpacity" : {
                              "type" : "double",
                              "defaultValue" : 0.0,
                              "interp" : "linr"
                            }
                          },
                          "effects" : [

                          ],
                          "start" : 1292,
                          "duration" : 136,
                          "mediaStart" : 3255,
                          "mediaDuration" : 136,
                          "scalar" : 1,
                          "metadata" : {
                            "AutoAppliedSmartFocus" : "False"
                          },
                          "animationTracks" : {

                          }
                        },
                        {
                          "id" : 104,
                          "_type" : "ScreenVMFile",
                          "src" : 10,
                          "trackNumber" : 0,
                          "attributes" : {
                            "ident" : "Rec 02-08-22_003"
                          },
                          "parameters" : {
                            "sourceCrop0" : {
                              "type" : "double",
                              "defaultValue" : 0.0,
                              "interp" : "eioe"
                            },
                            "sourceCrop1" : {
                              "type" : "double",
                              "defaultValue" : 0.0,
                              "interp" : "eioe"
                            },
                            "sourceCrop2" : {
                              "type" : "double",
                              "defaultValue" : 0.0,
                              "interp" : "eioe"
                            },
                            "sourceCrop3" : {
                              "type" : "double",
                              "defaultValue" : 0.0,
                              "interp" : "eioe"
                            },
                            "geometryCrop0" : {
                              "type" : "double",
                              "defaultValue" : 0.0,
                              "interp" : "eioe"
                            },
                            "geometryCrop1" : {
                              "type" : "double",
                              "defaultValue" : 0.0,
                              "interp" : "eioe"
                            },
                            "geometryCrop2" : {
                              "type" : "double",
                              "defaultValue" : 0.0,
                              "interp" : "eioe"
                            },
                            "geometryCrop3" : {
                              "type" : "double",
                              "defaultValue" : 0.0,
                              "interp" : "eioe"
                            },
                            "cursorScale" : {
                              "type" : "double",
                              "defaultValue" : 0.0,
                              "interp" : "linr"
                            },
                            "cursorOpacity" : {
                              "type" : "double",
                              "defaultValue" : 0.0,
                              "interp" : "linr"
                            }
                          },
                          "effects" : [

                          ],
                          "start" : 1428,
                          "duration" : 76,
                          "mediaStart" : 3438,
                          "mediaDuration" : 76,
                          "scalar" : 1,
                          "metadata" : {
                            "AutoAppliedSmartFocus" : "False"
                          },
                          "animationTracks" : {

                          }
                        },
                        {
                          "id" : 105,
                          "_type" : "ScreenVMFile",
                          "src" : 10,
                          "trackNumber" : 0,
                          "attributes" : {
                            "ident" : "Rec 02-08-22_003"
                          },
                          "parameters" : {
                            "sourceCrop0" : {
                              "type" : "double",
                              "defaultValue" : 0.0,
                              "interp" : "eioe"
                            },
                            "sourceCrop1" : {
                              "type" : "double",
                              "defaultValue" : 0.0,
                              "interp" : "eioe"
                            },
                            "sourceCrop2" : {
                              "type" : "double",
                              "defaultValue" : 0.0,
                              "interp" : "eioe"
                            },
                            "sourceCrop3" : {
                              "type" : "double",
                              "defaultValue" : 0.0,
                              "interp" : "eioe"
                            },
                            "geometryCrop0" : {
                              "type" : "double",
                              "defaultValue" : 0.0,
                              "interp" : "eioe"
                            },
                            "geometryCrop1" : {
                              "type" : "double",
                              "defaultValue" : 0.0,
                              "interp" : "eioe"
                            },
                            "geometryCrop2" : {
                              "type" : "double",
                              "defaultValue" : 0.0,
                              "interp" : "eioe"
                            },
                            "geometryCrop3" : {
                              "type" : "double",
                              "defaultValue" : 0.0,
                              "interp" : "eioe"
                            },
                            "cursorScale" : {
                              "type" : "double",
                              "defaultValue" : 0.0,
                              "interp" : "linr"
                            },
                            "cursorOpacity" : {
                              "type" : "double",
                              "defaultValue" : 0.0,
                              "interp" : "linr"
                            }
                          },
                          "effects" : [

                          ],
                          "start" : 1504,
                          "duration" : 30,
                          "mediaStart" : 3568,
                          "mediaDuration" : 30,
                          "scalar" : 1,
                          "metadata" : {
                            "AutoAppliedSmartFocus" : "False"
                          },
                          "animationTracks" : {

                          }
                        },
                        {
                          "id" : 106,
                          "_type" : "ScreenVMFile",
                          "src" : 10,
                          "trackNumber" : 0,
                          "attributes" : {
                            "ident" : "Rec 02-08-22_003"
                          },
                          "parameters" : {
                            "sourceCrop0" : {
                              "type" : "double",
                              "defaultValue" : 0.0,
                              "interp" : "eioe"
                            },
                            "sourceCrop1" : {
                              "type" : "double",
                              "defaultValue" : 0.0,
                              "interp" : "eioe"
                            },
                            "sourceCrop2" : {
                              "type" : "double",
                              "defaultValue" : 0.0,
                              "interp" : "eioe"
                            },
                            "sourceCrop3" : {
                              "type" : "double",
                              "defaultValue" : 0.0,
                              "interp" : "eioe"
                            },
                            "geometryCrop0" : {
                              "type" : "double",
                              "defaultValue" : 0.0,
                              "interp" : "eioe"
                            },
                            "geometryCrop1" : {
                              "type" : "double",
                              "defaultValue" : 0.0,
                              "interp" : "eioe"
                            },
                            "geometryCrop2" : {
                              "type" : "double",
                              "defaultValue" : 0.0,
                              "interp" : "eioe"
                            },
                            "geometryCrop3" : {
                              "type" : "double",
                              "defaultValue" : 0.0,
                              "interp" : "eioe"
                            },
                            "cursorScale" : {
                              "type" : "double",
                              "defaultValue" : 0.0,
                              "interp" : "linr"
                            },
                            "cursorOpacity" : {
                              "type" : "double",
                              "defaultValue" : 0.0,
                              "interp" : "linr"
                            }
                          },
                          "effects" : [

                          ],
                          "start" : 1534,
                          "duration" : 67,
                          "mediaStart" : 3620,
                          "mediaDuration" : 67,
                          "scalar" : 1,
                          "metadata" : {
                            "AutoAppliedSmartFocus" : "False"
                          },
                          "animationTracks" : {

                          }
                        },
                        {
                          "id" : 107,
                          "_type" : "ScreenVMFile",
                          "src" : 10,
                          "trackNumber" : 0,
                          "attributes" : {
                            "ident" : "Rec 02-08-22_003"
                          },
                          "parameters" : {
                            "sourceCrop0" : {
                              "type" : "double",
                              "defaultValue" : 0.0,
                              "interp" : "eioe"
                            },
                            "sourceCrop1" : {
                              "type" : "double",
                              "defaultValue" : 0.0,
                              "interp" : "eioe"
                            },
                            "sourceCrop2" : {
                              "type" : "double",
                              "defaultValue" : 0.0,
                              "interp" : "eioe"
                            },
                            "sourceCrop3" : {
                              "type" : "double",
                              "defaultValue" : 0.0,
                              "interp" : "eioe"
                            },
                            "geometryCrop0" : {
                              "type" : "double",
                              "defaultValue" : 0.0,
                              "interp" : "eioe"
                            },
                            "geometryCrop1" : {
                              "type" : "double",
                              "defaultValue" : 0.0,
                              "interp" : "eioe"
                            },
                            "geometryCrop2" : {
                              "type" : "double",
                              "defaultValue" : 0.0,
                              "interp" : "eioe"
                            },
                            "geometryCrop3" : {
                              "type" : "double",
                              "defaultValue" : 0.0,
                              "interp" : "eioe"
                            },
                            "cursorScale" : {
                              "type" : "double",
                              "defaultValue" : 0.0,
                              "interp" : "linr"
                            },
                            "cursorOpacity" : {
                              "type" : "double",
                              "defaultValue" : 0.0,
                              "interp" : "linr"
                            }
                          },
                          "effects" : [

                          ],
                          "start" : 1601,
                          "duration" : 185,
                          "mediaStart" : 4018,
                          "mediaDuration" : 185,
                          "scalar" : 1,
                          "metadata" : {
                            "AutoAppliedSmartFocus" : "False"
                          },
                          "animationTracks" : {

                          }
                        },
                        {
                          "id" : 108,
                          "_type" : "ScreenVMFile",
                          "src" : 10,
                          "trackNumber" : 0,
                          "attributes" : {
                            "ident" : "Rec 02-08-22_003"
                          },
                          "parameters" : {
                            "sourceCrop0" : {
                              "type" : "double",
                              "defaultValue" : 0.0,
                              "interp" : "eioe"
                            },
                            "sourceCrop1" : {
                              "type" : "double",
                              "defaultValue" : 0.0,
                              "interp" : "eioe"
                            },
                            "sourceCrop2" : {
                              "type" : "double",
                              "defaultValue" : 0.0,
                              "interp" : "eioe"
                            },
                            "sourceCrop3" : {
                              "type" : "double",
                              "defaultValue" : 0.0,
                              "interp" : "eioe"
                            },
                            "geometryCrop0" : {
                              "type" : "double",
                              "defaultValue" : 0.0,
                              "interp" : "eioe"
                            },
                            "geometryCrop1" : {
                              "type" : "double",
                              "defaultValue" : 0.0,
                              "interp" : "eioe"
                            },
                            "geometryCrop2" : {
                              "type" : "double",
                              "defaultValue" : 0.0,
                              "interp" : "eioe"
                            },
                            "geometryCrop3" : {
                              "type" : "double",
                              "defaultValue" : 0.0,
                              "interp" : "eioe"
                            },
                            "cursorScale" : {
                              "type" : "double",
                              "defaultValue" : 0.0,
                              "interp" : "linr"
                            },
                            "cursorOpacity" : {
                              "type" : "double",
                              "defaultValue" : 0.0,
                              "interp" : "linr"
                            }
                          },
                          "effects" : [

                          ],
                          "start" : 1786,
                          "duration" : 43,
                          "mediaStart" : 4255,
                          "mediaDuration" : 43,
                          "scalar" : 1,
                          "metadata" : {
                            "AutoAppliedSmartFocus" : "False"
                          },
                          "animationTracks" : {

                          }
                        },
                        {
                          "id" : 109,
                          "_type" : "ScreenVMFile",
                          "src" : 10,
                          "trackNumber" : 0,
                          "attributes" : {
                            "ident" : "Rec 02-08-22_003"
                          },
                          "parameters" : {
                            "sourceCrop0" : {
                              "type" : "double",
                              "defaultValue" : 0.0,
                              "interp" : "eioe"
                            },
                            "sourceCrop1" : {
                              "type" : "double",
                              "defaultValue" : 0.0,
                              "interp" : "eioe"
                            },
                            "sourceCrop2" : {
                              "type" : "double",
                              "defaultValue" : 0.0,
                              "interp" : "eioe"
                            },
                            "sourceCrop3" : {
                              "type" : "double",
                              "defaultValue" : 0.0,
                              "interp" : "eioe"
                            },
                            "geometryCrop0" : {
                              "type" : "double",
                              "defaultValue" : 0.0,
                              "interp" : "eioe"
                            },
                            "geometryCrop1" : {
                              "type" : "double",
                              "defaultValue" : 0.0,
                              "interp" : "eioe"
                            },
                            "geometryCrop2" : {
                              "type" : "double",
                              "defaultValue" : 0.0,
                              "interp" : "eioe"
                            },
                            "geometryCrop3" : {
                              "type" : "double",
                              "defaultValue" : 0.0,
                              "interp" : "eioe"
                            },
                            "cursorScale" : {
                              "type" : "double",
                              "defaultValue" : 0.0,
                              "interp" : "linr"
                            },
                            "cursorOpacity" : {
                              "type" : "double",
                              "defaultValue" : 0.0,
                              "interp" : "linr"
                            }
                          },
                          "effects" : [

                          ],
                          "start" : 1829,
                          "duration" : 207,
                          "mediaStart" : 4368,
                          "mediaDuration" : 207,
                          "scalar" : 1,
                          "metadata" : {
                            "AutoAppliedSmartFocus" : "False"
                          },
                          "animationTracks" : {

                          }
                        },
                        {
                          "id" : 110,
                          "_type" : "ScreenVMFile",
                          "src" : 10,
                          "trackNumber" : 0,
                          "attributes" : {
                            "ident" : "Rec 02-08-22_003"
                          },
                          "parameters" : {
                            "sourceCrop0" : {
                              "type" : "double",
                              "defaultValue" : 0.0,
                              "interp" : "eioe"
                            },
                            "sourceCrop1" : {
                              "type" : "double",
                              "defaultValue" : 0.0,
                              "interp" : "eioe"
                            },
                            "sourceCrop2" : {
                              "type" : "double",
                              "defaultValue" : 0.0,
                              "interp" : "eioe"
                            },
                            "sourceCrop3" : {
                              "type" : "double",
                              "defaultValue" : 0.0,
                              "interp" : "eioe"
                            },
                            "geometryCrop0" : {
                              "type" : "double",
                              "defaultValue" : 0.0,
                              "interp" : "eioe"
                            },
                            "geometryCrop1" : {
                              "type" : "double",
                              "defaultValue" : 0.0,
                              "interp" : "eioe"
                            },
                            "geometryCrop2" : {
                              "type" : "double",
                              "defaultValue" : 0.0,
                              "interp" : "eioe"
                            },
                            "geometryCrop3" : {
                              "type" : "double",
                              "defaultValue" : 0.0,
                              "interp" : "eioe"
                            },
                            "cursorScale" : {
                              "type" : "double",
                              "defaultValue" : 0.0,
                              "interp" : "linr"
                            },
                            "cursorOpacity" : {
                              "type" : "double",
                              "defaultValue" : 0.0,
                              "interp" : "linr"
                            }
                          },
                          "effects" : [

                          ],
                          "start" : 2036,
                          "duration" : 131,
                          "mediaStart" : 5560,
                          "mediaDuration" : 131,
                          "scalar" : 1,
                          "metadata" : {
                            "AutoAppliedSmartFocus" : "False"
                          },
                          "animationTracks" : {

                          }
                        },
                        {
                          "id" : 111,
                          "_type" : "ScreenVMFile",
                          "src" : 10,
                          "trackNumber" : 0,
                          "attributes" : {
                            "ident" : "Rec 02-08-22_003"
                          },
                          "parameters" : {
                            "sourceCrop0" : {
                              "type" : "double",
                              "defaultValue" : 0.0,
                              "interp" : "eioe"
                            },
                            "sourceCrop1" : {
                              "type" : "double",
                              "defaultValue" : 0.0,
                              "interp" : "eioe"
                            },
                            "sourceCrop2" : {
                              "type" : "double",
                              "defaultValue" : 0.0,
                              "interp" : "eioe"
                            },
                            "sourceCrop3" : {
                              "type" : "double",
                              "defaultValue" : 0.0,
                              "interp" : "eioe"
                            },
                            "geometryCrop0" : {
                              "type" : "double",
                              "defaultValue" : 0.0,
                              "interp" : "eioe"
                            },
                            "geometryCrop1" : {
                              "type" : "double",
                              "defaultValue" : 0.0,
                              "interp" : "eioe"
                            },
                            "geometryCrop2" : {
                              "type" : "double",
                              "defaultValue" : 0.0,
                              "interp" : "eioe"
                            },
                            "geometryCrop3" : {
                              "type" : "double",
                              "defaultValue" : 0.0,
                              "interp" : "eioe"
                            },
                            "cursorScale" : {
                              "type" : "double",
                              "defaultValue" : 0.0,
                              "interp" : "linr"
                            },
                            "cursorOpacity" : {
                              "type" : "double",
                              "defaultValue" : 0.0,
                              "interp" : "linr"
                            }
                          },
                          "effects" : [

                          ],
                          "start" : 2167,
                          "duration" : 1,
                          "mediaStart" : 5771,
                          "mediaDuration" : 1,
                          "scalar" : 1,
                          "metadata" : {
                            "AutoAppliedSmartFocus" : "False"
                          },
                          "animationTracks" : {

                          }
                        },
                        {
                          "id" : 112,
                          "_type" : "ScreenVMFile",
                          "src" : 10,
                          "trackNumber" : 0,
                          "attributes" : {
                            "ident" : "Rec 02-08-22_003"
                          },
                          "parameters" : {
                            "sourceCrop0" : {
                              "type" : "double",
                              "defaultValue" : 0.0,
                              "interp" : "eioe"
                            },
                            "sourceCrop1" : {
                              "type" : "double",
                              "defaultValue" : 0.0,
                              "interp" : "eioe"
                            },
                            "sourceCrop2" : {
                              "type" : "double",
                              "defaultValue" : 0.0,
                              "interp" : "eioe"
                            },
                            "sourceCrop3" : {
                              "type" : "double",
                              "defaultValue" : 0.0,
                              "interp" : "eioe"
                            },
                            "geometryCrop0" : {
                              "type" : "double",
                              "defaultValue" : 0.0,
                              "interp" : "eioe"
                            },
                            "geometryCrop1" : {
                              "type" : "double",
                              "defaultValue" : 0.0,
                              "interp" : "eioe"
                            },
                            "geometryCrop2" : {
                              "type" : "double",
                              "defaultValue" : 0.0,
                              "interp" : "eioe"
                            },
                            "geometryCrop3" : {
                              "type" : "double",
                              "defaultValue" : 0.0,
                              "interp" : "eioe"
                            },
                            "cursorScale" : {
                              "type" : "double",
                              "defaultValue" : 0.0,
                              "interp" : "linr"
                            },
                            "cursorOpacity" : {
                              "type" : "double",
                              "defaultValue" : 0.0,
                              "interp" : "linr"
                            }
                          },
                          "effects" : [

                          ],
                          "start" : 2168,
                          "duration" : 122,
                          "mediaStart" : 5827,
                          "mediaDuration" : 122,
                          "scalar" : 1,
                          "metadata" : {
                            "AutoAppliedSmartFocus" : "False"
                          },
                          "animationTracks" : {

                          }
                        },
                        {
                          "id" : 113,
                          "_type" : "ScreenVMFile",
                          "src" : 10,
                          "trackNumber" : 0,
                          "attributes" : {
                            "ident" : "Rec 02-08-22_003"
                          },
                          "parameters" : {
                            "sourceCrop0" : {
                              "type" : "double",
                              "defaultValue" : 0.0,
                              "interp" : "eioe"
                            },
                            "sourceCrop1" : {
                              "type" : "double",
                              "defaultValue" : 0.0,
                              "interp" : "eioe"
                            },
                            "sourceCrop2" : {
                              "type" : "double",
                              "defaultValue" : 0.0,
                              "interp" : "eioe"
                            },
                            "sourceCrop3" : {
                              "type" : "double",
                              "defaultValue" : 0.0,
                              "interp" : "eioe"
                            },
                            "geometryCrop0" : {
                              "type" : "double",
                              "defaultValue" : 0.0,
                              "interp" : "eioe"
                            },
                            "geometryCrop1" : {
                              "type" : "double",
                              "defaultValue" : 0.0,
                              "interp" : "eioe"
                            },
                            "geometryCrop2" : {
                              "type" : "double",
                              "defaultValue" : 0.0,
                              "interp" : "eioe"
                            },
                            "geometryCrop3" : {
                              "type" : "double",
                              "defaultValue" : 0.0,
                              "interp" : "eioe"
                            },
                            "cursorScale" : {
                              "type" : "double",
                              "defaultValue" : 0.0,
                              "interp" : "linr"
                            },
                            "cursorOpacity" : {
                              "type" : "double",
                              "defaultValue" : 0.0,
                              "interp" : "linr"
                            }
                          },
                          "effects" : [

                          ],
                          "start" : 2290,
                          "duration" : 1699,
                          "mediaStart" : 5995,
                          "mediaDuration" : 1699,
                          "scalar" : 1,
                          "metadata" : {
                            "AutoAppliedSmartFocus" : "False"
                          },
                          "animationTracks" : {

                          }
                        }
                    ],
                    "effects" : [

                    ],
                    "start" : 11083,
                    "duration" : 2399,
                    "mediaStart" : 40,
                    "mediaDuration" : 2399,
                    "scalar" : 1,
                    "metadata" : {
                      "AutoAppliedSmartFocus" : "False",
                      "clipSpeedAttribute" : false
                    },
                    "animationTracks" : {

                    }
                  },
                  {
                    "id" : 114,
                    "_type" : "StitchedMedia",
                    "minMediaStart" : 0,
                    "attributes" : {
                      "ident" : "Rec 02-08-22_003",
                      "gain" : 1.0,
                      "mixToMono" : false
                    },
                    "parameters" : {
                      "scale0" : 1.2,
                      "scale1" : 1.2,
                      "sourceCrop0" : 0.0,
                      "sourceCrop1" : 0.0,
                      "sourceCrop2" : 0.0,
                      "sourceCrop3" : 0.0,
                      "geometryCrop0" : 0.0,
                      "geometryCrop1" : 0.0,
                      "geometryCrop2" : 0.0,
                      "geometryCrop3" : 0.0,
                      "cursorOpacity" : 1.0,
                      "cursorScale" : 1.0
                    },
                    "medias" : [
                        {
                          "id" : 115,
                          "_type" : "ScreenVMFile",
                          "src" : 10,
                          "trackNumber" : 0,
                          "attributes" : {
                            "ident" : "Rec 02-08-22_003"
                          },
                          "parameters" : {
                            "sourceCrop0" : {
                              "type" : "double",
                              "defaultValue" : 0.0,
                              "interp" : "eioe"
                            },
                            "sourceCrop1" : {
                              "type" : "double",
                              "defaultValue" : 0.0,
                              "interp" : "eioe"
                            },
                            "sourceCrop2" : {
                              "type" : "double",
                              "defaultValue" : 0.0,
                              "interp" : "eioe"
                            },
                            "sourceCrop3" : {
                              "type" : "double",
                              "defaultValue" : 0.0,
                              "interp" : "eioe"
                            },
                            "geometryCrop0" : {
                              "type" : "double",
                              "defaultValue" : 0.0,
                              "interp" : "eioe"
                            },
                            "geometryCrop1" : {
                              "type" : "double",
                              "defaultValue" : 0.0,
                              "interp" : "eioe"
                            },
                            "geometryCrop2" : {
                              "type" : "double",
                              "defaultValue" : 0.0,
                              "interp" : "eioe"
                            },
                            "geometryCrop3" : {
                              "type" : "double",
                              "defaultValue" : 0.0,
                              "interp" : "eioe"
                            },
                            "cursorScale" : {
                              "type" : "double",
                              "defaultValue" : 0.0,
                              "interp" : "linr"
                            },
                            "cursorOpacity" : {
                              "type" : "double",
                              "defaultValue" : 0.0,
                              "interp" : "linr"
                            }
                          },
                          "effects" : [

                          ],
                          "start" : 0,
                          "duration" : 98,
                          "mediaStart" : 0,
                          "mediaDuration" : 98,
                          "scalar" : 1,
                          "metadata" : {
                            "AutoAppliedSmartFocus" : "False"
                          },
                          "animationTracks" : {

                          }
                        },
                        {
                          "id" : 116,
                          "_type" : "ScreenVMFile",
                          "src" : 10,
                          "trackNumber" : 0,
                          "attributes" : {
                            "ident" : "Rec 02-08-22_003"
                          },
                          "parameters" : {
                            "sourceCrop0" : {
                              "type" : "double",
                              "defaultValue" : 0.0,
                              "interp" : "eioe"
                            },
                            "sourceCrop1" : {
                              "type" : "double",
                              "defaultValue" : 0.0,
                              "interp" : "eioe"
                            },
                            "sourceCrop2" : {
                              "type" : "double",
                              "defaultValue" : 0.0,
                              "interp" : "eioe"
                            },
                            "sourceCrop3" : {
                              "type" : "double",
                              "defaultValue" : 0.0,
                              "interp" : "eioe"
                            },
                            "geometryCrop0" : {
                              "type" : "double",
                              "defaultValue" : 0.0,
                              "interp" : "eioe"
                            },
                            "geometryCrop1" : {
                              "type" : "double",
                              "defaultValue" : 0.0,
                              "interp" : "eioe"
                            },
                            "geometryCrop2" : {
                              "type" : "double",
                              "defaultValue" : 0.0,
                              "interp" : "eioe"
                            },
                            "geometryCrop3" : {
                              "type" : "double",
                              "defaultValue" : 0.0,
                              "interp" : "eioe"
                            },
                            "cursorScale" : {
                              "type" : "double",
                              "defaultValue" : 0.0,
                              "interp" : "linr"
                            },
                            "cursorOpacity" : {
                              "type" : "double",
                              "defaultValue" : 0.0,
                              "interp" : "linr"
                            }
                          },
                          "effects" : [

                          ],
                          "start" : 98,
                          "duration" : 42,
                          "mediaStart" : 192,
                          "mediaDuration" : 42,
                          "scalar" : 1,
                          "metadata" : {
                            "AutoAppliedSmartFocus" : "False"
                          },
                          "animationTracks" : {

                          }
                        },
                        {
                          "id" : 117,
                          "_type" : "ScreenVMFile",
                          "src" : 10,
                          "trackNumber" : 0,
                          "attributes" : {
                            "ident" : "Rec 02-08-22_003"
                          },
                          "parameters" : {
                            "sourceCrop0" : {
                              "type" : "double",
                              "defaultValue" : 0.0,
                              "interp" : "eioe"
                            },
                            "sourceCrop1" : {
                              "type" : "double",
                              "defaultValue" : 0.0,
                              "interp" : "eioe"
                            },
                            "sourceCrop2" : {
                              "type" : "double",
                              "defaultValue" : 0.0,
                              "interp" : "eioe"
                            },
                            "sourceCrop3" : {
                              "type" : "double",
                              "defaultValue" : 0.0,
                              "interp" : "eioe"
                            },
                            "geometryCrop0" : {
                              "type" : "double",
                              "defaultValue" : 0.0,
                              "interp" : "eioe"
                            },
                            "geometryCrop1" : {
                              "type" : "double",
                              "defaultValue" : 0.0,
                              "interp" : "eioe"
                            },
                            "geometryCrop2" : {
                              "type" : "double",
                              "defaultValue" : 0.0,
                              "interp" : "eioe"
                            },
                            "geometryCrop3" : {
                              "type" : "double",
                              "defaultValue" : 0.0,
                              "interp" : "eioe"
                            },
                            "cursorScale" : {
                              "type" : "double",
                              "defaultValue" : 0.0,
                              "interp" : "linr"
                            },
                            "cursorOpacity" : {
                              "type" : "double",
                              "defaultValue" : 0.0,
                              "interp" : "linr"
                            }
                          },
                          "effects" : [

                          ],
                          "start" : 140,
                          "duration" : 104,
                          "mediaStart" : 257,
                          "mediaDuration" : 104,
                          "scalar" : 1,
                          "metadata" : {
                            "AutoAppliedSmartFocus" : "False"
                          },
                          "animationTracks" : {

                          }
                        },
                        {
                          "id" : 118,
                          "_type" : "ScreenVMFile",
                          "src" : 10,
                          "trackNumber" : 0,
                          "attributes" : {
                            "ident" : "Rec 02-08-22_003"
                          },
                          "parameters" : {
                            "sourceCrop0" : {
                              "type" : "double",
                              "defaultValue" : 0.0,
                              "interp" : "eioe"
                            },
                            "sourceCrop1" : {
                              "type" : "double",
                              "defaultValue" : 0.0,
                              "interp" : "eioe"
                            },
                            "sourceCrop2" : {
                              "type" : "double",
                              "defaultValue" : 0.0,
                              "interp" : "eioe"
                            },
                            "sourceCrop3" : {
                              "type" : "double",
                              "defaultValue" : 0.0,
                              "interp" : "eioe"
                            },
                            "geometryCrop0" : {
                              "type" : "double",
                              "defaultValue" : 0.0,
                              "interp" : "eioe"
                            },
                            "geometryCrop1" : {
                              "type" : "double",
                              "defaultValue" : 0.0,
                              "interp" : "eioe"
                            },
                            "geometryCrop2" : {
                              "type" : "double",
                              "defaultValue" : 0.0,
                              "interp" : "eioe"
                            },
                            "geometryCrop3" : {
                              "type" : "double",
                              "defaultValue" : 0.0,
                              "interp" : "eioe"
                            },
                            "cursorScale" : {
                              "type" : "double",
                              "defaultValue" : 0.0,
                              "interp" : "linr"
                            },
                            "cursorOpacity" : {
                              "type" : "double",
                              "defaultValue" : 0.0,
                              "interp" : "linr"
                            }
                          },
                          "effects" : [

                          ],
                          "start" : 244,
                          "duration" : 17,
                          "mediaStart" : 392,
                          "mediaDuration" : 17,
                          "scalar" : 1,
                          "metadata" : {
                            "AutoAppliedSmartFocus" : "False"
                          },
                          "animationTracks" : {

                          }
                        },
                        {
                          "id" : 119,
                          "_type" : "ScreenVMFile",
                          "src" : 10,
                          "trackNumber" : 0,
                          "attributes" : {
                            "ident" : "Rec 02-08-22_003"
                          },
                          "parameters" : {
                            "sourceCrop0" : {
                              "type" : "double",
                              "defaultValue" : 0.0,
                              "interp" : "eioe"
                            },
                            "sourceCrop1" : {
                              "type" : "double",
                              "defaultValue" : 0.0,
                              "interp" : "eioe"
                            },
                            "sourceCrop2" : {
                              "type" : "double",
                              "defaultValue" : 0.0,
                              "interp" : "eioe"
                            },
                            "sourceCrop3" : {
                              "type" : "double",
                              "defaultValue" : 0.0,
                              "interp" : "eioe"
                            },
                            "geometryCrop0" : {
                              "type" : "double",
                              "defaultValue" : 0.0,
                              "interp" : "eioe"
                            },
                            "geometryCrop1" : {
                              "type" : "double",
                              "defaultValue" : 0.0,
                              "interp" : "eioe"
                            },
                            "geometryCrop2" : {
                              "type" : "double",
                              "defaultValue" : 0.0,
                              "interp" : "eioe"
                            },
                            "geometryCrop3" : {
                              "type" : "double",
                              "defaultValue" : 0.0,
                              "interp" : "eioe"
                            },
                            "cursorScale" : {
                              "type" : "double",
                              "defaultValue" : 0.0,
                              "interp" : "linr"
                            },
                            "cursorOpacity" : {
                              "type" : "double",
                              "defaultValue" : 0.0,
                              "interp" : "linr"
                            }
                          },
                          "effects" : [

                          ],
                          "start" : 261,
                          "duration" : 128,
                          "mediaStart" : 1154,
                          "mediaDuration" : 128,
                          "scalar" : 1,
                          "metadata" : {
                            "AutoAppliedSmartFocus" : "False"
                          },
                          "animationTracks" : {

                          }
                        },
                        {
                          "id" : 120,
                          "_type" : "ScreenVMFile",
                          "src" : 10,
                          "trackNumber" : 0,
                          "attributes" : {
                            "ident" : "Rec 02-08-22_003"
                          },
                          "parameters" : {
                            "sourceCrop0" : {
                              "type" : "double",
                              "defaultValue" : 0.0,
                              "interp" : "eioe"
                            },
                            "sourceCrop1" : {
                              "type" : "double",
                              "defaultValue" : 0.0,
                              "interp" : "eioe"
                            },
                            "sourceCrop2" : {
                              "type" : "double",
                              "defaultValue" : 0.0,
                              "interp" : "eioe"
                            },
                            "sourceCrop3" : {
                              "type" : "double",
                              "defaultValue" : 0.0,
                              "interp" : "eioe"
                            },
                            "geometryCrop0" : {
                              "type" : "double",
                              "defaultValue" : 0.0,
                              "interp" : "eioe"
                            },
                            "geometryCrop1" : {
                              "type" : "double",
                              "defaultValue" : 0.0,
                              "interp" : "eioe"
                            },
                            "geometryCrop2" : {
                              "type" : "double",
                              "defaultValue" : 0.0,
                              "interp" : "eioe"
                            },
                            "geometryCrop3" : {
                              "type" : "double",
                              "defaultValue" : 0.0,
                              "interp" : "eioe"
                            },
                            "cursorScale" : {
                              "type" : "double",
                              "defaultValue" : 0.0,
                              "interp" : "linr"
                            },
                            "cursorOpacity" : {
                              "type" : "double",
                              "defaultValue" : 0.0,
                              "interp" : "linr"
                            }
                          },
                          "effects" : [

                          ],
                          "start" : 389,
                          "duration" : 12,
                          "mediaStart" : 1316,
                          "mediaDuration" : 12,
                          "scalar" : 1,
                          "metadata" : {
                            "AutoAppliedSmartFocus" : "False"
                          },
                          "animationTracks" : {

                          }
                        },
                        {
                          "id" : 121,
                          "_type" : "ScreenVMFile",
                          "src" : 10,
                          "trackNumber" : 0,
                          "attributes" : {
                            "ident" : "Rec 02-08-22_003"
                          },
                          "parameters" : {
                            "sourceCrop0" : {
                              "type" : "double",
                              "defaultValue" : 0.0,
                              "interp" : "eioe"
                            },
                            "sourceCrop1" : {
                              "type" : "double",
                              "defaultValue" : 0.0,
                              "interp" : "eioe"
                            },
                            "sourceCrop2" : {
                              "type" : "double",
                              "defaultValue" : 0.0,
                              "interp" : "eioe"
                            },
                            "sourceCrop3" : {
                              "type" : "double",
                              "defaultValue" : 0.0,
                              "interp" : "eioe"
                            },
                            "geometryCrop0" : {
                              "type" : "double",
                              "defaultValue" : 0.0,
                              "interp" : "eioe"
                            },
                            "geometryCrop1" : {
                              "type" : "double",
                              "defaultValue" : 0.0,
                              "interp" : "eioe"
                            },
                            "geometryCrop2" : {
                              "type" : "double",
                              "defaultValue" : 0.0,
                              "interp" : "eioe"
                            },
                            "geometryCrop3" : {
                              "type" : "double",
                              "defaultValue" : 0.0,
                              "interp" : "eioe"
                            },
                            "cursorScale" : {
                              "type" : "double",
                              "defaultValue" : 0.0,
                              "interp" : "linr"
                            },
                            "cursorOpacity" : {
                              "type" : "double",
                              "defaultValue" : 0.0,
                              "interp" : "linr"
                            }
                          },
                          "effects" : [

                          ],
                          "start" : 401,
                          "duration" : 95,
                          "mediaStart" : 1363,
                          "mediaDuration" : 95,
                          "scalar" : 1,
                          "metadata" : {
                            "AutoAppliedSmartFocus" : "False"
                          },
                          "animationTracks" : {

                          }
                        },
                        {
                          "id" : 122,
                          "_type" : "ScreenVMFile",
                          "src" : 10,
                          "trackNumber" : 0,
                          "attributes" : {
                            "ident" : "Rec 02-08-22_003"
                          },
                          "parameters" : {
                            "sourceCrop0" : {
                              "type" : "double",
                              "defaultValue" : 0.0,
                              "interp" : "eioe"
                            },
                            "sourceCrop1" : {
                              "type" : "double",
                              "defaultValue" : 0.0,
                              "interp" : "eioe"
                            },
                            "sourceCrop2" : {
                              "type" : "double",
                              "defaultValue" : 0.0,
                              "interp" : "eioe"
                            },
                            "sourceCrop3" : {
                              "type" : "double",
                              "defaultValue" : 0.0,
                              "interp" : "eioe"
                            },
                            "geometryCrop0" : {
                              "type" : "double",
                              "defaultValue" : 0.0,
                              "interp" : "eioe"
                            },
                            "geometryCrop1" : {
                              "type" : "double",
                              "defaultValue" : 0.0,
                              "interp" : "eioe"
                            },
                            "geometryCrop2" : {
                              "type" : "double",
                              "defaultValue" : 0.0,
                              "interp" : "eioe"
                            },
                            "geometryCrop3" : {
                              "type" : "double",
                              "defaultValue" : 0.0,
                              "interp" : "eioe"
                            },
                            "cursorScale" : {
                              "type" : "double",
                              "defaultValue" : 0.0,
                              "interp" : "linr"
                            },
                            "cursorOpacity" : {
                              "type" : "double",
                              "defaultValue" : 0.0,
                              "interp" : "linr"
                            }
                          },
                          "effects" : [

                          ],
                          "start" : 496,
                          "duration" : 15,
                          "mediaStart" : 1513,
                          "mediaDuration" : 15,
                          "scalar" : 1,
                          "metadata" : {
                            "AutoAppliedSmartFocus" : "False"
                          },
                          "animationTracks" : {

                          }
                        },
                        {
                          "id" : 123,
                          "_type" : "ScreenVMFile",
                          "src" : 10,
                          "trackNumber" : 0,
                          "attributes" : {
                            "ident" : "Rec 02-08-22_003"
                          },
                          "parameters" : {
                            "sourceCrop0" : {
                              "type" : "double",
                              "defaultValue" : 0.0,
                              "interp" : "eioe"
                            },
                            "sourceCrop1" : {
                              "type" : "double",
                              "defaultValue" : 0.0,
                              "interp" : "eioe"
                            },
                            "sourceCrop2" : {
                              "type" : "double",
                              "defaultValue" : 0.0,
                              "interp" : "eioe"
                            },
                            "sourceCrop3" : {
                              "type" : "double",
                              "defaultValue" : 0.0,
                              "interp" : "eioe"
                            },
                            "geometryCrop0" : {
                              "type" : "double",
                              "defaultValue" : 0.0,
                              "interp" : "eioe"
                            },
                            "geometryCrop1" : {
                              "type" : "double",
                              "defaultValue" : 0.0,
                              "interp" : "eioe"
                            },
                            "geometryCrop2" : {
                              "type" : "double",
                              "defaultValue" : 0.0,
                              "interp" : "eioe"
                            },
                            "geometryCrop3" : {
                              "type" : "double",
                              "defaultValue" : 0.0,
                              "interp" : "eioe"
                            },
                            "cursorScale" : {
                              "type" : "double",
                              "defaultValue" : 0.0,
                              "interp" : "linr"
                            },
                            "cursorOpacity" : {
                              "type" : "double",
                              "defaultValue" : 0.0,
                              "interp" : "linr"
                            }
                          },
                          "effects" : [

                          ],
                          "start" : 511,
                          "duration" : 486,
                          "mediaStart" : 1984,
                          "mediaDuration" : 486,
                          "scalar" : 1,
                          "metadata" : {
                            "AutoAppliedSmartFocus" : "False"
                          },
                          "animationTracks" : {

                          }
                        },
                        {
                          "id" : 124,
                          "_type" : "ScreenVMFile",
                          "src" : 10,
                          "trackNumber" : 0,
                          "attributes" : {
                            "ident" : "Rec 02-08-22_003"
                          },
                          "parameters" : {
                            "sourceCrop0" : {
                              "type" : "double",
                              "defaultValue" : 0.0,
                              "interp" : "eioe"
                            },
                            "sourceCrop1" : {
                              "type" : "double",
                              "defaultValue" : 0.0,
                              "interp" : "eioe"
                            },
                            "sourceCrop2" : {
                              "type" : "double",
                              "defaultValue" : 0.0,
                              "interp" : "eioe"
                            },
                            "sourceCrop3" : {
                              "type" : "double",
                              "defaultValue" : 0.0,
                              "interp" : "eioe"
                            },
                            "geometryCrop0" : {
                              "type" : "double",
                              "defaultValue" : 0.0,
                              "interp" : "eioe"
                            },
                            "geometryCrop1" : {
                              "type" : "double",
                              "defaultValue" : 0.0,
                              "interp" : "eioe"
                            },
                            "geometryCrop2" : {
                              "type" : "double",
                              "defaultValue" : 0.0,
                              "interp" : "eioe"
                            },
                            "geometryCrop3" : {
                              "type" : "double",
                              "defaultValue" : 0.0,
                              "interp" : "eioe"
                            },
                            "cursorScale" : {
                              "type" : "double",
                              "defaultValue" : 0.0,
                              "interp" : "linr"
                            },
                            "cursorOpacity" : {
                              "type" : "double",
                              "defaultValue" : 0.0,
                              "interp" : "linr"
                            }
                          },
                          "effects" : [

                          ],
                          "start" : 997,
                          "duration" : 37,
                          "mediaStart" : 2506,
                          "mediaDuration" : 37,
                          "scalar" : 1,
                          "metadata" : {
                            "AutoAppliedSmartFocus" : "False"
                          },
                          "animationTracks" : {

                          }
                        },
                        {
                          "id" : 125,
                          "_type" : "ScreenVMFile",
                          "src" : 10,
                          "trackNumber" : 0,
                          "attributes" : {
                            "ident" : "Rec 02-08-22_003"
                          },
                          "parameters" : {
                            "sourceCrop0" : {
                              "type" : "double",
                              "defaultValue" : 0.0,
                              "interp" : "eioe"
                            },
                            "sourceCrop1" : {
                              "type" : "double",
                              "defaultValue" : 0.0,
                              "interp" : "eioe"
                            },
                            "sourceCrop2" : {
                              "type" : "double",
                              "defaultValue" : 0.0,
                              "interp" : "eioe"
                            },
                            "sourceCrop3" : {
                              "type" : "double",
                              "defaultValue" : 0.0,
                              "interp" : "eioe"
                            },
                            "geometryCrop0" : {
                              "type" : "double",
                              "defaultValue" : 0.0,
                              "interp" : "eioe"
                            },
                            "geometryCrop1" : {
                              "type" : "double",
                              "defaultValue" : 0.0,
                              "interp" : "eioe"
                            },
                            "geometryCrop2" : {
                              "type" : "double",
                              "defaultValue" : 0.0,
                              "interp" : "eioe"
                            },
                            "geometryCrop3" : {
                              "type" : "double",
                              "defaultValue" : 0.0,
                              "interp" : "eioe"
                            },
                            "cursorScale" : {
                              "type" : "double",
                              "defaultValue" : 0.0,
                              "interp" : "linr"
                            },
                            "cursorOpacity" : {
                              "type" : "double",
                              "defaultValue" : 0.0,
                              "interp" : "linr"
                            }
                          },
                          "effects" : [

                          ],
                          "start" : 1034,
                          "duration" : 71,
                          "mediaStart" : 2594,
                          "mediaDuration" : 71,
                          "scalar" : 1,
                          "metadata" : {
                            "AutoAppliedSmartFocus" : "False"
                          },
                          "animationTracks" : {

                          }
                        },
                        {
                          "id" : 126,
                          "_type" : "ScreenVMFile",
                          "src" : 10,
                          "trackNumber" : 0,
                          "attributes" : {
                            "ident" : "Rec 02-08-22_003"
                          },
                          "parameters" : {
                            "sourceCrop0" : {
                              "type" : "double",
                              "defaultValue" : 0.0,
                              "interp" : "eioe"
                            },
                            "sourceCrop1" : {
                              "type" : "double",
                              "defaultValue" : 0.0,
                              "interp" : "eioe"
                            },
                            "sourceCrop2" : {
                              "type" : "double",
                              "defaultValue" : 0.0,
                              "interp" : "eioe"
                            },
                            "sourceCrop3" : {
                              "type" : "double",
                              "defaultValue" : 0.0,
                              "interp" : "eioe"
                            },
                            "geometryCrop0" : {
                              "type" : "double",
                              "defaultValue" : 0.0,
                              "interp" : "eioe"
                            },
                            "geometryCrop1" : {
                              "type" : "double",
                              "defaultValue" : 0.0,
                              "interp" : "eioe"
                            },
                            "geometryCrop2" : {
                              "type" : "double",
                              "defaultValue" : 0.0,
                              "interp" : "eioe"
                            },
                            "geometryCrop3" : {
                              "type" : "double",
                              "defaultValue" : 0.0,
                              "interp" : "eioe"
                            },
                            "cursorScale" : {
                              "type" : "double",
                              "defaultValue" : 0.0,
                              "interp" : "linr"
                            },
                            "cursorOpacity" : {
                              "type" : "double",
                              "defaultValue" : 0.0,
                              "interp" : "linr"
                            }
                          },
                          "effects" : [

                          ],
                          "start" : 1105,
                          "duration" : 187,
                          "mediaStart" : 3036,
                          "mediaDuration" : 187,
                          "scalar" : 1,
                          "metadata" : {
                            "AutoAppliedSmartFocus" : "False"
                          },
                          "animationTracks" : {

                          }
                        },
                        {
                          "id" : 127,
                          "_type" : "ScreenVMFile",
                          "src" : 10,
                          "trackNumber" : 0,
                          "attributes" : {
                            "ident" : "Rec 02-08-22_003"
                          },
                          "parameters" : {
                            "sourceCrop0" : {
                              "type" : "double",
                              "defaultValue" : 0.0,
                              "interp" : "eioe"
                            },
                            "sourceCrop1" : {
                              "type" : "double",
                              "defaultValue" : 0.0,
                              "interp" : "eioe"
                            },
                            "sourceCrop2" : {
                              "type" : "double",
                              "defaultValue" : 0.0,
                              "interp" : "eioe"
                            },
                            "sourceCrop3" : {
                              "type" : "double",
                              "defaultValue" : 0.0,
                              "interp" : "eioe"
                            },
                            "geometryCrop0" : {
                              "type" : "double",
                              "defaultValue" : 0.0,
                              "interp" : "eioe"
                            },
                            "geometryCrop1" : {
                              "type" : "double",
                              "defaultValue" : 0.0,
                              "interp" : "eioe"
                            },
                            "geometryCrop2" : {
                              "type" : "double",
                              "defaultValue" : 0.0,
                              "interp" : "eioe"
                            },
                            "geometryCrop3" : {
                              "type" : "double",
                              "defaultValue" : 0.0,
                              "interp" : "eioe"
                            },
                            "cursorScale" : {
                              "type" : "double",
                              "defaultValue" : 0.0,
                              "interp" : "linr"
                            },
                            "cursorOpacity" : {
                              "type" : "double",
                              "defaultValue" : 0.0,
                              "interp" : "linr"
                            }
                          },
                          "effects" : [

                          ],
                          "start" : 1292,
                          "duration" : 136,
                          "mediaStart" : 3255,
                          "mediaDuration" : 136,
                          "scalar" : 1,
                          "metadata" : {
                            "AutoAppliedSmartFocus" : "False"
                          },
                          "animationTracks" : {

                          }
                        },
                        {
                          "id" : 128,
                          "_type" : "ScreenVMFile",
                          "src" : 10,
                          "trackNumber" : 0,
                          "attributes" : {
                            "ident" : "Rec 02-08-22_003"
                          },
                          "parameters" : {
                            "sourceCrop0" : {
                              "type" : "double",
                              "defaultValue" : 0.0,
                              "interp" : "eioe"
                            },
                            "sourceCrop1" : {
                              "type" : "double",
                              "defaultValue" : 0.0,
                              "interp" : "eioe"
                            },
                            "sourceCrop2" : {
                              "type" : "double",
                              "defaultValue" : 0.0,
                              "interp" : "eioe"
                            },
                            "sourceCrop3" : {
                              "type" : "double",
                              "defaultValue" : 0.0,
                              "interp" : "eioe"
                            },
                            "geometryCrop0" : {
                              "type" : "double",
                              "defaultValue" : 0.0,
                              "interp" : "eioe"
                            },
                            "geometryCrop1" : {
                              "type" : "double",
                              "defaultValue" : 0.0,
                              "interp" : "eioe"
                            },
                            "geometryCrop2" : {
                              "type" : "double",
                              "defaultValue" : 0.0,
                              "interp" : "eioe"
                            },
                            "geometryCrop3" : {
                              "type" : "double",
                              "defaultValue" : 0.0,
                              "interp" : "eioe"
                            },
                            "cursorScale" : {
                              "type" : "double",
                              "defaultValue" : 0.0,
                              "interp" : "linr"
                            },
                            "cursorOpacity" : {
                              "type" : "double",
                              "defaultValue" : 0.0,
                              "interp" : "linr"
                            }
                          },
                          "effects" : [

                          ],
                          "start" : 1428,
                          "duration" : 76,
                          "mediaStart" : 3438,
                          "mediaDuration" : 76,
                          "scalar" : 1,
                          "metadata" : {
                            "AutoAppliedSmartFocus" : "False"
                          },
                          "animationTracks" : {

                          }
                        },
                        {
                          "id" : 129,
                          "_type" : "ScreenVMFile",
                          "src" : 10,
                          "trackNumber" : 0,
                          "attributes" : {
                            "ident" : "Rec 02-08-22_003"
                          },
                          "parameters" : {
                            "sourceCrop0" : {
                              "type" : "double",
                              "defaultValue" : 0.0,
                              "interp" : "eioe"
                            },
                            "sourceCrop1" : {
                              "type" : "double",
                              "defaultValue" : 0.0,
                              "interp" : "eioe"
                            },
                            "sourceCrop2" : {
                              "type" : "double",
                              "defaultValue" : 0.0,
                              "interp" : "eioe"
                            },
                            "sourceCrop3" : {
                              "type" : "double",
                              "defaultValue" : 0.0,
                              "interp" : "eioe"
                            },
                            "geometryCrop0" : {
                              "type" : "double",
                              "defaultValue" : 0.0,
                              "interp" : "eioe"
                            },
                            "geometryCrop1" : {
                              "type" : "double",
                              "defaultValue" : 0.0,
                              "interp" : "eioe"
                            },
                            "geometryCrop2" : {
                              "type" : "double",
                              "defaultValue" : 0.0,
                              "interp" : "eioe"
                            },
                            "geometryCrop3" : {
                              "type" : "double",
                              "defaultValue" : 0.0,
                              "interp" : "eioe"
                            },
                            "cursorScale" : {
                              "type" : "double",
                              "defaultValue" : 0.0,
                              "interp" : "linr"
                            },
                            "cursorOpacity" : {
                              "type" : "double",
                              "defaultValue" : 0.0,
                              "interp" : "linr"
                            }
                          },
                          "effects" : [

                          ],
                          "start" : 1504,
                          "duration" : 30,
                          "mediaStart" : 3568,
                          "mediaDuration" : 30,
                          "scalar" : 1,
                          "metadata" : {
                            "AutoAppliedSmartFocus" : "False"
                          },
                          "animationTracks" : {

                          }
                        },
                        {
                          "id" : 130,
                          "_type" : "ScreenVMFile",
                          "src" : 10,
                          "trackNumber" : 0,
                          "attributes" : {
                            "ident" : "Rec 02-08-22_003"
                          },
                          "parameters" : {
                            "sourceCrop0" : {
                              "type" : "double",
                              "defaultValue" : 0.0,
                              "interp" : "eioe"
                            },
                            "sourceCrop1" : {
                              "type" : "double",
                              "defaultValue" : 0.0,
                              "interp" : "eioe"
                            },
                            "sourceCrop2" : {
                              "type" : "double",
                              "defaultValue" : 0.0,
                              "interp" : "eioe"
                            },
                            "sourceCrop3" : {
                              "type" : "double",
                              "defaultValue" : 0.0,
                              "interp" : "eioe"
                            },
                            "geometryCrop0" : {
                              "type" : "double",
                              "defaultValue" : 0.0,
                              "interp" : "eioe"
                            },
                            "geometryCrop1" : {
                              "type" : "double",
                              "defaultValue" : 0.0,
                              "interp" : "eioe"
                            },
                            "geometryCrop2" : {
                              "type" : "double",
                              "defaultValue" : 0.0,
                              "interp" : "eioe"
                            },
                            "geometryCrop3" : {
                              "type" : "double",
                              "defaultValue" : 0.0,
                              "interp" : "eioe"
                            },
                            "cursorScale" : {
                              "type" : "double",
                              "defaultValue" : 0.0,
                              "interp" : "linr"
                            },
                            "cursorOpacity" : {
                              "type" : "double",
                              "defaultValue" : 0.0,
                              "interp" : "linr"
                            }
                          },
                          "effects" : [

                          ],
                          "start" : 1534,
                          "duration" : 67,
                          "mediaStart" : 3620,
                          "mediaDuration" : 67,
                          "scalar" : 1,
                          "metadata" : {
                            "AutoAppliedSmartFocus" : "False"
                          },
                          "animationTracks" : {

                          }
                        },
                        {
                          "id" : 131,
                          "_type" : "ScreenVMFile",
                          "src" : 10,
                          "trackNumber" : 0,
                          "attributes" : {
                            "ident" : "Rec 02-08-22_003"
                          },
                          "parameters" : {
                            "sourceCrop0" : {
                              "type" : "double",
                              "defaultValue" : 0.0,
                              "interp" : "eioe"
                            },
                            "sourceCrop1" : {
                              "type" : "double",
                              "defaultValue" : 0.0,
                              "interp" : "eioe"
                            },
                            "sourceCrop2" : {
                              "type" : "double",
                              "defaultValue" : 0.0,
                              "interp" : "eioe"
                            },
                            "sourceCrop3" : {
                              "type" : "double",
                              "defaultValue" : 0.0,
                              "interp" : "eioe"
                            },
                            "geometryCrop0" : {
                              "type" : "double",
                              "defaultValue" : 0.0,
                              "interp" : "eioe"
                            },
                            "geometryCrop1" : {
                              "type" : "double",
                              "defaultValue" : 0.0,
                              "interp" : "eioe"
                            },
                            "geometryCrop2" : {
                              "type" : "double",
                              "defaultValue" : 0.0,
                              "interp" : "eioe"
                            },
                            "geometryCrop3" : {
                              "type" : "double",
                              "defaultValue" : 0.0,
                              "interp" : "eioe"
                            },
                            "cursorScale" : {
                              "type" : "double",
                              "defaultValue" : 0.0,
                              "interp" : "linr"
                            },
                            "cursorOpacity" : {
                              "type" : "double",
                              "defaultValue" : 0.0,
                              "interp" : "linr"
                            }
                          },
                          "effects" : [

                          ],
                          "start" : 1601,
                          "duration" : 185,
                          "mediaStart" : 4018,
                          "mediaDuration" : 185,
                          "scalar" : 1,
                          "metadata" : {
                            "AutoAppliedSmartFocus" : "False"
                          },
                          "animationTracks" : {

                          }
                        },
                        {
                          "id" : 132,
                          "_type" : "ScreenVMFile",
                          "src" : 10,
                          "trackNumber" : 0,
                          "attributes" : {
                            "ident" : "Rec 02-08-22_003"
                          },
                          "parameters" : {
                            "sourceCrop0" : {
                              "type" : "double",
                              "defaultValue" : 0.0,
                              "interp" : "eioe"
                            },
                            "sourceCrop1" : {
                              "type" : "double",
                              "defaultValue" : 0.0,
                              "interp" : "eioe"
                            },
                            "sourceCrop2" : {
                              "type" : "double",
                              "defaultValue" : 0.0,
                              "interp" : "eioe"
                            },
                            "sourceCrop3" : {
                              "type" : "double",
                              "defaultValue" : 0.0,
                              "interp" : "eioe"
                            },
                            "geometryCrop0" : {
                              "type" : "double",
                              "defaultValue" : 0.0,
                              "interp" : "eioe"
                            },
                            "geometryCrop1" : {
                              "type" : "double",
                              "defaultValue" : 0.0,
                              "interp" : "eioe"
                            },
                            "geometryCrop2" : {
                              "type" : "double",
                              "defaultValue" : 0.0,
                              "interp" : "eioe"
                            },
                            "geometryCrop3" : {
                              "type" : "double",
                              "defaultValue" : 0.0,
                              "interp" : "eioe"
                            },
                            "cursorScale" : {
                              "type" : "double",
                              "defaultValue" : 0.0,
                              "interp" : "linr"
                            },
                            "cursorOpacity" : {
                              "type" : "double",
                              "defaultValue" : 0.0,
                              "interp" : "linr"
                            }
                          },
                          "effects" : [

                          ],
                          "start" : 1786,
                          "duration" : 43,
                          "mediaStart" : 4255,
                          "mediaDuration" : 43,
                          "scalar" : 1,
                          "metadata" : {
                            "AutoAppliedSmartFocus" : "False"
                          },
                          "animationTracks" : {

                          }
                        },
                        {
                          "id" : 133,
                          "_type" : "ScreenVMFile",
                          "src" : 10,
                          "trackNumber" : 0,
                          "attributes" : {
                            "ident" : "Rec 02-08-22_003"
                          },
                          "parameters" : {
                            "sourceCrop0" : {
                              "type" : "double",
                              "defaultValue" : 0.0,
                              "interp" : "eioe"
                            },
                            "sourceCrop1" : {
                              "type" : "double",
                              "defaultValue" : 0.0,
                              "interp" : "eioe"
                            },
                            "sourceCrop2" : {
                              "type" : "double",
                              "defaultValue" : 0.0,
                              "interp" : "eioe"
                            },
                            "sourceCrop3" : {
                              "type" : "double",
                              "defaultValue" : 0.0,
                              "interp" : "eioe"
                            },
                            "geometryCrop0" : {
                              "type" : "double",
                              "defaultValue" : 0.0,
                              "interp" : "eioe"
                            },
                            "geometryCrop1" : {
                              "type" : "double",
                              "defaultValue" : 0.0,
                              "interp" : "eioe"
                            },
                            "geometryCrop2" : {
                              "type" : "double",
                              "defaultValue" : 0.0,
                              "interp" : "eioe"
                            },
                            "geometryCrop3" : {
                              "type" : "double",
                              "defaultValue" : 0.0,
                              "interp" : "eioe"
                            },
                            "cursorScale" : {
                              "type" : "double",
                              "defaultValue" : 0.0,
                              "interp" : "linr"
                            },
                            "cursorOpacity" : {
                              "type" : "double",
                              "defaultValue" : 0.0,
                              "interp" : "linr"
                            }
                          },
                          "effects" : [

                          ],
                          "start" : 1829,
                          "duration" : 207,
                          "mediaStart" : 4368,
                          "mediaDuration" : 207,
                          "scalar" : 1,
                          "metadata" : {
                            "AutoAppliedSmartFocus" : "False"
                          },
                          "animationTracks" : {

                          }
                        },
                        {
                          "id" : 134,
                          "_type" : "ScreenVMFile",
                          "src" : 10,
                          "trackNumber" : 0,
                          "attributes" : {
                            "ident" : "Rec 02-08-22_003"
                          },
                          "parameters" : {
                            "sourceCrop0" : {
                              "type" : "double",
                              "defaultValue" : 0.0,
                              "interp" : "eioe"
                            },
                            "sourceCrop1" : {
                              "type" : "double",
                              "defaultValue" : 0.0,
                              "interp" : "eioe"
                            },
                            "sourceCrop2" : {
                              "type" : "double",
                              "defaultValue" : 0.0,
                              "interp" : "eioe"
                            },
                            "sourceCrop3" : {
                              "type" : "double",
                              "defaultValue" : 0.0,
                              "interp" : "eioe"
                            },
                            "geometryCrop0" : {
                              "type" : "double",
                              "defaultValue" : 0.0,
                              "interp" : "eioe"
                            },
                            "geometryCrop1" : {
                              "type" : "double",
                              "defaultValue" : 0.0,
                              "interp" : "eioe"
                            },
                            "geometryCrop2" : {
                              "type" : "double",
                              "defaultValue" : 0.0,
                              "interp" : "eioe"
                            },
                            "geometryCrop3" : {
                              "type" : "double",
                              "defaultValue" : 0.0,
                              "interp" : "eioe"
                            },
                            "cursorScale" : {
                              "type" : "double",
                              "defaultValue" : 0.0,
                              "interp" : "linr"
                            },
                            "cursorOpacity" : {
                              "type" : "double",
                              "defaultValue" : 0.0,
                              "interp" : "linr"
                            }
                          },
                          "effects" : [

                          ],
                          "start" : 2036,
                          "duration" : 131,
                          "mediaStart" : 5560,
                          "mediaDuration" : 131,
                          "scalar" : 1,
                          "metadata" : {
                            "AutoAppliedSmartFocus" : "False"
                          },
                          "animationTracks" : {

                          }
                        },
                        {
                          "id" : 135,
                          "_type" : "ScreenVMFile",
                          "src" : 10,
                          "trackNumber" : 0,
                          "attributes" : {
                            "ident" : "Rec 02-08-22_003"
                          },
                          "parameters" : {
                            "sourceCrop0" : {
                              "type" : "double",
                              "defaultValue" : 0.0,
                              "interp" : "eioe"
                            },
                            "sourceCrop1" : {
                              "type" : "double",
                              "defaultValue" : 0.0,
                              "interp" : "eioe"
                            },
                            "sourceCrop2" : {
                              "type" : "double",
                              "defaultValue" : 0.0,
                              "interp" : "eioe"
                            },
                            "sourceCrop3" : {
                              "type" : "double",
                              "defaultValue" : 0.0,
                              "interp" : "eioe"
                            },
                            "geometryCrop0" : {
                              "type" : "double",
                              "defaultValue" : 0.0,
                              "interp" : "eioe"
                            },
                            "geometryCrop1" : {
                              "type" : "double",
                              "defaultValue" : 0.0,
                              "interp" : "eioe"
                            },
                            "geometryCrop2" : {
                              "type" : "double",
                              "defaultValue" : 0.0,
                              "interp" : "eioe"
                            },
                            "geometryCrop3" : {
                              "type" : "double",
                              "defaultValue" : 0.0,
                              "interp" : "eioe"
                            },
                            "cursorScale" : {
                              "type" : "double",
                              "defaultValue" : 0.0,
                              "interp" : "linr"
                            },
                            "cursorOpacity" : {
                              "type" : "double",
                              "defaultValue" : 0.0,
                              "interp" : "linr"
                            }
                          },
                          "effects" : [

                          ],
                          "start" : 2167,
                          "duration" : 1,
                          "mediaStart" : 5771,
                          "mediaDuration" : 1,
                          "scalar" : 1,
                          "metadata" : {
                            "AutoAppliedSmartFocus" : "False"
                          },
                          "animationTracks" : {

                          }
                        },
                        {
                          "id" : 136,
                          "_type" : "ScreenVMFile",
                          "src" : 10,
                          "trackNumber" : 0,
                          "attributes" : {
                            "ident" : "Rec 02-08-22_003"
                          },
                          "parameters" : {
                            "sourceCrop0" : {
                              "type" : "double",
                              "defaultValue" : 0.0,
                              "interp" : "eioe"
                            },
                            "sourceCrop1" : {
                              "type" : "double",
                              "defaultValue" : 0.0,
                              "interp" : "eioe"
                            },
                            "sourceCrop2" : {
                              "type" : "double",
                              "defaultValue" : 0.0,
                              "interp" : "eioe"
                            },
                            "sourceCrop3" : {
                              "type" : "double",
                              "defaultValue" : 0.0,
                              "interp" : "eioe"
                            },
                            "geometryCrop0" : {
                              "type" : "double",
                              "defaultValue" : 0.0,
                              "interp" : "eioe"
                            },
                            "geometryCrop1" : {
                              "type" : "double",
                              "defaultValue" : 0.0,
                              "interp" : "eioe"
                            },
                            "geometryCrop2" : {
                              "type" : "double",
                              "defaultValue" : 0.0,
                              "interp" : "eioe"
                            },
                            "geometryCrop3" : {
                              "type" : "double",
                              "defaultValue" : 0.0,
                              "interp" : "eioe"
                            },
                            "cursorScale" : {
                              "type" : "double",
                              "defaultValue" : 0.0,
                              "interp" : "linr"
                            },
                            "cursorOpacity" : {
                              "type" : "double",
                              "defaultValue" : 0.0,
                              "interp" : "linr"
                            }
                          },
                          "effects" : [

                          ],
                          "start" : 2168,
                          "duration" : 122,
                          "mediaStart" : 5827,
                          "mediaDuration" : 122,
                          "scalar" : 1,
                          "metadata" : {
                            "AutoAppliedSmartFocus" : "False"
                          },
                          "animationTracks" : {

                          }
                        },
                        {
                          "id" : 137,
                          "_type" : "ScreenVMFile",
                          "src" : 10,
                          "trackNumber" : 0,
                          "attributes" : {
                            "ident" : "Rec 02-08-22_003"
                          },
                          "parameters" : {
                            "sourceCrop0" : {
                              "type" : "double",
                              "defaultValue" : 0.0,
                              "interp" : "eioe"
                            },
                            "sourceCrop1" : {
                              "type" : "double",
                              "defaultValue" : 0.0,
                              "interp" : "eioe"
                            },
                            "sourceCrop2" : {
                              "type" : "double",
                              "defaultValue" : 0.0,
                              "interp" : "eioe"
                            },
                            "sourceCrop3" : {
                              "type" : "double",
                              "defaultValue" : 0.0,
                              "interp" : "eioe"
                            },
                            "geometryCrop0" : {
                              "type" : "double",
                              "defaultValue" : 0.0,
                              "interp" : "eioe"
                            },
                            "geometryCrop1" : {
                              "type" : "double",
                              "defaultValue" : 0.0,
                              "interp" : "eioe"
                            },
                            "geometryCrop2" : {
                              "type" : "double",
                              "defaultValue" : 0.0,
                              "interp" : "eioe"
                            },
                            "geometryCrop3" : {
                              "type" : "double",
                              "defaultValue" : 0.0,
                              "interp" : "eioe"
                            },
                            "cursorScale" : {
                              "type" : "double",
                              "defaultValue" : 0.0,
                              "interp" : "linr"
                            },
                            "cursorOpacity" : {
                              "type" : "double",
                              "defaultValue" : 0.0,
                              "interp" : "linr"
                            }
                          },
                          "effects" : [

                          ],
                          "start" : 2290,
                          "duration" : 1699,
                          "mediaStart" : 5995,
                          "mediaDuration" : 1699,
                          "scalar" : 1,
                          "metadata" : {
                            "AutoAppliedSmartFocus" : "False"
                          },
                          "animationTracks" : {

                          }
                        }
                    ],
                    "effects" : [

                    ],
                    "start" : 13482,
                    "duration" : 576,
                    "mediaStart" : 3413,
                    "mediaDuration" : 576,
                    "scalar" : 1,
                    "metadata" : {
                      "AutoAppliedSmartFocus" : "False",
                      "clipSpeedAttribute" : false
                    },
                    "animationTracks" : {

                    }
                  }
                ]
              },
              {
                "trackIndex" : 1,
                "medias" : [
                  {
                    "id" : 138,
                    "_type" : "StitchedMedia",
                    "minMediaStart" : 0,
                    "attributes" : {
                      "ident" : "Rec 02-08-22",
                      "gain" : 1.0,
                      "mixToMono" : false
                    },
                    "parameters" : {
                      "volume" : {
                        "type" : "double",
                        "keyframes" : [
                          {
                            "endTime" : 0,
                            "time" : 0,
                            "value" : 1.0,
                            "duration" : 0
                          },
                          {
                            "endTime" : 183,
                            "time" : 183,
                            "value" : 1.0,
                            "duration" : 0
                          }
                        ]
                      },
                      "cursorOpacity" : 1.0,
                      "cursorScale" : 1.0
                    },
                    "medias" : [
                        {
                          "id" : 139,
                          "_type" : "AMFile",
                          "src" : 7,
                          "trackNumber" : 1,
                          "attributes" : {
                            "ident" : "",
                            "gain" : 1.0,
                            "mixToMono" : false
                          },
                            "channelNumber" : "0,1",
                          "effects" : [

                          ],
                          "start" : 0,
                          "duration" : 404,
                          "mediaStart" : 0,
                          "mediaDuration" : 404,
                          "scalar" : 1,
                          "animationTracks" : {

                          }
                        },
                        {
                          "id" : 140,
                          "_type" : "AMFile",
                          "src" : 7,
                          "trackNumber" : 1,
                          "attributes" : {
                            "ident" : "",
                            "gain" : 1.0,
                            "mixToMono" : false
                          },
                            "channelNumber" : "0,1",
                          "effects" : [

                          ],
                          "start" : 404,
                          "duration" : 1,
                          "mediaStart" : 422,
                          "mediaDuration" : 1,
                          "scalar" : 1,
                          "animationTracks" : {

                          }
                        },
                        {
                          "id" : 141,
                          "_type" : "AMFile",
                          "src" : 7,
                          "trackNumber" : 1,
                          "attributes" : {
                            "ident" : "",
                            "gain" : 1.0,
                            "mixToMono" : false
                          },
                            "channelNumber" : "0,1",
                          "effects" : [

                          ],
                          "start" : 405,
                          "duration" : 304,
                          "mediaStart" : 974,
                          "mediaDuration" : 304,
                          "scalar" : 1,
                          "animationTracks" : {

                          }
                        }
                    ],
                    "effects" : [

                    ],
                    "start" : 0,
                    "duration" : 450,
                    "mediaStart" : 183,
                    "mediaDuration" : 450,
                    "scalar" : 1,
                    "metadata" : {
                      "clipSpeedAttribute" : false
                    },
                    "animationTracks" : {

                    }
                  },
                  {
                    "id" : 142,
                    "_type" : "StitchedMedia",
                    "minMediaStart" : 0,
                    "attributes" : {
                      "ident" : "Rec 02-08-22_001",
                      "gain" : 1.0,
                      "mixToMono" : false
                    },
                    "parameters" : {
                      "volume" : {
                        "type" : "double",
                        "keyframes" : [
                          {
                            "endTime" : 0,
                            "time" : 0,
                            "value" : 1.0,
                            "duration" : 0
                          },
                          {
                            "endTime" : 613,
                            "time" : 613,
                            "value" : 1.0,
                            "duration" : 0
                          }
                        ]
                      },
                      "cursorOpacity" : 1.0,
                      "cursorScale" : 1.0
                    },
                    "medias" : [
                        {
                          "id" : 143,
                          "_type" : "AMFile",
                          "src" : 8,
                          "trackNumber" : 1,
                          "attributes" : {
                            "ident" : "",
                            "gain" : 1.0,
                            "mixToMono" : false
                          },
                            "channelNumber" : "0,1",
                          "effects" : [

                          ],
                          "start" : 0,
                          "duration" : 724,
                          "mediaStart" : 0,
                          "mediaDuration" : 724,
                          "scalar" : 1,
                          "animationTracks" : {

                          }
                        },
                        {
                          "id" : 144,
                          "_type" : "AMFile",
                          "src" : 8,
                          "trackNumber" : 1,
                          "attributes" : {
                            "ident" : "",
                            "gain" : 1.0,
                            "mixToMono" : false
                          },
                            "channelNumber" : "0,1",
                          "effects" : [

                          ],
                          "start" : 724,
                          "duration" : 81,
                          "mediaStart" : 732,
                          "mediaDuration" : 81,
                          "scalar" : 1,
                          "animationTracks" : {

                          }
                        },
                        {
                          "id" : 145,
                          "_type" : "AMFile",
                          "src" : 8,
                          "trackNumber" : 1,
                          "attributes" : {
                            "ident" : "",
                            "gain" : 1.0,
                            "mixToMono" : false
                          },
                            "channelNumber" : "0,1",
                          "effects" : [

                          ],
                          "start" : 805,
                          "duration" : 9,
                          "mediaStart" : 830,
                          "mediaDuration" : 9,
                          "scalar" : 1,
                          "animationTracks" : {

                          }
                        },
                        {
                          "id" : 146,
                          "_type" : "AMFile",
                          "src" : 8,
                          "trackNumber" : 1,
                          "attributes" : {
                            "ident" : "",
                            "gain" : 1.0,
                            "mixToMono" : false
                          },
                            "channelNumber" : "0,1",
                          "effects" : [

                          ],
                          "start" : 814,
                          "duration" : 194,
                          "mediaStart" : 855,
                          "mediaDuration" : 194,
                          "scalar" : 1,
                          "animationTracks" : {

                          }
                        },
                        {
                          "id" : 147,
                          "_type" : "AMFile",
                          "src" : 8,
                          "trackNumber" : 1,
                          "attributes" : {
                            "ident" : "",
                            "gain" : 1.0,
                            "mixToMono" : false
                          },
                            "channelNumber" : "0,1",
                          "effects" : [

                          ],
                          "start" : 1008,
                          "duration" : 106,
                          "mediaStart" : 1084,
                          "mediaDuration" : 106,
                          "scalar" : 1,
                          "animationTracks" : {

                          }
                        },
                        {
                          "id" : 148,
                          "_type" : "AMFile",
                          "src" : 8,
                          "trackNumber" : 1,
                          "attributes" : {
                            "ident" : "",
                            "gain" : 1.0,
                            "mixToMono" : false
                          },
                            "channelNumber" : "0,1",
                          "effects" : [

                          ],
                          "start" : 1114,
                          "duration" : 86,
                          "mediaStart" : 1216,
                          "mediaDuration" : 86,
                          "scalar" : 1,
                          "animationTracks" : {

                          }
                        },
                        {
                          "id" : 149,
                          "_type" : "AMFile",
                          "src" : 8,
                          "trackNumber" : 1,
                          "attributes" : {
                            "ident" : "",
                            "gain" : 1.0,
                            "mixToMono" : false
                          },
                            "channelNumber" : "0,1",
                          "effects" : [

                          ],
                          "start" : 1200,
                          "duration" : 100,
                          "mediaStart" : 1330,
                          "mediaDuration" : 100,
                          "scalar" : 1,
                          "animationTracks" : {

                          }
                        },
                        {
                          "id" : 150,
                          "_type" : "AMFile",
                          "src" : 8,
                          "trackNumber" : 1,
                          "attributes" : {
                            "ident" : "",
                            "gain" : 1.0,
                            "mixToMono" : false
                          },
                            "channelNumber" : "0,1",
                          "effects" : [

                          ],
                          "start" : 1300,
                          "duration" : 94,
                          "mediaStart" : 1502,
                          "mediaDuration" : 94,
                          "scalar" : 1,
                          "animationTracks" : {

                          }
                        },
                        {
                          "id" : 151,
                          "_type" : "AMFile",
                          "src" : 8,
                          "trackNumber" : 1,
                          "attributes" : {
                            "ident" : "",
                            "gain" : 1.0,
                            "mixToMono" : false
                          },
                            "channelNumber" : "0,1",
                          "effects" : [

                          ],
                          "start" : 1394,
                          "duration" : 106,
                          "mediaStart" : 1838,
                          "mediaDuration" : 106,
                          "scalar" : 1,
                          "animationTracks" : {

                          }
                        },
                        {
                          "id" : 152,
                          "_type" : "AMFile",
                          "src" : 8,
                          "trackNumber" : 1,
                          "attributes" : {
                            "ident" : "",
                            "gain" : 1.0,
                            "mixToMono" : false
                          },
                            "channelNumber" : "0,1",
                          "effects" : [

                          ],
                          "start" : 1500,
                          "duration" : 95,
                          "mediaStart" : 2013,
                          "mediaDuration" : 95,
                          "scalar" : 1,
                          "animationTracks" : {

                          }
                        },
                        {
                          "id" : 153,
                          "_type" : "AMFile",
                          "src" : 8,
                          "trackNumber" : 1,
                          "attributes" : {
                            "ident" : "",
                            "gain" : 1.0,
                            "mixToMono" : false
                          },
                            "channelNumber" : "0,1",
                          "effects" : [

                          ],
                          "start" : 1595,
                          "duration" : 90,
                          "mediaStart" : 2131,
                          "mediaDuration" : 90,
                          "scalar" : 1,
                          "animationTracks" : {

                          }
                        },
                        {
                          "id" : 154,
                          "_type" : "AMFile",
                          "src" : 8,
                          "trackNumber" : 1,
                          "attributes" : {
                            "ident" : "",
                            "gain" : 1.0,
                            "mixToMono" : false
                          },
                            "channelNumber" : "0,1",
                          "effects" : [

                          ],
                          "start" : 1685,
                          "duration" : 76,
                          "mediaStart" : 2255,
                          "mediaDuration" : 76,
                          "scalar" : 1,
                          "animationTracks" : {

                          }
                        },
                        {
                          "id" : 155,
                          "_type" : "AMFile",
                          "src" : 8,
                          "trackNumber" : 1,
                          "attributes" : {
                            "ident" : "",
                            "gain" : 1.0,
                            "mixToMono" : false
                          },
                            "channelNumber" : "0,1",
                          "effects" : [

                          ],
                          "start" : 1761,
                          "duration" : 331,
                          "mediaStart" : 2347,
                          "mediaDuration" : 331,
                          "scalar" : 1,
                          "animationTracks" : {

                          }
                        }
                    ],
                    "effects" : [

                    ],
                    "start" : 780,
                    "duration" : 1241,
                    "mediaStart" : 613,
                    "mediaDuration" : 1241,
                    "scalar" : 1,
                    "metadata" : {
                      "clipSpeedAttribute" : false
                    },
                    "animationTracks" : {

                    }
                  },
                  {
                    "id" : 156,
                    "_type" : "StitchedMedia",
                    "minMediaStart" : 0,
                    "attributes" : {
                      "ident" : "Rec 02-08-22_002",
                      "gain" : 1.0,
                      "mixToMono" : false
                    },
                    "parameters" : {
                      "volume" : 1.0,
                      "cursorOpacity" : 1.0,
                      "cursorScale" : 1.0
                    },
                    "medias" : [
                        {
                          "id" : 157,
                          "_type" : "AMFile",
                          "src" : 9,
                          "trackNumber" : 1,
                          "attributes" : {
                            "ident" : "",
                            "gain" : 1.0,
                            "mixToMono" : false
                          },
                            "channelNumber" : "0,1",
                          "effects" : [

                          ],
                          "start" : 0,
                          "duration" : 143,
                          "mediaStart" : 0,
                          "mediaDuration" : 143,
                          "scalar" : 1,
                          "animationTracks" : {

                          }
                        },
                        {
                          "id" : 158,
                          "_type" : "AMFile",
                          "src" : 9,
                          "trackNumber" : 1,
                          "attributes" : {
                            "ident" : "",
                            "gain" : 1.0,
                            "mixToMono" : false
                          },
                            "channelNumber" : "0,1",
                          "effects" : [

                          ],
                          "start" : 143,
                          "duration" : 396,
                          "mediaStart" : 211,
                          "mediaDuration" : 396,
                          "scalar" : 1,
                          "animationTracks" : {

                          }
                        },
                        {
                          "id" : 159,
                          "_type" : "AMFile",
                          "src" : 9,
                          "trackNumber" : 1,
                          "attributes" : {
                            "ident" : "",
                            "gain" : 1.0,
                            "mixToMono" : false
                          },
                            "channelNumber" : "0,1",
                          "effects" : [

                          ],
                          "start" : 539,
                          "duration" : 412,
                          "mediaStart" : 752,
                          "mediaDuration" : 412,
                          "scalar" : 1,
                          "animationTracks" : {

                          }
                        },
                        {
                          "id" : 160,
                          "_type" : "AMFile",
                          "src" : 9,
                          "trackNumber" : 1,
                          "attributes" : {
                            "ident" : "",
                            "gain" : 1.0,
                            "mixToMono" : false
                          },
                            "channelNumber" : "0,1",
                          "effects" : [

                          ],
                          "start" : 951,
                          "duration" : 136,
                          "mediaStart" : 1204,
                          "mediaDuration" : 136,
                          "scalar" : 1,
                          "animationTracks" : {

                          }
                        },
                        {
                          "id" : 161,
                          "_type" : "AMFile",
                          "src" : 9,
                          "trackNumber" : 1,
                          "attributes" : {
                            "ident" : "",
                            "gain" : 1.0,
                            "mixToMono" : false
                          },
                            "channelNumber" : "0,1",
                          "effects" : [

                          ],
                          "start" : 1087,
                          "duration" : 148,
                          "mediaStart" : 1419,
                          "mediaDuration" : 148,
                          "scalar" : 1,
                          "animationTracks" : {

                          }
                        },
                        {
                          "id" : 162,
                          "_type" : "AMFile",
                          "src" : 9,
                          "trackNumber" : 1,
                          "attributes" : {
                            "ident" : "",
                            "gain" : 1.0,
                            "mixToMono" : false
                          },
                            "channelNumber" : "0,1",
                          "effects" : [

                          ],
                          "start" : 1235,
                          "duration" : 590,
                          "mediaStart" : 1594,
                          "mediaDuration" : 590,
                          "scalar" : 1,
                          "animationTracks" : {

                          }
                        },
                        {
                          "id" : 163,
                          "_type" : "AMFile",
                          "src" : 9,
                          "trackNumber" : 1,
                          "attributes" : {
                            "ident" : "",
                            "gain" : 1.0,
                            "mixToMono" : false
                          },
                            "channelNumber" : "0,1",
                          "effects" : [

                          ],
                          "start" : 1825,
                          "duration" : 155,
                          "mediaStart" : 2256,
                          "mediaDuration" : 155,
                          "scalar" : 1,
                          "animationTracks" : {

                          }
                        },
                        {
                          "id" : 164,
                          "_type" : "AMFile",
                          "src" : 9,
                          "trackNumber" : 1,
                          "attributes" : {
                            "ident" : "",
                            "gain" : 1.0,
                            "mixToMono" : false
                          },
                            "channelNumber" : "0,1",
                          "effects" : [

                          ],
                          "start" : 1980,
                          "duration" : 410,
                          "mediaStart" : 2589,
                          "mediaDuration" : 410,
                          "scalar" : 1,
                          "animationTracks" : {

                          }
                        },
                        {
                          "id" : 165,
                          "_type" : "AMFile",
                          "src" : 9,
                          "trackNumber" : 1,
                          "attributes" : {
                            "ident" : "",
                            "gain" : 1.0,
                            "mixToMono" : false
                          },
                            "channelNumber" : "0,1",
                          "effects" : [

                          ],
                          "start" : 2390,
                          "duration" : 135,
                          "mediaStart" : 3175,
                          "mediaDuration" : 135,
                          "scalar" : 1,
                          "animationTracks" : {

                          }
                        },
                        {
                          "id" : 166,
                          "_type" : "AMFile",
                          "src" : 9,
                          "trackNumber" : 1,
                          "attributes" : {
                            "ident" : "",
                            "gain" : 1.0,
                            "mixToMono" : false
                          },
                            "channelNumber" : "0,1",
                          "effects" : [

                          ],
                          "start" : 2525,
                          "duration" : 105,
                          "mediaStart" : 3379,
                          "mediaDuration" : 105,
                          "scalar" : 1,
                          "animationTracks" : {

                          }
                        },
                        {
                          "id" : 167,
                          "_type" : "AMFile",
                          "src" : 9,
                          "trackNumber" : 1,
                          "attributes" : {
                            "ident" : "",
                            "gain" : 1.0,
                            "mixToMono" : false
                          },
                            "channelNumber" : "0,1",
                          "effects" : [

                          ],
                          "start" : 2630,
                          "duration" : 186,
                          "mediaStart" : 3532,
                          "mediaDuration" : 186,
                          "scalar" : 1,
                          "animationTracks" : {

                          }
                        },
                        {
                          "id" : 168,
                          "_type" : "AMFile",
                          "src" : 9,
                          "trackNumber" : 1,
                          "attributes" : {
                            "ident" : "",
                            "gain" : 1.0,
                            "mixToMono" : false
                          },
                            "channelNumber" : "0,1",
                          "effects" : [

                          ],
                          "start" : 2816,
                          "duration" : 58,
                          "mediaStart" : 3806,
                          "mediaDuration" : 58,
                          "scalar" : 1,
                          "animationTracks" : {

                          }
                        },
                        {
                          "id" : 169,
                          "_type" : "AMFile",
                          "src" : 9,
                          "trackNumber" : 1,
                          "attributes" : {
                            "ident" : "",
                            "gain" : 1.0,
                            "mixToMono" : false
                          },
                            "channelNumber" : "0,1",
                          "effects" : [

                          ],
                          "start" : 2874,
                          "duration" : 1,
                          "mediaStart" : 4011,
                          "mediaDuration" : 1,
                          "scalar" : 1,
                          "animationTracks" : {

                          }
                        },
                        {
                          "id" : 170,
                          "_type" : "AMFile",
                          "src" : 9,
                          "trackNumber" : 1,
                          "attributes" : {
                            "ident" : "",
                            "gain" : 1.0,
                            "mixToMono" : false
                          },
                            "channelNumber" : "0,1",
                          "effects" : [

                          ],
                          "start" : 2875,
                          "duration" : 36,
                          "mediaStart" : 4272,
                          "mediaDuration" : 36,
                          "scalar" : 1,
                          "animationTracks" : {

                          }
                        },
                        {
                          "id" : 171,
                          "_type" : "AMFile",
                          "src" : 9,
                          "trackNumber" : 1,
                          "attributes" : {
                            "ident" : "",
                            "gain" : 1.0,
                            "mixToMono" : false
                          },
                            "channelNumber" : "0,1",
                          "effects" : [

                          ],
                          "start" : 2911,
                          "duration" : 96,
                          "mediaStart" : 4340,
                          "mediaDuration" : 96,
                          "scalar" : 1,
                          "animationTracks" : {

                          }
                        },
                        {
                          "id" : 172,
                          "_type" : "AMFile",
                          "src" : 9,
                          "trackNumber" : 1,
                          "attributes" : {
                            "ident" : "",
                            "gain" : 1.0,
                            "mixToMono" : false
                          },
                            "channelNumber" : "0,1",
                          "effects" : [

                          ],
                          "start" : 3007,
                          "duration" : 159,
                          "mediaStart" : 4563,
                          "mediaDuration" : 159,
                          "scalar" : 1,
                          "animationTracks" : {

                          }
                        },
                        {
                          "id" : 173,
                          "_type" : "AMFile",
                          "src" : 9,
                          "trackNumber" : 1,
                          "attributes" : {
                            "ident" : "",
                            "gain" : 1.0,
                            "mixToMono" : false
                          },
                            "channelNumber" : "0,1",
                          "effects" : [

                          ],
                          "start" : 3166,
                          "duration" : 211,
                          "mediaStart" : 4757,
                          "mediaDuration" : 211,
                          "scalar" : 1,
                          "animationTracks" : {

                          }
                        },
                        {
                          "id" : 174,
                          "_type" : "AMFile",
                          "src" : 9,
                          "trackNumber" : 1,
                          "attributes" : {
                            "ident" : "",
                            "gain" : 1.0,
                            "mixToMono" : false
                          },
                            "channelNumber" : "0,1",
                          "effects" : [

                          ],
                          "start" : 3377,
                          "duration" : 54,
                          "mediaStart" : 4998,
                          "mediaDuration" : 54,
                          "scalar" : 1,
                          "animationTracks" : {

                          }
                        },
                        {
                          "id" : 175,
                          "_type" : "AMFile",
                          "src" : 9,
                          "trackNumber" : 1,
                          "attributes" : {
                            "ident" : "",
                            "gain" : 1.0,
                            "mixToMono" : false
                          },
                            "channelNumber" : "0,1",
                          "effects" : [

                          ],
                          "start" : 3431,
                          "duration" : 23,
                          "mediaStart" : 5142,
                          "mediaDuration" : 23,
                          "scalar" : 1,
                          "animationTracks" : {

                          }
                        },
                        {
                          "id" : 176,
                          "_type" : "AMFile",
                          "src" : 9,
                          "trackNumber" : 1,
                          "attributes" : {
                            "ident" : "",
                            "gain" : 1.0,
                            "mixToMono" : false
                          },
                            "channelNumber" : "0,1",
                          "effects" : [

                          ],
                          "start" : 3454,
                          "duration" : 71,
                          "mediaStart" : 5212,
                          "mediaDuration" : 71,
                          "scalar" : 1,
                          "animationTracks" : {

                          }
                        },
                        {
                          "id" : 177,
                          "_type" : "AMFile",
                          "src" : 9,
                          "trackNumber" : 1,
                          "attributes" : {
                            "ident" : "",
                            "gain" : 1.0,
                            "mixToMono" : false
                          },
                            "channelNumber" : "0,1",
                          "effects" : [

                          ],
                          "start" : 3525,
                          "duration" : 57,
                          "mediaStart" : 5310,
                          "mediaDuration" : 57,
                          "scalar" : 1,
                          "animationTracks" : {

                          }
                        },
                        {
                          "id" : 178,
                          "_type" : "AMFile",
                          "src" : 9,
                          "trackNumber" : 1,
                          "attributes" : {
                            "ident" : "",
                            "gain" : 1.0,
                            "mixToMono" : false
                          },
                            "channelNumber" : "0,1",
                          "effects" : [

                          ],
                          "start" : 3582,
                          "duration" : 133,
                          "mediaStart" : 5387,
                          "mediaDuration" : 133,
                          "scalar" : 1,
                          "animationTracks" : {

                          }
                        },
                        {
                          "id" : 179,
                          "_type" : "AMFile",
                          "src" : 9,
                          "trackNumber" : 1,
                          "attributes" : {
                            "ident" : "",
                            "gain" : 1.0,
                            "mixToMono" : false
                          },
                            "channelNumber" : "0,1",
                          "effects" : [

                          ],
                          "start" : 3715,
                          "duration" : 13,
                          "mediaStart" : 5549,
                          "mediaDuration" : 13,
                          "scalar" : 1,
                          "animationTracks" : {

                          }
                        },
                        {
                          "id" : 180,
                          "_type" : "AMFile",
                          "src" : 9,
                          "trackNumber" : 1,
                          "attributes" : {
                            "ident" : "",
                            "gain" : 1.0,
                            "mixToMono" : false
                          },
                            "channelNumber" : "0,1",
                          "effects" : [

                          ],
                          "start" : 3728,
                          "duration" : 376,
                          "mediaStart" : 5579,
                          "mediaDuration" : 376,
                          "scalar" : 1,
                          "animationTracks" : {

                          }
                        },
                        {
                          "id" : 181,
                          "_type" : "AMFile",
                          "src" : 9,
                          "trackNumber" : 1,
                          "attributes" : {
                            "ident" : "",
                            "gain" : 1.0,
                            "mixToMono" : false
                          },
                            "channelNumber" : "0,1",
                          "effects" : [

                          ],
                          "start" : 4104,
                          "duration" : 53,
                          "mediaStart" : 5979,
                          "mediaDuration" : 53,
                          "scalar" : 1,
                          "animationTracks" : {

                          }
                        },
                        {
                          "id" : 182,
                          "_type" : "AMFile",
                          "src" : 9,
                          "trackNumber" : 1,
                          "attributes" : {
                            "ident" : "",
                            "gain" : 1.0,
                            "mixToMono" : false
                          },
                            "channelNumber" : "0,1",
                          "effects" : [

                          ],
                          "start" : 4157,
                          "duration" : 47,
                          "mediaStart" : 6060,
                          "mediaDuration" : 47,
                          "scalar" : 1,
                          "animationTracks" : {

                          }
                        },
                        {
                          "id" : 183,
                          "_type" : "AMFile",
                          "src" : 9,
                          "trackNumber" : 1,
                          "attributes" : {
                            "ident" : "",
                            "gain" : 1.0,
                            "mixToMono" : false
                          },
                            "channelNumber" : "0,1",
                          "effects" : [

                          ],
                          "start" : 4204,
                          "duration" : 122,
                          "mediaStart" : 6278,
                          "mediaDuration" : 122,
                          "scalar" : 1,
                          "animationTracks" : {

                          }
                        },
                        {
                          "id" : 184,
                          "_type" : "AMFile",
                          "src" : 9,
                          "trackNumber" : 1,
                          "attributes" : {
                            "ident" : "",
                            "gain" : 1.0,
                            "mixToMono" : false
                          },
                            "channelNumber" : "0,1",
                          "effects" : [

                          ],
                          "start" : 4326,
                          "duration" : 64,
                          "mediaStart" : 6459,
                          "mediaDuration" : 64,
                          "scalar" : 1,
                          "animationTracks" : {

                          }
                        },
                        {
                          "id" : 185,
                          "_type" : "AMFile",
                          "src" : 9,
                          "trackNumber" : 1,
                          "attributes" : {
                            "ident" : "",
                            "gain" : 1.0,
                            "mixToMono" : false
                          },
                            "channelNumber" : "0,1",
                          "effects" : [

                          ],
                          "start" : 4390,
                          "duration" : 117,
                          "mediaStart" : 6562,
                          "mediaDuration" : 117,
                          "scalar" : 1,
                          "animationTracks" : {

                          }
                        },
                        {
                          "id" : 186,
                          "_type" : "AMFile",
                          "src" : 9,
                          "trackNumber" : 1,
                          "attributes" : {
                            "ident" : "",
                            "gain" : 1.0,
                            "mixToMono" : false
                          },
                            "channelNumber" : "0,1",
                          "effects" : [

                          ],
                          "start" : 4507,
                          "duration" : 86,
                          "mediaStart" : 6734,
                          "mediaDuration" : 86,
                          "scalar" : 1,
                          "animationTracks" : {

                          }
                        },
                        {
                          "id" : 187,
                          "_type" : "AMFile",
                          "src" : 9,
                          "trackNumber" : 1,
                          "attributes" : {
                            "ident" : "",
                            "gain" : 1.0,
                            "mixToMono" : false
                          },
                            "channelNumber" : "0,1",
                          "effects" : [

                          ],
                          "start" : 4593,
                          "duration" : 136,
                          "mediaStart" : 7582,
                          "mediaDuration" : 136,
                          "scalar" : 1,
                          "animationTracks" : {

                          }
                        },
                        {
                          "id" : 188,
                          "_type" : "AMFile",
                          "src" : 9,
                          "trackNumber" : 1,
                          "attributes" : {
                            "ident" : "",
                            "gain" : 1.0,
                            "mixToMono" : false
                          },
                            "channelNumber" : "0,1",
                          "effects" : [

                          ],
                          "start" : 4729,
                          "duration" : 241,
                          "mediaStart" : 7757,
                          "mediaDuration" : 241,
                          "scalar" : 1,
                          "animationTracks" : {

                          }
                        },
                        {
                          "id" : 189,
                          "_type" : "AMFile",
                          "src" : 9,
                          "trackNumber" : 1,
                          "attributes" : {
                            "ident" : "",
                            "gain" : 1.0,
                            "mixToMono" : false
                          },
                            "channelNumber" : "0,1",
                          "effects" : [

                          ],
                          "start" : 4970,
                          "duration" : 44,
                          "mediaStart" : 8053,
                          "mediaDuration" : 44,
                          "scalar" : 1,
                          "animationTracks" : {

                          }
                        },
                        {
                          "id" : 190,
                          "_type" : "AMFile",
                          "src" : 9,
                          "trackNumber" : 1,
                          "attributes" : {
                            "ident" : "",
                            "gain" : 1.0,
                            "mixToMono" : false
                          },
                            "channelNumber" : "0,1",
                          "effects" : [

                          ],
                          "start" : 5014,
                          "duration" : 13,
                          "mediaStart" : 8111,
                          "mediaDuration" : 13,
                          "scalar" : 1,
                          "animationTracks" : {

                          }
                        },
                        {
                          "id" : 191,
                          "_type" : "AMFile",
                          "src" : 9,
                          "trackNumber" : 1,
                          "attributes" : {
                            "ident" : "",
                            "gain" : 1.0,
                            "mixToMono" : false
                          },
                            "channelNumber" : "0,1",
                          "effects" : [

                          ],
                          "start" : 5027,
                          "duration" : 12,
                          "mediaStart" : 8147,
                          "mediaDuration" : 12,
                          "scalar" : 1,
                          "animationTracks" : {

                          }
                        },
                        {
                          "id" : 192,
                          "_type" : "AMFile",
                          "src" : 9,
                          "trackNumber" : 1,
                          "attributes" : {
                            "ident" : "",
                            "gain" : 1.0,
                            "mixToMono" : false
                          },
                            "channelNumber" : "0,1",
                          "effects" : [

                          ],
                          "start" : 5039,
                          "duration" : 172,
                          "mediaStart" : 8246,
                          "mediaDuration" : 172,
                          "scalar" : 1,
                          "animationTracks" : {

                          }
                        },
                        {
                          "id" : 193,
                          "_type" : "AMFile",
                          "src" : 9,
                          "trackNumber" : 1,
                          "attributes" : {
                            "ident" : "",
                            "gain" : 1.0,
                            "mixToMono" : false
                          },
                            "channelNumber" : "0,1",
                          "effects" : [

                          ],
                          "start" : 5211,
                          "duration" : 109,
                          "mediaStart" : 8483,
                          "mediaDuration" : 109,
                          "scalar" : 1,
                          "animationTracks" : {

                          }
                        },
                        {
                          "id" : 194,
                          "_type" : "AMFile",
                          "src" : 9,
                          "trackNumber" : 1,
                          "attributes" : {
                            "ident" : "",
                            "gain" : 1.0,
                            "mixToMono" : false
                          },
                            "channelNumber" : "0,1",
                          "effects" : [

                          ],
                          "start" : 5320,
                          "duration" : 16,
                          "mediaStart" : 8669,
                          "mediaDuration" : 16,
                          "scalar" : 1,
                          "animationTracks" : {

                          }
                        },
                        {
                          "id" : 195,
                          "_type" : "AMFile",
                          "src" : 9,
                          "trackNumber" : 1,
                          "attributes" : {
                            "ident" : "",
                            "gain" : 1.0,
                            "mixToMono" : false
                          },
                            "channelNumber" : "0,1",
                          "effects" : [

                          ],
                          "start" : 5336,
                          "duration" : 216,
                          "mediaStart" : 8736,
                          "mediaDuration" : 216,
                          "scalar" : 1,
                          "animationTracks" : {

                          }
                        },
                        {
                          "id" : 196,
                          "_type" : "AMFile",
                          "src" : 9,
                          "trackNumber" : 1,
                          "attributes" : {
                            "ident" : "",
                            "gain" : 1.0,
                            "mixToMono" : false
                          },
                            "channelNumber" : "0,1",
                          "effects" : [

                          ],
                          "start" : 5552,
                          "duration" : 151,
                          "mediaStart" : 9102,
                          "mediaDuration" : 151,
                          "scalar" : 1,
                          "animationTracks" : {

                          }
                        },
                        {
                          "id" : 197,
                          "_type" : "AMFile",
                          "src" : 9,
                          "trackNumber" : 1,
                          "attributes" : {
                            "ident" : "",
                            "gain" : 1.0,
                            "mixToMono" : false
                          },
                            "channelNumber" : "0,1",
                          "effects" : [

                          ],
                          "start" : 5703,
                          "duration" : 170,
                          "mediaStart" : 9293,
                          "mediaDuration" : 170,
                          "scalar" : 1,
                          "animationTracks" : {

                          }
                        },
                        {
                          "id" : 198,
                          "_type" : "AMFile",
                          "src" : 9,
                          "trackNumber" : 1,
                          "attributes" : {
                            "ident" : "",
                            "gain" : 1.0,
                            "mixToMono" : false
                          },
                            "channelNumber" : "0,1",
                          "effects" : [

                          ],
                          "start" : 5873,
                          "duration" : 513,
                          "mediaStart" : 9595,
                          "mediaDuration" : 513,
                          "scalar" : 1,
                          "animationTracks" : {

                          }
                        },
                        {
                          "id" : 199,
                          "_type" : "AMFile",
                          "src" : 9,
                          "trackNumber" : 1,
                          "attributes" : {
                            "ident" : "",
                            "gain" : 1.0,
                            "mixToMono" : false
                          },
                            "channelNumber" : "0,1",
                          "effects" : [

                          ],
                          "start" : 6386,
                          "duration" : 388,
                          "mediaStart" : 10140,
                          "mediaDuration" : 388,
                          "scalar" : 1,
                          "animationTracks" : {

                          }
                        },
                        {
                          "id" : 200,
                          "_type" : "AMFile",
                          "src" : 9,
                          "trackNumber" : 1,
                          "attributes" : {
                            "ident" : "",
                            "gain" : 1.0,
                            "mixToMono" : false
                          },
                            "channelNumber" : "0,1",
                          "effects" : [

                          ],
                          "start" : 6774,
                          "duration" : 125,
                          "mediaStart" : 10577,
                          "mediaDuration" : 125,
                          "scalar" : 1,
                          "animationTracks" : {

                          }
                        },
                        {
                          "id" : 201,
                          "_type" : "AMFile",
                          "src" : 9,
                          "trackNumber" : 1,
                          "attributes" : {
                            "ident" : "",
                            "gain" : 1.0,
                            "mixToMono" : false
                          },
                            "channelNumber" : "0,1",
                          "effects" : [

                          ],
                          "start" : 6899,
                          "duration" : 160,
                          "mediaStart" : 10757,
                          "mediaDuration" : 160,
                          "scalar" : 1,
                          "animationTracks" : {

                          }
                        },
                        {
                          "id" : 202,
                          "_type" : "AMFile",
                          "src" : 9,
                          "trackNumber" : 1,
                          "attributes" : {
                            "ident" : "",
                            "gain" : 1.0,
                            "mixToMono" : false
                          },
                            "channelNumber" : "0,1",
                          "effects" : [

                          ],
                          "start" : 7059,
                          "duration" : 20,
                          "mediaStart" : 11401,
                          "mediaDuration" : 20,
                          "scalar" : 1,
                          "animationTracks" : {

                          }
                        },
                        {
                          "id" : 203,
                          "_type" : "AMFile",
                          "src" : 9,
                          "trackNumber" : 1,
                          "attributes" : {
                            "ident" : "",
                            "gain" : 1.0,
                            "mixToMono" : false
                          },
                            "channelNumber" : "0,1",
                          "effects" : [

                          ],
                          "start" : 7079,
                          "duration" : 18,
                          "mediaStart" : 11448,
                          "mediaDuration" : 18,
                          "scalar" : 1,
                          "animationTracks" : {

                          }
                        },
                        {
                          "id" : 204,
                          "_type" : "AMFile",
                          "src" : 9,
                          "trackNumber" : 1,
                          "attributes" : {
                            "ident" : "",
                            "gain" : 1.0,
                            "mixToMono" : false
                          },
                            "channelNumber" : "0,1",
                          "effects" : [

                          ],
                          "start" : 7097,
                          "duration" : 520,
                          "mediaStart" : 11644,
                          "mediaDuration" : 520,
                          "scalar" : 1,
                          "animationTracks" : {

                          }
                        },
                        {
                          "id" : 205,
                          "_type" : "AMFile",
                          "src" : 9,
                          "trackNumber" : 1,
                          "attributes" : {
                            "ident" : "",
                            "gain" : 1.0,
                            "mixToMono" : false
                          },
                            "channelNumber" : "0,1",
                          "effects" : [

                          ],
                          "start" : 7617,
                          "duration" : 477,
                          "mediaStart" : 12225,
                          "mediaDuration" : 477,
                          "scalar" : 1,
                          "animationTracks" : {

                          }
                        },
                        {
                          "id" : 206,
                          "_type" : "AMFile",
                          "src" : 9,
                          "trackNumber" : 1,
                          "attributes" : {
                            "ident" : "",
                            "gain" : 1.0,
                            "mixToMono" : false
                          },
                            "channelNumber" : "0,1",
                          "effects" : [

                          ],
                          "start" : 8094,
                          "duration" : 21,
                          "mediaStart" : 12771,
                          "mediaDuration" : 21,
                          "scalar" : 1,
                          "animationTracks" : {

                          }
                        },
                        {
                          "id" : 207,
                          "_type" : "AMFile",
                          "src" : 9,
                          "trackNumber" : 1,
                          "attributes" : {
                            "ident" : "",
                            "gain" : 1.0,
                            "mixToMono" : false
                          },
                            "channelNumber" : "0,1",
                          "effects" : [

                          ],
                          "start" : 8115,
                          "duration" : 123,
                          "mediaStart" : 12981,
                          "mediaDuration" : 123,
                          "scalar" : 1,
                          "animationTracks" : {

                          }
                        },
                        {
                          "id" : 208,
                          "_type" : "AMFile",
                          "src" : 9,
                          "trackNumber" : 1,
                          "attributes" : {
                            "ident" : "",
                            "gain" : 1.0,
                            "mixToMono" : false
                          },
                            "channelNumber" : "0,1",
                          "effects" : [

                          ],
                          "start" : 8238,
                          "duration" : 18,
                          "mediaStart" : 13196,
                          "mediaDuration" : 18,
                          "scalar" : 1,
                          "animationTracks" : {

                          }
                        },
                        {
                          "id" : 209,
                          "_type" : "AMFile",
                          "src" : 9,
                          "trackNumber" : 1,
                          "attributes" : {
                            "ident" : "",
                            "gain" : 1.0,
                            "mixToMono" : false
                          },
                            "channelNumber" : "0,1",
                          "effects" : [

                          ],
                          "start" : 8256,
                          "duration" : 73,
                          "mediaStart" : 13378,
                          "mediaDuration" : 73,
                          "scalar" : 1,
                          "animationTracks" : {

                          }
                        },
                        {
                          "id" : 210,
                          "_type" : "AMFile",
                          "src" : 9,
                          "trackNumber" : 1,
                          "attributes" : {
                            "ident" : "",
                            "gain" : 1.0,
                            "mixToMono" : false
                          },
                            "channelNumber" : "0,1",
                          "effects" : [

                          ],
                          "start" : 8329,
                          "duration" : 182,
                          "mediaStart" : 13496,
                          "mediaDuration" : 182,
                          "scalar" : 1,
                          "animationTracks" : {

                          }
                        },
                        {
                          "id" : 211,
                          "_type" : "AMFile",
                          "src" : 9,
                          "trackNumber" : 1,
                          "attributes" : {
                            "ident" : "",
                            "gain" : 1.0,
                            "mixToMono" : false
                          },
                            "channelNumber" : "0,1",
                          "effects" : [

                          ],
                          "start" : 8511,
                          "duration" : 105,
                          "mediaStart" : 13735,
                          "mediaDuration" : 105,
                          "scalar" : 1,
                          "animationTracks" : {

                          }
                        },
                        {
                          "id" : 212,
                          "_type" : "AMFile",
                          "src" : 9,
                          "trackNumber" : 1,
                          "attributes" : {
                            "ident" : "",
                            "gain" : 1.0,
                            "mixToMono" : false
                          },
                            "channelNumber" : "0,1",
                          "effects" : [

                          ],
                          "start" : 8616,
                          "duration" : 223,
                          "mediaStart" : 13915,
                          "mediaDuration" : 223,
                          "scalar" : 1,
                          "animationTracks" : {

                          }
                        },
                        {
                          "id" : 213,
                          "_type" : "AMFile",
                          "src" : 9,
                          "trackNumber" : 1,
                          "attributes" : {
                            "ident" : "",
                            "gain" : 1.0,
                            "mixToMono" : false
                          },
                            "channelNumber" : "0,1",
                          "effects" : [

                          ],
                          "start" : 8839,
                          "duration" : 144,
                          "mediaStart" : 14280,
                          "mediaDuration" : 144,
                          "scalar" : 1,
                          "animationTracks" : {

                          }
                        },
                        {
                          "id" : 214,
                          "_type" : "AMFile",
                          "src" : 9,
                          "trackNumber" : 1,
                          "attributes" : {
                            "ident" : "",
                            "gain" : 1.0,
                            "mixToMono" : false
                          },
                            "channelNumber" : "0,1",
                          "effects" : [

                          ],
                          "start" : 8983,
                          "duration" : 96,
                          "mediaStart" : 14580,
                          "mediaDuration" : 96,
                          "scalar" : 1,
                          "animationTracks" : {

                          }
                        }
                    ],
                    "effects" : [

                    ],
                    "start" : 2021,
                    "duration" : 9062,
                    "mediaStart" : 0,
                    "mediaDuration" : 9062,
                    "scalar" : 1,
                    "metadata" : {
                      "clipSpeedAttribute" : false
                    },
                    "animationTracks" : {

                    }
                  },
                  {
                    "id" : 215,
                    "_type" : "StitchedMedia",
                    "minMediaStart" : 0,
                    "attributes" : {
                      "ident" : "Rec 02-08-22_003",
                      "gain" : 1.0,
                      "mixToMono" : false
                    },
                    "parameters" : {
                      "volume" : {
                        "type" : "double",
                        "keyframes" : [
                          {
                            "endTime" : 0,
                            "time" : 0,
                            "value" : 1.0,
                            "duration" : 0
                          },
                          {
                            "endTime" : 40,
                            "time" : 40,
                            "value" : 1.0,
                            "duration" : 0
                          }
                        ]
                      },
                      "cursorOpacity" : 1.0,
                      "cursorScale" : 1.0
                    },
                    "medias" : [
                        {
                          "id" : 216,
                          "_type" : "AMFile",
                          "src" : 10,
                          "trackNumber" : 1,
                          "attributes" : {
                            "ident" : "",
                            "gain" : 1.0,
                            "mixToMono" : false
                          },
                            "channelNumber" : "0,1",
                          "effects" : [

                          ],
                          "start" : 0,
                          "duration" : 98,
                          "mediaStart" : 0,
                          "mediaDuration" : 98,
                          "scalar" : 1,
                          "animationTracks" : {

                          }
                        },
                        {
                          "id" : 217,
                          "_type" : "AMFile",
                          "src" : 10,
                          "trackNumber" : 1,
                          "attributes" : {
                            "ident" : "",
                            "gain" : 1.0,
                            "mixToMono" : false
                          },
                            "channelNumber" : "0,1",
                          "effects" : [

                          ],
                          "start" : 98,
                          "duration" : 42,
                          "mediaStart" : 192,
                          "mediaDuration" : 42,
                          "scalar" : 1,
                          "animationTracks" : {

                          }
                        },
                        {
                          "id" : 218,
                          "_type" : "AMFile",
                          "src" : 10,
                          "trackNumber" : 1,
                          "attributes" : {
                            "ident" : "",
                            "gain" : 1.0,
                            "mixToMono" : false
                          },
                            "channelNumber" : "0,1",
                          "effects" : [

                          ],
                          "start" : 140,
                          "duration" : 104,
                          "mediaStart" : 257,
                          "mediaDuration" : 104,
                          "scalar" : 1,
                          "animationTracks" : {

                          }
                        },
                        {
                          "id" : 219,
                          "_type" : "AMFile",
                          "src" : 10,
                          "trackNumber" : 1,
                          "attributes" : {
                            "ident" : "",
                            "gain" : 1.0,
                            "mixToMono" : false
                          },
                            "channelNumber" : "0,1",
                          "effects" : [

                          ],
                          "start" : 244,
                          "duration" : 17,
                          "mediaStart" : 392,
                          "mediaDuration" : 17,
                          "scalar" : 1,
                          "animationTracks" : {

                          }
                        },
                        {
                          "id" : 220,
                          "_type" : "AMFile",
                          "src" : 10,
                          "trackNumber" : 1,
                          "attributes" : {
                            "ident" : "",
                            "gain" : 1.0,
                            "mixToMono" : false
                          },
                            "channelNumber" : "0,1",
                          "effects" : [

                          ],
                          "start" : 261,
                          "duration" : 128,
                          "mediaStart" : 1154,
                          "mediaDuration" : 128,
                          "scalar" : 1,
                          "animationTracks" : {

                          }
                        },
                        {
                          "id" : 221,
                          "_type" : "AMFile",
                          "src" : 10,
                          "trackNumber" : 1,
                          "attributes" : {
                            "ident" : "",
                            "gain" : 1.0,
                            "mixToMono" : false
                          },
                            "channelNumber" : "0,1",
                          "effects" : [

                          ],
                          "start" : 389,
                          "duration" : 12,
                          "mediaStart" : 1316,
                          "mediaDuration" : 12,
                          "scalar" : 1,
                          "animationTracks" : {

                          }
                        },
                        {
                          "id" : 222,
                          "_type" : "AMFile",
                          "src" : 10,
                          "trackNumber" : 1,
                          "attributes" : {
                            "ident" : "",
                            "gain" : 1.0,
                            "mixToMono" : false
                          },
                            "channelNumber" : "0,1",
                          "effects" : [

                          ],
                          "start" : 401,
                          "duration" : 95,
                          "mediaStart" : 1363,
                          "mediaDuration" : 95,
                          "scalar" : 1,
                          "animationTracks" : {

                          }
                        },
                        {
                          "id" : 223,
                          "_type" : "AMFile",
                          "src" : 10,
                          "trackNumber" : 1,
                          "attributes" : {
                            "ident" : "",
                            "gain" : 1.0,
                            "mixToMono" : false
                          },
                            "channelNumber" : "0,1",
                          "effects" : [

                          ],
                          "start" : 496,
                          "duration" : 15,
                          "mediaStart" : 1513,
                          "mediaDuration" : 15,
                          "scalar" : 1,
                          "animationTracks" : {

                          }
                        },
                        {
                          "id" : 224,
                          "_type" : "AMFile",
                          "src" : 10,
                          "trackNumber" : 1,
                          "attributes" : {
                            "ident" : "",
                            "gain" : 1.0,
                            "mixToMono" : false
                          },
                            "channelNumber" : "0,1",
                          "effects" : [

                          ],
                          "start" : 511,
                          "duration" : 486,
                          "mediaStart" : 1984,
                          "mediaDuration" : 486,
                          "scalar" : 1,
                          "animationTracks" : {

                          }
                        },
                        {
                          "id" : 225,
                          "_type" : "AMFile",
                          "src" : 10,
                          "trackNumber" : 1,
                          "attributes" : {
                            "ident" : "",
                            "gain" : 1.0,
                            "mixToMono" : false
                          },
                            "channelNumber" : "0,1",
                          "effects" : [

                          ],
                          "start" : 997,
                          "duration" : 37,
                          "mediaStart" : 2506,
                          "mediaDuration" : 37,
                          "scalar" : 1,
                          "animationTracks" : {

                          }
                        },
                        {
                          "id" : 226,
                          "_type" : "AMFile",
                          "src" : 10,
                          "trackNumber" : 1,
                          "attributes" : {
                            "ident" : "",
                            "gain" : 1.0,
                            "mixToMono" : false
                          },
                            "channelNumber" : "0,1",
                          "effects" : [

                          ],
                          "start" : 1034,
                          "duration" : 71,
                          "mediaStart" : 2594,
                          "mediaDuration" : 71,
                          "scalar" : 1,
                          "animationTracks" : {

                          }
                        },
                        {
                          "id" : 227,
                          "_type" : "AMFile",
                          "src" : 10,
                          "trackNumber" : 1,
                          "attributes" : {
                            "ident" : "",
                            "gain" : 1.0,
                            "mixToMono" : false
                          },
                            "channelNumber" : "0,1",
                          "effects" : [

                          ],
                          "start" : 1105,
                          "duration" : 187,
                          "mediaStart" : 3036,
                          "mediaDuration" : 187,
                          "scalar" : 1,
                          "animationTracks" : {

                          }
                        },
                        {
                          "id" : 228,
                          "_type" : "AMFile",
                          "src" : 10,
                          "trackNumber" : 1,
                          "attributes" : {
                            "ident" : "",
                            "gain" : 1.0,
                            "mixToMono" : false
                          },
                            "channelNumber" : "0,1",
                          "effects" : [

                          ],
                          "start" : 1292,
                          "duration" : 136,
                          "mediaStart" : 3255,
                          "mediaDuration" : 136,
                          "scalar" : 1,
                          "animationTracks" : {

                          }
                        },
                        {
                          "id" : 229,
                          "_type" : "AMFile",
                          "src" : 10,
                          "trackNumber" : 1,
                          "attributes" : {
                            "ident" : "",
                            "gain" : 1.0,
                            "mixToMono" : false
                          },
                            "channelNumber" : "0,1",
                          "effects" : [

                          ],
                          "start" : 1428,
                          "duration" : 76,
                          "mediaStart" : 3438,
                          "mediaDuration" : 76,
                          "scalar" : 1,
                          "animationTracks" : {

                          }
                        },
                        {
                          "id" : 230,
                          "_type" : "AMFile",
                          "src" : 10,
                          "trackNumber" : 1,
                          "attributes" : {
                            "ident" : "",
                            "gain" : 1.0,
                            "mixToMono" : false
                          },
                            "channelNumber" : "0,1",
                          "effects" : [

                          ],
                          "start" : 1504,
                          "duration" : 30,
                          "mediaStart" : 3568,
                          "mediaDuration" : 30,
                          "scalar" : 1,
                          "animationTracks" : {

                          }
                        },
                        {
                          "id" : 231,
                          "_type" : "AMFile",
                          "src" : 10,
                          "trackNumber" : 1,
                          "attributes" : {
                            "ident" : "",
                            "gain" : 1.0,
                            "mixToMono" : false
                          },
                            "channelNumber" : "0,1",
                          "effects" : [

                          ],
                          "start" : 1534,
                          "duration" : 67,
                          "mediaStart" : 3620,
                          "mediaDuration" : 67,
                          "scalar" : 1,
                          "animationTracks" : {

                          }
                        },
                        {
                          "id" : 232,
                          "_type" : "AMFile",
                          "src" : 10,
                          "trackNumber" : 1,
                          "attributes" : {
                            "ident" : "",
                            "gain" : 1.0,
                            "mixToMono" : false
                          },
                            "channelNumber" : "0,1",
                          "effects" : [

                          ],
                          "start" : 1601,
                          "duration" : 185,
                          "mediaStart" : 4018,
                          "mediaDuration" : 185,
                          "scalar" : 1,
                          "animationTracks" : {

                          }
                        },
                        {
                          "id" : 233,
                          "_type" : "AMFile",
                          "src" : 10,
                          "trackNumber" : 1,
                          "attributes" : {
                            "ident" : "",
                            "gain" : 1.0,
                            "mixToMono" : false
                          },
                            "channelNumber" : "0,1",
                          "effects" : [

                          ],
                          "start" : 1786,
                          "duration" : 43,
                          "mediaStart" : 4255,
                          "mediaDuration" : 43,
                          "scalar" : 1,
                          "animationTracks" : {

                          }
                        },
                        {
                          "id" : 234,
                          "_type" : "AMFile",
                          "src" : 10,
                          "trackNumber" : 1,
                          "attributes" : {
                            "ident" : "",
                            "gain" : 1.0,
                            "mixToMono" : false
                          },
                            "channelNumber" : "0,1",
                          "effects" : [

                          ],
                          "start" : 1829,
                          "duration" : 207,
                          "mediaStart" : 4368,
                          "mediaDuration" : 207,
                          "scalar" : 1,
                          "animationTracks" : {

                          }
                        },
                        {
                          "id" : 235,
                          "_type" : "AMFile",
                          "src" : 10,
                          "trackNumber" : 1,
                          "attributes" : {
                            "ident" : "",
                            "gain" : 1.0,
                            "mixToMono" : false
                          },
                            "channelNumber" : "0,1",
                          "effects" : [

                          ],
                          "start" : 2036,
                          "duration" : 131,
                          "mediaStart" : 5560,
                          "mediaDuration" : 131,
                          "scalar" : 1,
                          "animationTracks" : {

                          }
                        },
                        {
                          "id" : 236,
                          "_type" : "AMFile",
                          "src" : 10,
                          "trackNumber" : 1,
                          "attributes" : {
                            "ident" : "",
                            "gain" : 1.0,
                            "mixToMono" : false
                          },
                            "channelNumber" : "0,1",
                          "effects" : [

                          ],
                          "start" : 2167,
                          "duration" : 1,
                          "mediaStart" : 5771,
                          "mediaDuration" : 1,
                          "scalar" : 1,
                          "animationTracks" : {

                          }
                        },
                        {
                          "id" : 237,
                          "_type" : "AMFile",
                          "src" : 10,
                          "trackNumber" : 1,
                          "attributes" : {
                            "ident" : "",
                            "gain" : 1.0,
                            "mixToMono" : false
                          },
                            "channelNumber" : "0,1",
                          "effects" : [

                          ],
                          "start" : 2168,
                          "duration" : 122,
                          "mediaStart" : 5827,
                          "mediaDuration" : 122,
                          "scalar" : 1,
                          "animationTracks" : {

                          }
                        },
                        {
                          "id" : 238,
                          "_type" : "AMFile",
                          "src" : 10,
                          "trackNumber" : 1,
                          "attributes" : {
                            "ident" : "",
                            "gain" : 1.0,
                            "mixToMono" : false
                          },
                            "channelNumber" : "0,1",
                          "effects" : [

                          ],
                          "start" : 2290,
                          "duration" : 1715,
                          "mediaStart" : 5995,
                          "mediaDuration" : 1715,
                          "scalar" : 1,
                          "animationTracks" : {

                          }
                        }
                    ],
                    "effects" : [

                    ],
                    "start" : 11083,
                    "duration" : 2399,
                    "mediaStart" : 40,
                    "mediaDuration" : 2399,
                    "scalar" : 1,
                    "metadata" : {
                      "clipSpeedAttribute" : false
                    },
                    "animationTracks" : {

                    }
                  },
                  {
                    "id" : 239,
                    "_type" : "StitchedMedia",
                    "minMediaStart" : 0,
                    "attributes" : {
                      "ident" : "Rec 02-08-22_003",
                      "gain" : 1.0,
                      "mixToMono" : false
                    },
                    "parameters" : {
                      "volume" : {
                        "type" : "double",
                        "keyframes" : [
                          {
                            "endTime" : 0,
                            "time" : 0,
                            "value" : 1.0,
                            "duration" : 0
                          },
                          {
                            "endTime" : 3413,
                            "time" : 3413,
                            "value" : 1.0,
                            "duration" : 0
                          }
                        ]
                      },
                      "cursorOpacity" : 1.0,
                      "cursorScale" : 1.0
                    },
                    "medias" : [
                        {
                          "id" : 240,
                          "_type" : "AMFile",
                          "src" : 10,
                          "trackNumber" : 1,
                          "attributes" : {
                            "ident" : "",
                            "gain" : 1.0,
                            "mixToMono" : false
                          },
                            "channelNumber" : "0,1",
                          "effects" : [

                          ],
                          "start" : 0,
                          "duration" : 98,
                          "mediaStart" : 0,
                          "mediaDuration" : 98,
                          "scalar" : 1,
                          "animationTracks" : {

                          }
                        },
                        {
                          "id" : 241,
                          "_type" : "AMFile",
                          "src" : 10,
                          "trackNumber" : 1,
                          "attributes" : {
                            "ident" : "",
                            "gain" : 1.0,
                            "mixToMono" : false
                          },
                            "channelNumber" : "0,1",
                          "effects" : [

                          ],
                          "start" : 98,
                          "duration" : 42,
                          "mediaStart" : 192,
                          "mediaDuration" : 42,
                          "scalar" : 1,
                          "animationTracks" : {

                          }
                        },
                        {
                          "id" : 242,
                          "_type" : "AMFile",
                          "src" : 10,
                          "trackNumber" : 1,
                          "attributes" : {
                            "ident" : "",
                            "gain" : 1.0,
                            "mixToMono" : false
                          },
                            "channelNumber" : "0,1",
                          "effects" : [

                          ],
                          "start" : 140,
                          "duration" : 104,
                          "mediaStart" : 257,
                          "mediaDuration" : 104,
                          "scalar" : 1,
                          "animationTracks" : {

                          }
                        },
                        {
                          "id" : 243,
                          "_type" : "AMFile",
                          "src" : 10,
                          "trackNumber" : 1,
                          "attributes" : {
                            "ident" : "",
                            "gain" : 1.0,
                            "mixToMono" : false
                          },
                            "channelNumber" : "0,1",
                          "effects" : [

                          ],
                          "start" : 244,
                          "duration" : 17,
                          "mediaStart" : 392,
                          "mediaDuration" : 17,
                          "scalar" : 1,
                          "animationTracks" : {

                          }
                        },
                        {
                          "id" : 244,
                          "_type" : "AMFile",
                          "src" : 10,
                          "trackNumber" : 1,
                          "attributes" : {
                            "ident" : "",
                            "gain" : 1.0,
                            "mixToMono" : false
                          },
                            "channelNumber" : "0,1",
                          "effects" : [

                          ],
                          "start" : 261,
                          "duration" : 128,
                          "mediaStart" : 1154,
                          "mediaDuration" : 128,
                          "scalar" : 1,
                          "animationTracks" : {

                          }
                        },
                        {
                          "id" : 245,
                          "_type" : "AMFile",
                          "src" : 10,
                          "trackNumber" : 1,
                          "attributes" : {
                            "ident" : "",
                            "gain" : 1.0,
                            "mixToMono" : false
                          },
                            "channelNumber" : "0,1",
                          "effects" : [

                          ],
                          "start" : 389,
                          "duration" : 12,
                          "mediaStart" : 1316,
                          "mediaDuration" : 12,
                          "scalar" : 1,
                          "animationTracks" : {

                          }
                        },
                        {
                          "id" : 246,
                          "_type" : "AMFile",
                          "src" : 10,
                          "trackNumber" : 1,
                          "attributes" : {
                            "ident" : "",
                            "gain" : 1.0,
                            "mixToMono" : false
                          },
                            "channelNumber" : "0,1",
                          "effects" : [

                          ],
                          "start" : 401,
                          "duration" : 95,
                          "mediaStart" : 1363,
                          "mediaDuration" : 95,
                          "scalar" : 1,
                          "animationTracks" : {

                          }
                        },
                        {
                          "id" : 247,
                          "_type" : "AMFile",
                          "src" : 10,
                          "trackNumber" : 1,
                          "attributes" : {
                            "ident" : "",
                            "gain" : 1.0,
                            "mixToMono" : false
                          },
                            "channelNumber" : "0,1",
                          "effects" : [

                          ],
                          "start" : 496,
                          "duration" : 15,
                          "mediaStart" : 1513,
                          "mediaDuration" : 15,
                          "scalar" : 1,
                          "animationTracks" : {

                          }
                        },
                        {
                          "id" : 248,
                          "_type" : "AMFile",
                          "src" : 10,
                          "trackNumber" : 1,
                          "attributes" : {
                            "ident" : "",
                            "gain" : 1.0,
                            "mixToMono" : false
                          },
                            "channelNumber" : "0,1",
                          "effects" : [

                          ],
                          "start" : 511,
                          "duration" : 486,
                          "mediaStart" : 1984,
                          "mediaDuration" : 486,
                          "scalar" : 1,
                          "animationTracks" : {

                          }
                        },
                        {
                          "id" : 249,
                          "_type" : "AMFile",
                          "src" : 10,
                          "trackNumber" : 1,
                          "attributes" : {
                            "ident" : "",
                            "gain" : 1.0,
                            "mixToMono" : false
                          },
                            "channelNumber" : "0,1",
                          "effects" : [

                          ],
                          "start" : 997,
                          "duration" : 37,
                          "mediaStart" : 2506,
                          "mediaDuration" : 37,
                          "scalar" : 1,
                          "animationTracks" : {

                          }
                        },
                        {
                          "id" : 250,
                          "_type" : "AMFile",
                          "src" : 10,
                          "trackNumber" : 1,
                          "attributes" : {
                            "ident" : "",
                            "gain" : 1.0,
                            "mixToMono" : false
                          },
                            "channelNumber" : "0,1",
                          "effects" : [

                          ],
                          "start" : 1034,
                          "duration" : 71,
                          "mediaStart" : 2594,
                          "mediaDuration" : 71,
                          "scalar" : 1,
                          "animationTracks" : {

                          }
                        },
                        {
                          "id" : 251,
                          "_type" : "AMFile",
                          "src" : 10,
                          "trackNumber" : 1,
                          "attributes" : {
                            "ident" : "",
                            "gain" : 1.0,
                            "mixToMono" : false
                          },
                            "channelNumber" : "0,1",
                          "effects" : [

                          ],
                          "start" : 1105,
                          "duration" : 187,
                          "mediaStart" : 3036,
                          "mediaDuration" : 187,
                          "scalar" : 1,
                          "animationTracks" : {

                          }
                        },
                        {
                          "id" : 252,
                          "_type" : "AMFile",
                          "src" : 10,
                          "trackNumber" : 1,
                          "attributes" : {
                            "ident" : "",
                            "gain" : 1.0,
                            "mixToMono" : false
                          },
                            "channelNumber" : "0,1",
                          "effects" : [

                          ],
                          "start" : 1292,
                          "duration" : 136,
                          "mediaStart" : 3255,
                          "mediaDuration" : 136,
                          "scalar" : 1,
                          "animationTracks" : {

                          }
                        },
                        {
                          "id" : 253,
                          "_type" : "AMFile",
                          "src" : 10,
                          "trackNumber" : 1,
                          "attributes" : {
                            "ident" : "",
                            "gain" : 1.0,
                            "mixToMono" : false
                          },
                            "channelNumber" : "0,1",
                          "effects" : [

                          ],
                          "start" : 1428,
                          "duration" : 76,
                          "mediaStart" : 3438,
                          "mediaDuration" : 76,
                          "scalar" : 1,
                          "animationTracks" : {

                          }
                        },
                        {
                          "id" : 254,
                          "_type" : "AMFile",
                          "src" : 10,
                          "trackNumber" : 1,
                          "attributes" : {
                            "ident" : "",
                            "gain" : 1.0,
                            "mixToMono" : false
                          },
                            "channelNumber" : "0,1",
                          "effects" : [

                          ],
                          "start" : 1504,
                          "duration" : 30,
                          "mediaStart" : 3568,
                          "mediaDuration" : 30,
                          "scalar" : 1,
                          "animationTracks" : {

                          }
                        },
                        {
                          "id" : 255,
                          "_type" : "AMFile",
                          "src" : 10,
                          "trackNumber" : 1,
                          "attributes" : {
                            "ident" : "",
                            "gain" : 1.0,
                            "mixToMono" : false
                          },
                            "channelNumber" : "0,1",
                          "effects" : [

                          ],
                          "start" : 1534,
                          "duration" : 67,
                          "mediaStart" : 3620,
                          "mediaDuration" : 67,
                          "scalar" : 1,
                          "animationTracks" : {

                          }
                        },
                        {
                          "id" : 256,
                          "_type" : "AMFile",
                          "src" : 10,
                          "trackNumber" : 1,
                          "attributes" : {
                            "ident" : "",
                            "gain" : 1.0,
                            "mixToMono" : false
                          },
                            "channelNumber" : "0,1",
                          "effects" : [

                          ],
                          "start" : 1601,
                          "duration" : 185,
                          "mediaStart" : 4018,
                          "mediaDuration" : 185,
                          "scalar" : 1,
                          "animationTracks" : {

                          }
                        },
                        {
                          "id" : 257,
                          "_type" : "AMFile",
                          "src" : 10,
                          "trackNumber" : 1,
                          "attributes" : {
                            "ident" : "",
                            "gain" : 1.0,
                            "mixToMono" : false
                          },
                            "channelNumber" : "0,1",
                          "effects" : [

                          ],
                          "start" : 1786,
                          "duration" : 43,
                          "mediaStart" : 4255,
                          "mediaDuration" : 43,
                          "scalar" : 1,
                          "animationTracks" : {

                          }
                        },
                        {
                          "id" : 258,
                          "_type" : "AMFile",
                          "src" : 10,
                          "trackNumber" : 1,
                          "attributes" : {
                            "ident" : "",
                            "gain" : 1.0,
                            "mixToMono" : false
                          },
                            "channelNumber" : "0,1",
                          "effects" : [

                          ],
                          "start" : 1829,
                          "duration" : 207,
                          "mediaStart" : 4368,
                          "mediaDuration" : 207,
                          "scalar" : 1,
                          "animationTracks" : {

                          }
                        },
                        {
                          "id" : 259,
                          "_type" : "AMFile",
                          "src" : 10,
                          "trackNumber" : 1,
                          "attributes" : {
                            "ident" : "",
                            "gain" : 1.0,
                            "mixToMono" : false
                          },
                            "channelNumber" : "0,1",
                          "effects" : [

                          ],
                          "start" : 2036,
                          "duration" : 131,
                          "mediaStart" : 5560,
                          "mediaDuration" : 131,
                          "scalar" : 1,
                          "animationTracks" : {

                          }
                        },
                        {
                          "id" : 260,
                          "_type" : "AMFile",
                          "src" : 10,
                          "trackNumber" : 1,
                          "attributes" : {
                            "ident" : "",
                            "gain" : 1.0,
                            "mixToMono" : false
                          },
                            "channelNumber" : "0,1",
                          "effects" : [

                          ],
                          "start" : 2167,
                          "duration" : 1,
                          "mediaStart" : 5771,
                          "mediaDuration" : 1,
                          "scalar" : 1,
                          "animationTracks" : {

                          }
                        },
                        {
                          "id" : 261,
                          "_type" : "AMFile",
                          "src" : 10,
                          "trackNumber" : 1,
                          "attributes" : {
                            "ident" : "",
                            "gain" : 1.0,
                            "mixToMono" : false
                          },
                            "channelNumber" : "0,1",
                          "effects" : [

                          ],
                          "start" : 2168,
                          "duration" : 122,
                          "mediaStart" : 5827,
                          "mediaDuration" : 122,
                          "scalar" : 1,
                          "animationTracks" : {

                          }
                        },
                        {
                          "id" : 262,
                          "_type" : "AMFile",
                          "src" : 10,
                          "trackNumber" : 1,
                          "attributes" : {
                            "ident" : "",
                            "gain" : 1.0,
                            "mixToMono" : false
                          },
                            "channelNumber" : "0,1",
                          "effects" : [

                          ],
                          "start" : 2290,
                          "duration" : 1715,
                          "mediaStart" : 5995,
                          "mediaDuration" : 1715,
                          "scalar" : 1,
                          "animationTracks" : {

                          }
                        }
                    ],
                    "effects" : [

                    ],
                    "start" : 13482,
                    "duration" : 576,
                    "mediaStart" : 3413,
                    "mediaDuration" : 576,
                    "scalar" : 1,
                    "metadata" : {
                      "clipSpeedAttribute" : false
                    },
                    "animationTracks" : {

                    }
                  }
                ]
              },
              {
                "trackIndex" : 2,
                "medias" : [
                  {
                    "id" : 263,
                    "_type" : "AMFile",
                    "src" : 11,
                    "trackNumber" : 0,
                    "attributes" : {
                      "ident" : "Audio_Cleaned",
                      "gain" : 1.0,
                      "mixToMono" : false
                    },
                      "channelNumber" : "0,1",
                    "effects" : [

                    ],
                    "start" : 0,
                    "duration" : 14058,
                    "mediaStart" : 0,
                    "mediaDuration" : 14058,
                    "scalar" : 1,
                    "metadata" : {
                      "clipSpeedAttribute" : false
                    },
                    "animationTracks" : {

                    }
                  }
                ]
              },
              {
                "trackIndex" : 3,
                "medias" : [
                  {
                    "id" : 264,
                    "_type" : "IMFile",
                    "src" : 2,
                    "trackNumber" : 0,
                    "trimStartSum" : 0,
                    "attributes" : {
                      "ident" : "Ribbon Logo and Name"
                    },
                    "parameters" : {
                      "translation1" : {
                        "type" : "double",
                        "defaultValue" : -513.5,
                        "interp" : "eioe"
                      },
                      "sourceCrop0" : {
                        "type" : "double",
                        "defaultValue" : 0.0,
                        "interp" : "eioe"
                      },
                      "sourceCrop1" : {
                        "type" : "double",
                        "defaultValue" : 0.0,
                        "interp" : "eioe"
                      },
                      "sourceCrop2" : {
                        "type" : "double",
                        "defaultValue" : 0.0,
                        "interp" : "eioe"
                      },
                      "sourceCrop3" : {
                        "type" : "double",
                        "defaultValue" : 0.0,
                        "interp" : "eioe"
                      },
                      "geometryCrop0" : {
                        "type" : "double",
                        "defaultValue" : 0.0,
                        "interp" : "eioe"
                      },
                      "geometryCrop1" : {
                        "type" : "double",
                        "defaultValue" : 0.0,
                        "interp" : "eioe"
                      },
                      "geometryCrop2" : {
                        "type" : "double",
                        "defaultValue" : 0.0,
                        "interp" : "eioe"
                      },
                      "geometryCrop3" : {
                        "type" : "double",
                        "defaultValue" : 0.0,
                        "interp" : "eioe"
                      }
                    },
                    "effects" : [

                    ],
                    "start" : 0,
                    "duration" : 2021,
                    "mediaStart" : 0,
                    "mediaDuration" : 1,
                    "scalar" : 1,
                    "metadata" : {
                      "clipSpeedAttribute" : false,
                      "default-height" : 53.0,
                      "default-translation1" : -0.5,
                      "default-width" : 1920.0
                    },
                    "animationTracks" : {

                    }
                  },
                  {
                    "id" : 265,
                    "_type" : "IMFile",
                    "src" : 1,
                    "trackNumber" : 0,
                    "trimStartSum" : 0,
                    "attributes" : {
                      "ident" : "Outro"
                    },
                    "parameters" : {
                      "scale0" : {
                        "type" : "double",
                        "defaultValue" : 0.996309963099631,
                        "interp" : "eioe"
                      },
                      "scale1" : {
                        "type" : "double",
                        "defaultValue" : 0.996309963099631,
                        "interp" : "eioe"
                      },
                      "sourceCrop0" : {
                        "type" : "double",
                        "defaultValue" : 0.0,
                        "interp" : "eioe"
                      },
                      "sourceCrop1" : {
                        "type" : "double",
                        "defaultValue" : 0.0,
                        "interp" : "eioe"
                      },
                      "sourceCrop2" : {
                        "type" : "double",
                        "defaultValue" : 0.0,
                        "interp" : "eioe"
                      },
                      "sourceCrop3" : {
                        "type" : "double",
                        "defaultValue" : 0.0,
                        "interp" : "eioe"
                      },
                      "geometryCrop0" : {
                        "type" : "double",
                        "defaultValue" : 0.0,
                        "interp" : "eioe"
                      },
                      "geometryCrop1" : {
                        "type" : "double",
                        "defaultValue" : 0.0,
                        "interp" : "eioe"
                      },
                      "geometryCrop2" : {
                        "type" : "double",
                        "defaultValue" : 0.0,
                        "interp" : "eioe"
                      },
                      "geometryCrop3" : {
                        "type" : "double",
                        "defaultValue" : 0.0,
                        "interp" : "eioe"
                      }
                    },
                    "effects" : [

                    ],
                    "start" : 13458,
                    "duration" : 600,
                    "mediaStart" : 0,
                    "mediaDuration" : 1,
                    "scalar" : 1,
                    "metadata" : {
                      "clipSpeedAttribute" : false
                    },
                    "animationTracks" : {

                    }
                  }
                ]
              },
              {
                "trackIndex" : 4,
                "medias" : [
                  {
                    "id" : 266,
                    "_type" : "Group",
                    "parameters" : {
                      "sourceCrop0" : {
                        "type" : "double",
                        "defaultValue" : 0.0,
                        "interp" : "eioe"
                      },
                      "sourceCrop1" : {
                        "type" : "double",
                        "defaultValue" : 0.0,
                        "interp" : "eioe"
                      },
                      "sourceCrop2" : {
                        "type" : "double",
                        "defaultValue" : 0.0,
                        "interp" : "eioe"
                      },
                      "sourceCrop3" : {
                        "type" : "double",
                        "defaultValue" : 0.0,
                        "interp" : "eioe"
                      },
                      "geometryCrop0" : {
                        "type" : "double",
                        "defaultValue" : 0.0,
                        "interp" : "eioe"
                      },
                      "geometryCrop1" : {
                        "type" : "double",
                        "defaultValue" : 0.0,
                        "interp" : "eioe"
                      },
                      "geometryCrop2" : {
                        "type" : "double",
                        "defaultValue" : 0.0,
                        "interp" : "eioe"
                      },
                      "geometryCrop3" : {
                        "type" : "double",
                        "defaultValue" : 0.0,
                        "interp" : "eioe"
                      },
                      "volume" : 1.0
                    },
                    "tracks" : [
                      {
                        "trackIndex" : 0,
                        "medias" : [
                          {
                            "id" : 267,
                            "_type" : "IMFile",
                            "src" : 4,
                            "trackNumber" : 0,
                            "trimStartSum" : 0,
                            "attributes" : {
                              "ident" : "DAO Intro Background"
                            },
                            "parameters" : {
                              "scale0" : {
                                "type" : "double",
                                "defaultValue" : 0.997916666666667,
                                "interp" : "eioe"
                              },
                              "scale1" : {
                                "type" : "double",
                                "defaultValue" : 0.997916666666667,
                                "interp" : "eioe"
                              },
                              "sourceCrop0" : {
                                "type" : "double",
                                "defaultValue" : 0.0,
                                "interp" : "eioe"
                              },
                              "sourceCrop1" : {
                                "type" : "double",
                                "defaultValue" : 0.0,
                                "interp" : "eioe"
                              },
                              "sourceCrop2" : {
                                "type" : "double",
                                "defaultValue" : 0.0,
                                "interp" : "eioe"
                              },
                              "sourceCrop3" : {
                                "type" : "double",
                                "defaultValue" : 0.0,
                                "interp" : "eioe"
                              },
                              "geometryCrop0" : {
                                "type" : "double",
                                "defaultValue" : 0.0,
                                "interp" : "eioe"
                              },
                              "geometryCrop1" : {
                                "type" : "double",
                                "defaultValue" : 0.0,
                                "interp" : "eioe"
                              },
                              "geometryCrop2" : {
                                "type" : "double",
                                "defaultValue" : 0.0,
                                "interp" : "eioe"
                              },
                              "geometryCrop3" : {
                                "type" : "double",
                                "defaultValue" : 0.0,
                                "interp" : "eioe"
                              }
                            },
                            "effects" : [

                            ],
                            "start" : 0,
                            "duration" : 450,
                            "mediaStart" : 0,
                            "mediaDuration" : 1,
                            "scalar" : 1,
                            "metadata" : {
                              "clipSpeedAttribute" : false
                            },
                            "animationTracks" : {

                            }
                          }
                        ],
                        "transitions" : [
                          {
                            "name" : "Fade",
                            "duration" : 15,
                            "trivial" : false,
                            "reverse" : false,
                            "bypass" : false,
                            "useAudioPreRoll" : true,
                            "useVisualPreRoll" : true,
                            "leftMedia" : 267
                          }
                        ],
                          "ident" : "",
                          "audioMuted" : false,
                          "videoHidden" : false,
                          "magnetic" : false,
                          "matte" : 0,
                          "solo" : false,
                          "metadata" : {
                            "IsLocked" : "False",
                            "WinTrackHeight" : "56"
                          }
                      },
                      {
                        "trackIndex" : 1,
                        "medias" : [
                          {
                            "id" : 268,
                            "_type" : "AMFile",
                            "src" : 5,
                            "trackNumber" : 0,
                            "attributes" : {
                              "ident" : "White River - Aakash Gandhi",
                              "gain" : 1.0,
                              "mixToMono" : false
                            },
                              "channelNumber" : "0,1",
                            "parameters" : {
                              "volume" : {
                                "type" : "double",
                                "keyframes" : [
                                  {
                                    "endTime" : 0,
                                    "time" : 0,
                                    "value" : 0.151324085750315,
                                    "duration" : 0
                                  },
                                  {
                                    "endTime" : 360,
                                    "time" : 360,
                                    "value" : 0.151324085750315,
                                    "duration" : 0
                                  },
                                  {
                                    "endTime" : 450,
                                    "time" : 450,
                                    "value" : 0.0,
                                    "duration" : 0
                                  },
                                  {
                                    "endTime" : 451,
                                    "time" : 451,
                                    "value" : 0.151324085750315,
                                    "duration" : 0
                                  }
                                ]
                              }
                            },
                            "effects" : [

                            ],
                            "start" : 0,
                            "duration" : 450,
                            "mediaStart" : 0,
                            "mediaDuration" : 450,
                            "scalar" : 1,
                            "metadata" : {
                              "clipSpeedAttribute" : false
                            },
                            "animationTracks" : {

                            }
                          }
                        ],
                          "ident" : "",
                          "audioMuted" : false,
                          "videoHidden" : false,
                          "magnetic" : false,
                          "matte" : 0,
                          "solo" : false,
                          "metadata" : {
                            "IsLocked" : "False",
                            "WinTrackHeight" : "56"
                          }
                      },
                      {
                        "trackIndex" : 2,
                        "medias" : [
                          {
                            "id" : 269,
                            "_type" : "IMFile",
                            "src" : 6,
                            "trackNumber" : 0,
                            "trimStartSum" : 0,
                            "attributes" : {
                              "ident" : "DAO Intro Card"
                            },
                            "parameters" : {
                              "sourceCrop0" : {
                                "type" : "double",
                                "defaultValue" : 0.0,
                                "interp" : "eioe"
                              },
                              "sourceCrop1" : {
                                "type" : "double",
                                "defaultValue" : 0.0,
                                "interp" : "eioe"
                              },
                              "sourceCrop2" : {
                                "type" : "double",
                                "defaultValue" : 0.0,
                                "interp" : "eioe"
                              },
                              "sourceCrop3" : {
                                "type" : "double",
                                "defaultValue" : 0.0,
                                "interp" : "eioe"
                              },
                              "geometryCrop0" : {
                                "type" : "double",
                                "defaultValue" : 0.0,
                                "interp" : "eioe"
                              },
                              "geometryCrop1" : {
                                "type" : "double",
                                "defaultValue" : 0.0,
                                "interp" : "eioe"
                              },
                              "geometryCrop2" : {
                                "type" : "double",
                                "defaultValue" : 0.0,
                                "interp" : "eioe"
                              },
                              "geometryCrop3" : {
                                "type" : "double",
                                "defaultValue" : 0.0,
                                "interp" : "eioe"
                              }
                            },
                            "effects" : [
                                {
                                  "_type" : "GenericBehaviorEffect",
                                  "effectName" : "flyIn",
                                  "bypassed" : false,
                                  "start" : 0,
                                  "duration" : 450                                ,
                                  "in" : {
                                    "attributes" : {
                                      "name" : "flyIn",
                                      "type" : 0,
                                      "characterOrder" : 6,
                                      "offsetBetweenCharacters" : 2,
                                      "suggestedDurationPerCharacter" : 18,
                                      "overlapProportion" : "1/4",
                                      "movement" : 0,
                                      "springDamping" : 5.0,
                                      "springStiffness" : 50.0,
                                      "bounceBounciness" : 0.45
                                    }
                                  
                                  },
                                  "center" : {
                                    "attributes" : {
                                      "name" : "none",
                                      "type" : 0,
                                      "characterOrder" : 6,
                                      "offsetBetweenCharacters" : 0,
                                      "secondsPerLoop" : 1,
                                      "numberOfLoops" : -1,
                                      "delayBetweenLoops" : 0,
                                      "offsetBetweenCharacters" : 0
                                    }
                                  
                                  },
                                  "out" : {
                                    "attributes" : {
                                      "name" : "flyOut",
                                      "type" : 0,
                                      "characterOrder" : 6,
                                      "offsetBetweenCharacters" : 2,
                                      "suggestedDurationPerCharacter" : "29/2",
                                      "overlapProportion" : "1/4",
                                      "movement" : 0,
                                      "springDamping" : 5.0,
                                      "springStiffness" : 50.0,
                                      "bounceBounciness" : 0.45
                                    }
                                  
                                  },
                                  "metadata" : {
                                    "presetName" : "Fly In"
                                  }
                                }
                            ],
                            "start" : 0,
                            "duration" : 450,
                            "mediaStart" : 0,
                            "mediaDuration" : 1,
                            "scalar" : 1,
                            "metadata" : {
                              "clipSpeedAttribute" : false
                            },
                            "animationTracks" : {

                            }
                          }
                        ],
                        "transitions" : [
                          {
                            "name" : "Fade",
                            "duration" : 30,
                            "trivial" : false,
                            "reverse" : false,
                            "bypass" : false,
                            "useAudioPreRoll" : true,
                            "useVisualPreRoll" : true,
                            "leftMedia" : 269
                          }
                        ],
                          "ident" : "",
                          "audioMuted" : false,
                          "videoHidden" : false,
                          "magnetic" : false,
                          "matte" : 0,
                          "solo" : false,
                          "metadata" : {
                            "IsLocked" : "False",
                            "WinTrackHeight" : "56"
                          }
                      },
                      {
                        "trackIndex" : 3,
                        "medias" : [
                          {
                            "id" : 270,
                            "_type" : "Callout",
                            "def" : {
                              "kind" : "remix",
                              "shape" : "text",
                              "style" : "basic",
                              "height" : {
                                "type" : "double",
                                "defaultValue" : 300.0,
                                "interp" : "linr"
                              },
                              "line-spacing" : {
                                "type" : "double",
                                "defaultValue" : 0.0,
                                "interp" : "linr"
                              },
                              "width" : {
                                "type" : "double",
                                "defaultValue" : 480.0,
                                "interp" : "linr"
                              },
                              "word-wrap" : {
                                "type" : "double",
                                "defaultValue" : 1.0,
                                "interp" : "linr"
                              },
                              "horizontal-alignment" : "center",
                              "resize-behavior" : "resizeText",
                              "text" : "#7",
                              "vertical-alignment" : "center",
                              "font" : {
                                "color-blue" : {
                                  "type" : "double",
                                  "defaultValue" : 1.0,
                                  "interp" : "linr"
                                },
                                "color-green" : {
                                  "type" : "double",
                                  "defaultValue" : 1.0,
                                  "interp" : "linr"
                                },
                                "color-red" : {
                                  "type" : "double",
                                  "defaultValue" : 1.0,
                                  "interp" : "linr"
                                },
                                "size" : {
                                  "type" : "double",
                                  "defaultValue" : 96.0,
                                  "interp" : "linr"
                                },
                                "tracking" : {
                                  "type" : "double",
                                  "defaultValue" : 0.0,
                                  "interp" : "linr"
                                },
                                "name" : "Montserrat",
                                "weight" : "Regular"
                              },
                              "textAttributes" : {
                                "type" : "textAttributeList",
                                "keyframes" : [
                                  {
                                    "endTime" : 0,
                                    "time" : 0,
                                    "value" : [{"name":"strikethrough","rangeEnd":2,"rangeStart":0,"value":0,"valueType":"int"},{"name":"fontItalic","rangeEnd":2,"rangeStart":0,"value":2,"valueType":"int"},{"name":"underline","rangeEnd":2,"rangeStart":0,"value":0,"valueType":"int"},{"name":"fgColor","rangeEnd":2,"rangeStart":0,"value":"(255,255,255,255)","valueType":"color"},{"name":"kerning","rangeEnd":2,"rangeStart":0,"value":0,"valueType":"double"},{"name":"fontName","rangeEnd":2,"rangeStart":0,"value":"Roboto Black","valueType":"string"},{"name":"fontSize","rangeEnd":2,"rangeStart":0,"value":256,"valueType":"double"},{"name":"fontWeight","rangeEnd":2,"rangeStart":0,"value":700,"valueType":"int"}],
                                    "duration" : 0
                                  }
                                ]
                              }
                            },
                            "attributes" : {
                              "autoRotateText" : true
                            },
                            "parameters" : {
                              "translation0" : {
                                "type" : "double",
                                "defaultValue" : -541.768292682844,
                                "interp" : "eioe"
                              },
                              "translation1" : {
                                "type" : "double",
                                "defaultValue" : 209.722222222272,
                                "interp" : "eioe"
                              },
                              "sourceCrop0" : {
                                "type" : "double",
                                "defaultValue" : 0.0,
                                "interp" : "eioe"
                              },
                              "sourceCrop1" : {
                                "type" : "double",
                                "defaultValue" : 0.0,
                                "interp" : "eioe"
                              },
                              "sourceCrop2" : {
                                "type" : "double",
                                "defaultValue" : 0.0,
                                "interp" : "eioe"
                              },
                              "sourceCrop3" : {
                                "type" : "double",
                                "defaultValue" : 0.0,
                                "interp" : "eioe"
                              },
                              "geometryCrop0" : {
                                "type" : "double",
                                "defaultValue" : 0.0,
                                "interp" : "eioe"
                              },
                              "geometryCrop1" : {
                                "type" : "double",
                                "defaultValue" : 0.0,
                                "interp" : "eioe"
                              },
                              "geometryCrop2" : {
                                "type" : "double",
                                "defaultValue" : 0.0,
                                "interp" : "eioe"
                              },
                              "geometryCrop3" : {
                                "type" : "double",
                                "defaultValue" : 0.0,
                                "interp" : "eioe"
                              }
                            },
                            "effects" : [
                                {
                                  "_type" : "GenericBehaviorEffect",
                                  "effectName" : "flyIn",
                                  "bypassed" : false,
                                  "start" : 1,
                                  "duration" : 360                                ,
                                  "in" : {
                                    "attributes" : {
                                      "name" : "flyIn",
                                      "type" : 1,
                                      "characterOrder" : 6,
                                      "offsetBetweenCharacters" : 2,
                                      "suggestedDurationPerCharacter" : 18,
                                      "overlapProportion" : "1/4",
                                      "movement" : 0,
                                      "springDamping" : 5.0,
                                      "springStiffness" : 50.0,
                                      "bounceBounciness" : 0.45
                                    }
                                  
                                  },
                                  "center" : {
                                    "attributes" : {
                                      "name" : "none",
                                      "type" : 1,
                                      "characterOrder" : 6,
                                      "offsetBetweenCharacters" : 0,
                                      "secondsPerLoop" : 1,
                                      "numberOfLoops" : -1,
                                      "delayBetweenLoops" : 0,
                                      "offsetBetweenCharacters" : 0
                                    }
                                  
                                  },
                                  "out" : {
                                    "attributes" : {
                                      "name" : "flyOut",
                                      "type" : 1,
                                      "characterOrder" : 6,
                                      "offsetBetweenCharacters" : 2,
                                      "suggestedDurationPerCharacter" : "29/2",
                                      "overlapProportion" : "1/4",
                                      "movement" : 0,
                                      "springDamping" : 5.0,
                                      "springStiffness" : 50.0,
                                      "bounceBounciness" : 0.45
                                    }
                                  
                                  },
                                  "metadata" : {
                                    "presetName" : "Fly In"
                                  }
                                }
                            ],
                            "start" : 90,
                            "duration" : 360,
                            "mediaStart" : 1,
                            "mediaDuration" : 360,
                            "scalar" : 1,
                            "metadata" : {
                              "clipSpeedAttribute" : false,
                              "default-HAlign" : "center",
                              "default-LineSpace" : 0.0,
                              "default-VAlign" : "center",
                              "default-text-attributes" : "[{\"name\":\"kerning\",\"rangeEnd\":2,\"rangeStart\":0,\"value\":0,\"valueType\":\"double\"},{\"name\":\"underline\",\"rangeEnd\":2,\"rangeStart\":0,\"value\":0,\"valueType\":\"int\"},{\"name\":\"strikethrough\",\"rangeEnd\":2,\"rangeStart\":0,\"value\":0,\"valueType\":\"int\"},{\"name\":\"fontSize\",\"rangeEnd\":2,\"rangeStart\":0,\"value\":256,\"valueType\":\"double\"},{\"name\":\"fontWeight\",\"rangeEnd\":2,\"rangeStart\":0,\"value\":700,\"valueType\":\"int\"},{\"name\":\"fontItalic\",\"rangeEnd\":2,\"rangeStart\":0,\"value\":2,\"valueType\":\"int\"},{\"name\":\"fontName\",\"rangeEnd\":2,\"rangeStart\":0,\"value\":\"Roboto Black\",\"valueType\":\"string\"},{\"name\":\"fgColor\",\"rangeEnd\":2,\"rangeStart\":0,\"value\":\"(255,255,255,255)\",\"valueType\":\"color\"}]"
                            },
                            "animationTracks" : {

                            }
                          }
                        ],
                        "transitions" : [
                          {
                            "name" : "Fade",
                            "duration" : 30,
                            "trivial" : false,
                            "reverse" : false,
                            "bypass" : false,
                            "useAudioPreRoll" : true,
                            "useVisualPreRoll" : true,
                            "leftMedia" : 270
                          }
                        ],
                          "ident" : "",
                          "audioMuted" : false,
                          "videoHidden" : false,
                          "magnetic" : false,
                          "matte" : 0,
                          "solo" : false,
                          "metadata" : {
                            "IsLocked" : "False",
                            "WinTrackHeight" : "56"
                          }
                      },
                      {
                        "trackIndex" : 4,
                        "medias" : [
                          {
                            "id" : 271,
                            "_type" : "Callout",
                            "def" : {
                              "kind" : "remix",
                              "shape" : "text",
                              "style" : "basic",
                              "height" : {
                                "type" : "double",
                                "defaultValue" : 400.609756097561,
                                "interp" : "linr"
                              },
                              "line-spacing" : {
                                "type" : "double",
                                "defaultValue" : 0.0,
                                "interp" : "linr"
                              },
                              "width" : {
                                "type" : "double",
                                "defaultValue" : 640.975609756098,
                                "interp" : "linr"
                              },
                              "word-wrap" : {
                                "type" : "double",
                                "defaultValue" : 1.0,
                                "interp" : "linr"
                              },
                              "horizontal-alignment" : "center",
                              "resize-behavior" : "resizeText",
                              "text" : "DAO CRUD Retrieve All",
                              "vertical-alignment" : "center",
                              "font" : {
                                "color-blue" : {
                                  "type" : "double",
                                  "defaultValue" : 1.0,
                                  "interp" : "linr"
                                },
                                "color-green" : {
                                  "type" : "double",
                                  "defaultValue" : 1.0,
                                  "interp" : "linr"
                                },
                                "color-red" : {
                                  "type" : "double",
                                  "defaultValue" : 1.0,
                                  "interp" : "linr"
                                },
                                "size" : {
                                  "type" : "double",
                                  "defaultValue" : 96.0,
                                  "interp" : "linr"
                                },
                                "tracking" : {
                                  "type" : "double",
                                  "defaultValue" : 0.0,
                                  "interp" : "linr"
                                },
                                "name" : "Montserrat",
                                "weight" : "Regular"
                              },
                              "textAttributes" : {
                                "type" : "textAttributeList",
                                "keyframes" : [
                                  {
                                    "endTime" : 0,
                                    "time" : 0,
                                    "value" : [{"name":"fontWeight","rangeEnd":21,"rangeStart":0,"value":700,"valueType":"int"},{"name":"fgColor","rangeEnd":21,"rangeStart":0,"value":"(255,255,255,255)","valueType":"color"},{"name":"fontItalic","rangeEnd":21,"rangeStart":0,"value":2,"valueType":"int"},{"name":"fontName","rangeEnd":21,"rangeStart":0,"value":"Roboto Black","valueType":"string"},{"name":"strikethrough","rangeEnd":21,"rangeStart":0,"value":0,"valueType":"int"},{"name":"fontSize","rangeEnd":21,"rangeStart":0,"value":256,"valueType":"double"},{"name":"underline","rangeEnd":21,"rangeStart":0,"value":0,"valueType":"int"},{"name":"kerning","rangeEnd":21,"rangeStart":0,"value":0,"valueType":"double"}],
                                    "duration" : 0
                                  }
                                ]
                              }
                            },
                            "attributes" : {
                              "autoRotateText" : true
                            },
                            "parameters" : {
                              "translation0" : {
                                "type" : "double",
                                "defaultValue" : 556.821138211511,
                                "interp" : "eioe"
                              },
                              "translation1" : {
                                "type" : "double",
                                "defaultValue" : 209.917344173541,
                                "interp" : "eioe"
                              },
                              "sourceCrop0" : {
                                "type" : "double",
                                "defaultValue" : 0.0,
                                "interp" : "eioe"
                              },
                              "sourceCrop1" : {
                                "type" : "double",
                                "defaultValue" : 0.0,
                                "interp" : "eioe"
                              },
                              "sourceCrop2" : {
                                "type" : "double",
                                "defaultValue" : 0.0,
                                "interp" : "eioe"
                              },
                              "sourceCrop3" : {
                                "type" : "double",
                                "defaultValue" : 0.0,
                                "interp" : "eioe"
                              },
                              "geometryCrop0" : {
                                "type" : "double",
                                "defaultValue" : 0.0,
                                "interp" : "eioe"
                              },
                              "geometryCrop1" : {
                                "type" : "double",
                                "defaultValue" : 0.0,
                                "interp" : "eioe"
                              },
                              "geometryCrop2" : {
                                "type" : "double",
                                "defaultValue" : 0.0,
                                "interp" : "eioe"
                              },
                              "geometryCrop3" : {
                                "type" : "double",
                                "defaultValue" : 0.0,
                                "interp" : "eioe"
                              }
                            },
                            "effects" : [
                                {
                                  "_type" : "GenericBehaviorEffect",
                                  "effectName" : "flyIn",
                                  "bypassed" : false,
                                  "start" : 0,
                                  "duration" : 300                                ,
                                  "in" : {
                                    "attributes" : {
                                      "name" : "flyIn",
                                      "type" : 1,
                                      "characterOrder" : 6,
                                      "offsetBetweenCharacters" : 2,
                                      "suggestedDurationPerCharacter" : 18,
                                      "overlapProportion" : "1/4",
                                      "movement" : 0,
                                      "springDamping" : 5.0,
                                      "springStiffness" : 50.0,
                                      "bounceBounciness" : 0.45
                                    }
                                  
                                  },
                                  "center" : {
                                    "attributes" : {
                                      "name" : "none",
                                      "type" : 1,
                                      "characterOrder" : 6,
                                      "offsetBetweenCharacters" : 0,
                                      "secondsPerLoop" : 1,
                                      "numberOfLoops" : -1,
                                      "delayBetweenLoops" : 0,
                                      "offsetBetweenCharacters" : 0
                                    }
                                  
                                  },
                                  "out" : {
                                    "attributes" : {
                                      "name" : "flyOut",
                                      "type" : 1,
                                      "characterOrder" : 6,
                                      "offsetBetweenCharacters" : 2,
                                      "suggestedDurationPerCharacter" : "29/2",
                                      "overlapProportion" : "1/4",
                                      "movement" : 0,
                                      "springDamping" : 5.0,
                                      "springStiffness" : 50.0,
                                      "bounceBounciness" : 0.45
                                    }
                                  
                                  },
                                  "metadata" : {
                                    "presetName" : "Fly In"
                                  }
                                }
                            ],
                            "start" : 150,
                            "duration" : 300,
                            "mediaStart" : 0,
                            "mediaDuration" : 300,
                            "scalar" : 1,
                            "metadata" : {
                              "clipSpeedAttribute" : false,
                              "default-HAlign" : "center",
                              "default-LineSpace" : 0.0,
                              "default-VAlign" : "center",
                              "default-text-attributes" : "[{\"name\":\"underline\",\"rangeEnd\":3,\"rangeStart\":0,\"value\":0,\"valueType\":\"int\"},{\"name\":\"fgColor\",\"rangeEnd\":3,\"rangeStart\":0,\"value\":\"(255,255,255,255)\",\"valueType\":\"color\"},{\"name\":\"fontName\",\"rangeEnd\":3,\"rangeStart\":0,\"value\":\"Roboto Black\",\"valueType\":\"string\"},{\"name\":\"fontItalic\",\"rangeEnd\":3,\"rangeStart\":0,\"value\":2,\"valueType\":\"int\"},{\"name\":\"fontWeight\",\"rangeEnd\":3,\"rangeStart\":0,\"value\":700,\"valueType\":\"int\"},{\"name\":\"kerning\",\"rangeEnd\":3,\"rangeStart\":0,\"value\":0,\"valueType\":\"double\"},{\"name\":\"fontSize\",\"rangeEnd\":3,\"rangeStart\":0,\"value\":256,\"valueType\":\"double\"},{\"name\":\"strikethrough\",\"rangeEnd\":3,\"rangeStart\":0,\"value\":0,\"valueType\":\"int\"}]",
                              "default-translation0" : 556.80894308956,
                              "default-translation1" : 209.722222222322
                            },
                            "animationTracks" : {

                            }
                          }
                        ],
                        "transitions" : [
                          {
                            "name" : "Fade",
                            "duration" : 30,
                            "trivial" : false,
                            "reverse" : false,
                            "bypass" : false,
                            "useAudioPreRoll" : true,
                            "useVisualPreRoll" : true,
                            "leftMedia" : 271
                          }
                        ],
                          "ident" : "",
                          "audioMuted" : false,
                          "videoHidden" : false,
                          "magnetic" : false,
                          "matte" : 0,
                          "solo" : false,
                          "metadata" : {
                            "IsLocked" : "False",
                            "WinTrackHeight" : "56"
                          }
                      }
                    ],
                    "attributes" : {
                      "ident" : "DAO Intro",
                      "widthAttr" : 1916.0,
                      "heightAttr" : 1080.0,
                      "gain" : 1.0,
                      "mixToMono" : false
                    },
                    "effects" : [

                    ],
                    "start" : 0,
                    "duration" : 450,
                    "mediaStart" : 0.0,
                    "mediaDuration" : 450.0,
                    "scalar" : 1,
                    "metadata" : {
                      "IsGroupExpanded" : "False",
                      "clipSpeedAttribute" : false
                    },
                    "animationTracks" : {

                    }
                  },
                  {
                    "id" : 272,
                    "_type" : "UnifiedMedia",
                    "video" : 
                        {
                          "id" : 273,
                          "_type" : "VMFile",
                          "src" : 3,
                          "trackNumber" : 0,
                          "attributes" : {
                            "ident" : "YouTube Social Booster Outro"
                          },
                          "parameters" : {
                            "sourceCrop0" : {
                              "type" : "double",
                              "defaultValue" : 0.0,
                              "interp" : "eioe"
                            },
                            "sourceCrop1" : {
                              "type" : "double",
                              "defaultValue" : 0.0,
                              "interp" : "eioe"
                            },
                            "sourceCrop2" : {
                              "type" : "double",
                              "defaultValue" : 0.0,
                              "interp" : "eioe"
                            },
                            "sourceCrop3" : {
                              "type" : "double",
                              "defaultValue" : 0.0,
                              "interp" : "eioe"
                            },
                            "geometryCrop0" : {
                              "type" : "double",
                              "defaultValue" : 0.0,
                              "interp" : "eioe"
                            },
                            "geometryCrop1" : {
                              "type" : "double",
                              "defaultValue" : 0.0,
                              "interp" : "eioe"
                            },
                            "geometryCrop2" : {
                              "type" : "double",
                              "defaultValue" : 0.0,
                              "interp" : "eioe"
                            },
                            "geometryCrop3" : {
                              "type" : "double",
                              "defaultValue" : 0.0,
                              "interp" : "eioe"
                            }
                          },
                          "effects" : [

                          ],
                          "start" : 450,
                          "duration" : 330,
                          "mediaStart" : 0,
                          "mediaDuration" : 330,
                          "scalar" : 1,
                          "animationTracks" : {

                          }
                        },
                    "audio" : 
                        {
                          "id" : 274,
                          "_type" : "AMFile",
                          "src" : 3,
                          "trackNumber" : 1,
                          "attributes" : {
                            "ident" : "",
                            "gain" : 1.0,
                            "mixToMono" : false
                          },
                            "channelNumber" : "0,1",
                          "effects" : [

                          ],
                          "start" : 450,
                          "duration" : 330,
                          "mediaStart" : 0,
                          "mediaDuration" : 330,
                          "scalar" : 1,
                          "animationTracks" : {

                          }
                        }
,
                    "start" : 450,
                    "duration" : 330,
                    "mediaStart" : 0,
                    "mediaDuration" : 330,
                    "scalar" : 1,
                    "metadata" : {
                      "clipSpeedAttribute" : false
                    }
                  }
                ]
              },
              {
                "trackIndex" : 5,
                "medias" : [
                ]
              },
              {
                "trackIndex" : 6,
                "medias" : [
                ]
              }            ]
          }
        }
      ]
    },
    "trackAttributes" : [
      {
        "ident" : "",
        "audioMuted" : false,
        "videoHidden" : false,
        "magnetic" : false,
        "matte" : 0,
        "solo" : false,
        "metadata" : {
          "IsLocked" : "False",
          "WinTrackHeight" : "56"
        }
      },
      {
        "ident" : "",
        "audioMuted" : true,
        "videoHidden" : true,
        "magnetic" : false,
        "matte" : 0,
        "solo" : false,
        "metadata" : {
          "IsLocked" : "True",
          "WinTrackHeight" : "56"
        }
      },
      {
        "ident" : "",
        "audioMuted" : false,
        "videoHidden" : false,
        "magnetic" : false,
        "matte" : 0,
        "solo" : false,
        "metadata" : {
          "IsLocked" : "False",
          "WinTrackHeight" : "56"
        }
      },
      {
        "ident" : "",
        "audioMuted" : false,
        "videoHidden" : false,
        "magnetic" : false,
        "matte" : 0,
        "solo" : false,
        "metadata" : {
          "IsLocked" : "False",
          "WinTrackHeight" : "56"
        }
      },
      {
        "ident" : "",
        "audioMuted" : false,
        "videoHidden" : false,
        "magnetic" : false,
        "matte" : 0,
        "solo" : false,
        "metadata" : {
          "IsLocked" : "False",
          "WinTrackHeight" : "56"
        }
      },
      {
        "ident" : "",
        "audioMuted" : false,
        "videoHidden" : false,
        "magnetic" : false,
        "matte" : 0,
        "solo" : false,
        "metadata" : {
          "IsLocked" : "False",
          "WinTrackHeight" : "56"
        }
      },
      {
        "ident" : "",
        "audioMuted" : false,
        "videoHidden" : false,
        "magnetic" : false,
        "matte" : 0,
        "solo" : false,
        "metadata" : {
          "IsLocked" : "False",
          "WinTrackHeight" : "56"
        }
      }
    ],
    "captionAttributes" : {
      "enabled" : true,
      "fontName" : "Arial",
      "fontSize" : 64,
      "backgroundColor" : [ 0, 0, 0, 191],
      "foregroundColor" : [ 255, 255, 255, 255],
      "lang" : "en",
      "alignment" : 0,
      "defaultFontSize" : true,
      "opacity" : 0.5,
      "backgroundEnabled" : true,
      "backgroundOnlyAroundText" : true
    },
    "gain" : 1.0,
    "legacyAttenuateAudioMix" : true,
    "backgroundColor" : [ 0, 0, 0, 255]
  },
  "metadata" : {
    "AutoSaveFile" : "C:\\Users\\David\\AppData\\Local\\TechSmith\\Camtasia Studio\\20.0\\Auto-Saves\\07 DAO CRUD Retrieve All84fe4a28.autosave.tscproj",
    "CanvasZoom" : 41,
    "Date" : "2022-02-07 07:51:18 PM",
    "IsAutoSave" : false,
    "Language" : "ENU",
    "ProfileName" : "",
    "Title" : "07 DAO CRUD Retrieve All",
    "audioNarrationNotes" : "",
    "calloutStyle" : "Basic"
  }
}
